<?xml version="1.0" encoding="UTF-8" standalone="no"?>
<svg
   xmlns:dc="http://purl.org/dc/elements/1.1/"
   xmlns:cc="http://creativecommons.org/ns#"
   xmlns:rdf="http://www.w3.org/1999/02/22-rdf-syntax-ns#"
   xmlns:svg="http://www.w3.org/2000/svg"
   xmlns="http://www.w3.org/2000/svg"
   xmlns:xlink="http://www.w3.org/1999/xlink"
   xmlns:sodipodi="http://sodipodi.sourceforge.net/DTD/sodipodi-0.dtd"
   xmlns:inkscape="http://www.inkscape.org/namespaces/inkscape"
   width="211"
   height="140.74"
   version="1.1"
   viewBox="0 0 55.825 37.237"
   id="svg24"
   sodipodi:docname="icon_design.svg"
   inkscape:version="0.92.4 (5da689c313, 2019-01-14)">
  <metadata
     id="metadata28">
    <rdf:RDF>
      <cc:Work
         rdf:about="">
        <dc:format>image/svg+xml</dc:format>
        <dc:type
           rdf:resource="http://purl.org/dc/dcmitype/StillImage" />
        <dc:title></dc:title>
      </cc:Work>
    </rdf:RDF>
  </metadata>
  <sodipodi:namedview
     pagecolor="#ffffff"
     bordercolor="#666666"
     borderopacity="1"
     objecttolerance="10"
     gridtolerance="10"
     guidetolerance="10"
     inkscape:pageopacity="0"
     inkscape:pageshadow="2"
     inkscape:window-width="2560"
     inkscape:window-height="1057"
     id="namedview26"
     showgrid="false"
     showguides="true"
     inkscape:guide-bbox="true"
     inkscape:snap-page="true"
     inkscape:snap-text-baseline="true"
     inkscape:snap-center="true"
     inkscape:snap-object-midpoints="true"
     inkscape:snap-midpoints="true"
     inkscape:snap-smooth-nodes="true"
     inkscape:snap-intersection-paths="true"
     inkscape:object-paths="true"
     inkscape:snap-bbox="true"
     inkscape:bbox-paths="true"
     inkscape:bbox-nodes="true"
     inkscape:snap-bbox-edge-midpoints="true"
     inkscape:snap-bbox-midpoints="true"
     inkscape:zoom="5.5545024"
     inkscape:cx="-131.11892"
     inkscape:cy="32.04463"
     inkscape:window-x="1912"
     inkscape:window-y="-8"
     inkscape:window-maximized="1"
     inkscape:current-layer="svg24">
    <sodipodi:guide
       position="-11.21954,8.192952"
       orientation="1,0"
       id="guide899"
       inkscape:locked="false" />
    <sodipodi:guide
       position="-5.9280704,8.6335614"
       orientation="1,0"
       id="guide901"
       inkscape:locked="false" />
    <sodipodi:guide
       position="-40.604984,13.309821"
       orientation="0,1"
       id="guide903"
       inkscape:locked="false" />
    <sodipodi:guide
       position="-20.530133,8.1453186"
       orientation="1,0"
       id="guide915"
       inkscape:locked="false" />
    <sodipodi:guide
       position="-15.238664,8.3477607"
       orientation="1,0"
       id="guide917"
       inkscape:locked="false" />
    <sodipodi:guide
       position="-17.778738,5.9266366"
       orientation="0,1"
       id="guide919"
       inkscape:locked="false" />
    <sodipodi:guide
       position="-43.250718,14.870572"
       orientation="1,0"
       id="guide1041"
       inkscape:locked="false" />
  </sodipodi:namedview>
  <defs
     id="defs12">
    <linearGradient
       id="linearGradient845"
       x1="16.001"
       x2="8.7384"
       y1="-2.508"
       y2="4.7548"
       gradientTransform="matrix(.61251 -.61251 .61251 .61251 19.69 38.618)"
       gradientUnits="userSpaceOnUse">
      <stop
         stop-color="#f00"
         offset="0"
         id="stop2" />
      <stop
         stop-color="#700000"
         offset="1"
         id="stop4" />
    </linearGradient>
    <linearGradient
       id="linearGradient1044"
       x1="40.889"
       x2="40.889"
       y1=".54418"
       y2="15.609"
       gradientTransform="matrix(.70198 0 0 .70198 -.0013956 26.005)"
       gradientUnits="userSpaceOnUse">
      <stop
         stop-color="#f2e500"
         offset="0"
         id="stop7" />
      <stop
         stop-color="#bb7000"
         offset="1"
         id="stop9" />
    </linearGradient>
    <linearGradient
       inkscape:collect="always"
       xlink:href="#linearGradient1044"
       id="linearGradient854"
       gradientUnits="userSpaceOnUse"
       gradientTransform="matrix(0.70198,0,0,0.70198,-0.0013956,26.005)"
       x1="40.889"
       y1=".54418"
       x2="40.889"
       y2="15.609" />
    <linearGradient
       inkscape:collect="always"
       xlink:href="#linearGradient1044"
       id="linearGradient856"
       gradientUnits="userSpaceOnUse"
       gradientTransform="matrix(0.70198,0,0,0.70198,-0.0013956,26.005)"
       x1="40.889"
       y1=".54418"
       x2="40.889"
       y2="15.609" />
    <linearGradient
       inkscape:collect="always"
       xlink:href="#linearGradient1044"
       id="linearGradient858"
       gradientUnits="userSpaceOnUse"
       gradientTransform="matrix(0.70198,0,0,0.70198,-0.0013956,26.005)"
       x1="40.889"
       y1=".54418"
       x2="40.889"
       y2="15.609" />
    <linearGradient
       inkscape:collect="always"
       xlink:href="#linearGradient1044"
       id="linearGradient860"
       gradientUnits="userSpaceOnUse"
       gradientTransform="matrix(0.70198,0,0,0.70198,-0.0013956,26.005)"
       x1="40.889"
       y1=".54418"
       x2="40.889"
       y2="15.609" />
    <linearGradient
       inkscape:collect="always"
       xlink:href="#linearGradient845"
       id="linearGradient862"
       gradientUnits="userSpaceOnUse"
       gradientTransform="matrix(0.61251,-0.61251,0.61251,0.61251,19.69,38.618)"
       x1="16.001"
       y1="-2.508"
       x2="8.7384"
       y2="4.7548" />
    <linearGradient
       id="linearGradient1210"
       x1="14.784"
       x2="19.547001"
       y1="4.0251002"
       y2="4.0251002"
       gradientTransform="matrix(1.9444168,0,0,1.9444168,-55.003618,-0.16052131)"
       gradientUnits="userSpaceOnUse">
      <stop
         stop-color="#800000"
         offset="0"
         id="stop2-4" />
      <stop
         stop-color="#f00"
         offset="1"
         id="stop4-1" />
    </linearGradient>
    <linearGradient
       inkscape:collect="always"
       xlink:href="#linearGradient1210"
       id="linearGradient894"
       gradientUnits="userSpaceOnUse"
       gradientTransform="matrix(1.1101735,0,0,1.1101735,-36.943751,23.899858)"
       x1="14.784"
       y1="4.0251002"
       x2="19.547001"
       y2="4.0251002" />
  </defs>
  <g
     id="g840">
    <g
       id="g20"
       fill="url(#linearGradient1044)">
      <path
         id="path14"
         stroke-width=".70198"
         d="m52.562 30.245c-0.47735-2.4218-2.6044-4.24-5.1596-4.24-2.0287 0-3.7907 1.1513-4.6682 2.836-2.113 0.22463-3.7556 2.0147-3.7556 4.1838 0 2.3236 1.8883 4.2119 4.2119 4.2119h9.1258c1.9375 0 3.5099-1.5724 3.5099-3.5099 0-1.8532-1.4391-3.3555-3.2642-3.4818zm-0.2457 5.5878h-9.1258c-1.5514 0-2.8079-1.2566-2.8079-2.8079 0-1.5514 1.2566-2.8079 2.8079-2.8079h0.49841c0.46331-1.6216 1.9445-2.8079 3.7135-2.8079 2.134 0 3.8609 1.7269 3.8609 3.8609v0.35099h1.053c1.1653 0 2.106 0.94066 2.106 2.106 0 1.1653-0.94066 2.106-2.106 2.106z" />
      <path
         id="path16"
         stroke-width=".70198"
         d="m14.038 35.833c0.77218 0 1.3969-0.63179 1.3969-1.404l0.0071-7.0198c0-0.77218-0.63178-1.404-1.404-1.404h-11.232c-0.77218 0-1.404 0.63179-1.404 1.404v7.0198c0 0.77218 0.63179 1.404 1.404 1.404h-2.8079v1.404h16.848v-1.404zm-11.232-8.4238h11.232v7.0198h-11.232z" />
      <path
         id="path18"
         stroke-width=".52649"
         d="m20.725 29.515-2.1008 2.106 2.1008 2.106v-1.5795h2.0977v-1.053h-2.0977zm14.375 0v1.5795h-2.0977v1.053h2.0977v1.5795l2.1008-2.106zm-11.223 1.5795v1.053h1.053v-1.053zm7.0198 0v1.053h1.053v-1.053z" />
    </g>
    <path
       id="path22"
       style="paint-order:stroke fill markers"
       stroke-width=".86625"
       stroke="#000"
       fill="url(#linearGradient845)"
       d="m24.151 26.635-1.2249 1.2249 3.7609 3.7609-3.7609 3.7609 1.2249 1.2249 3.7626-3.7609 3.7609 3.7609 1.2249-1.2249-3.7609-3.7609 3.7609-3.7609-1.2249-1.2249-3.7609 3.7609z" />
  </g>
  <g
     id="g852"
     transform="translate(-0.19053377,16.576438)">
    <g
       id="g848"
       style="fill:url(#linearGradient860)">
      <path
         d="m 52.562,30.245 c -0.47735,-2.4218 -2.6044,-4.24 -5.1596,-4.24 -2.0287,0 -3.7907,1.1513 -4.6682,2.836 -2.113,0.22463 -3.7556,2.0147 -3.7556,4.1838 0,2.3236 1.8883,4.2119 4.2119,4.2119 h 9.1258 c 1.9375,0 3.5099,-1.5724 3.5099,-3.5099 0,-1.8532 -1.4391,-3.3555 -3.2642,-3.4818 z m -0.2457,5.5878 h -9.1258 c -1.5514,0 -2.8079,-1.2566 -2.8079,-2.8079 0,-1.5514 1.2566,-2.8079 2.8079,-2.8079 h 0.49841 c 0.46331,-1.6216 1.9445,-2.8079 3.7135,-2.8079 2.134,0 3.8609,1.7269 3.8609,3.8609 v 0.35099 h 1.053 c 1.1653,0 2.106,0.94066 2.106,2.106 0,1.1653 -0.94066,2.106 -2.106,2.106 z"
         id="path842"
         style="fill:url(#linearGradient854);stroke-width:0.70197999"
         inkscape:connector-curvature="0" />
      <path
         d="m 14.038,35.833 c 0.77218,0 1.3969,-0.63179 1.3969,-1.404 l 0.0071,-7.0198 c 0,-0.77218 -0.63178,-1.404 -1.404,-1.404 H 2.806 c -0.77218,0 -1.404,0.63179 -1.404,1.404 v 7.0198 c 0,0.77218 0.63179,1.404 1.404,1.404 h -2.8079 v 1.404 h 16.848 V 35.833 Z M 2.806,27.4092 H 14.038 V 34.429 H 2.806 Z"
         id="path844"
         style="fill:url(#linearGradient856);stroke-width:0.70197999"
         inkscape:connector-curvature="0" />
      <path
         d="m 20.725,29.515 -2.1008,2.106 2.1008,2.106 v -1.5795 h 2.0977 v -1.053 H 20.725 Z m 14.375,0 v 1.5795 h -2.0977 v 1.053 H 35.1 v 1.5795 l 2.1008,-2.106 z m -11.223,1.5795 v 1.053 h 1.053 v -1.053 z m 7.0198,0 v 1.053 h 1.053 v -1.053 z"
         id="path846"
         style="fill:url(#linearGradient858);stroke-width:0.52648997"
         inkscape:connector-curvature="0" />
    </g>
    <path
       d="m 24.151,26.635 -1.2249,1.2249 3.7609,3.7609 -3.7609,3.7609 1.2249,1.2249 3.7626,-3.7609 3.7609,3.7609 1.2249,-1.2249 -3.7609,-3.7609 3.7609,-3.7609 -1.2249,-1.2249 -3.7609,3.7609 z"
       style="fill:url(#linearGradient862);stroke:#000000;stroke-width:0.86624998;paint-order:stroke fill markers"
       id="path850"
       inkscape:connector-curvature="0" />
  </g>
  <path
     inkscape:connector-curvature="0"
     style="fill:url(#linearGradient1210);stroke-width:0.51447439"
     d="m -25.227261,3.5504107 c -0.571065,0 -1.023709,0.463224 -1.023709,1.029109 l -0.0055,7.2021623 c 0,0.565915 0.458084,1.029109 1.029109,1.029109 h 7.202762 c 0.565915,0 1.028509,-0.463224 1.028509,-1.029109 V 4.5795197 c 0,-0.565915 -0.462624,-1.029109 -1.028509,-1.029109 z m 3.861533,1.061109 h 0.194132 c 0.234072,0 0.370203,0.08105 0.408163,0.242362 0.0016,0.0063 0.0024,0.01402 0.0024,0.02351 0,0.0253 -0.0094,0.04545 -0.02834,0.05969 -0.0174,0.01424 -0.04109,0.0211 -0.07114,0.0211 -0.02847,0 -0.0505,-0.0069 -0.06632,-0.0211 -0.01423,-0.01423 -0.02774,-0.0377 -0.04039,-0.06933 -0.01107,-0.02056 -0.03228,-0.03429 -0.06391,-0.0422 -0.03163,-0.0095 -0.07879,-0.01447 -0.140471,-0.01447 h -0.194133 c -0.06959,-0.0016 -0.123621,0.0053 -0.161582,0.0211 -0.03796,0.01581 -0.06497,0.04283 -0.08079,0.08079 -0.01581,0.03796 -0.02351,0.09199 -0.02351,0.161571 v 0.274923 c 0,0.06959 0.0077,0.123621 0.02351,0.161581 0.01582,0.03796 0.04283,0.06497 0.08079,0.08079 0.03796,0.01581 0.09199,0.02351 0.161582,0.02351 h 0.194131 c 0.06168,0 0.108841,-0.0041 0.140472,-0.01206 0.03163,-0.0095 0.05284,-0.02466 0.06391,-0.04522 0.01265,-0.03321 0.02616,-0.05608 0.0404,-0.06873 0.01581,-0.01423 0.03868,-0.0211 0.06873,-0.0211 0.02847,0 0.05133,0.0069 0.06873,0.0211 0.01898,0.01423 0.02834,0.03438 0.02834,0.05969 0,0.0095 -8.2e-4,0.01719 -0.0024,0.02351 -0.03796,0.161322 -0.174089,0.241762 -0.408161,0.241762 h -0.194132 c -0.158161,0 -0.275572,-0.03743 -0.351493,-0.113341 -0.07591,-0.07592 -0.113341,-0.193331 -0.113341,-0.351493 v -0.274922 c 0,-0.158152 0.03743,-0.275573 0.113341,-0.351493 0.07592,-0.07592 0.193332,-0.113121 0.351483,-0.111541 z m 1.285411,0 h 0.370184 c 0.186621,0 0.296572,0.07855 0.329782,0.235132 0.0016,0.0047 0.0018,0.01161 0.0018,0.0211 0,0.02531 -0.0094,0.04628 -0.02834,0.0621 -0.0174,0.01424 -0.04109,0.0211 -0.07114,0.0211 -0.03005,0 -0.05291,-0.0069 -0.06873,-0.0211 -0.01423,-0.01581 -0.02608,-0.03951 -0.03557,-0.07114 -0.0095,-0.01898 -0.02383,-0.03166 -0.04281,-0.03798 -0.01898,-0.0063 -0.04705,-0.0097 -0.08501,-0.0097 h -0.370173 c -0.04112,0 -0.07229,0.0041 -0.09285,0.01206 -0.02056,0.0063 -0.0349,0.01983 -0.04281,0.04039 -0.0063,0.02056 -0.009,0.05195 -0.009,0.09465 0,0.05694 0.0094,0.0958 0.02834,0.116361 0.01898,0.01898 0.05784,0.02834 0.116361,0.02834 h 0.381633 c 0.237232,0 0.355713,0.118471 0.355713,0.355713 0,0.237232 -0.118471,0.355713 -0.355713,0.355713 h -0.388873 c -0.200862,0 -0.317673,-0.08293 -0.350883,-0.248992 -0.0016,-0.0048 -0.0024,-0.01161 -0.0024,-0.0211 0,-0.02689 0.0085,-0.04726 0.02593,-0.0615 0.01898,-0.01581 0.0435,-0.02412 0.07355,-0.02412 0.03005,0 0.05291,0.0083 0.06873,0.02412 0.01581,0.01423 0.02849,0.03876 0.03798,0.07355 0.0095,0.02372 0.02466,0.03912 0.04522,0.04703 0.02214,0.0079 0.05602,0.01206 0.101891,0.01206 h 0.388873 c 0.06168,0 0.103031,-0.01018 0.123591,-0.03075 0.02214,-0.02056 0.03316,-0.06274 0.03316,-0.126001 0,-0.06326 -0.01101,-0.104841 -0.03316,-0.125401 -0.02056,-0.02056 -0.06191,-0.03075 -0.123591,-0.03075 h -0.38163 c -0.229322,0 -0.344253,-0.114931 -0.344253,-0.344253 0,-0.117031 0.02867,-0.204122 0.08561,-0.261053 0.05694,-0.05694 0.143191,-0.08561 0.258642,-0.08561 z m 1.08281,0 c 0.03638,0 0.06422,0.02181 0.0832,0.06451 l 0.332193,0.810897 0.365353,-0.815717 c 0.02056,-0.03954 0.04863,-0.05969 0.08501,-0.05969 0.01265,0 0.02865,0.0042 0.04763,0.01206 0.03954,0.01898 0.05969,0.04599 0.05969,0.08079 0,0.01423 -0.0041,0.03129 -0.01206,0.05185 l -0.436494,0.984528 c -0.02056,0.04903 -0.05859,0.07355 -0.113951,0.07355 -0.04903,0 -0.08457,-0.02558 -0.10671,-0.07777 l -0.403335,-0.982118 c -0.0079,-0.02056 -0.01206,-0.03739 -0.01206,-0.05004 0,-0.03796 0.02181,-0.06497 0.06451,-0.08079 0.01898,-0.0079 0.03437,-0.01206 0.04703,-0.01206 z m -6.229754,1.511413 h 7.202762 v 5.6587493 h -7.202762 z m 2.217419,1.028509 -0.545625,0.545625 1.255211,1.25521 -1.255211,1.2552113 0.545625,0.545625 1.255211,-1.2558113 1.255211,1.2558113 0.545624,-0.545625 -1.25581,-1.2552113 1.25581,-1.25521 -0.545624,-0.545625 -1.255211,1.255211 z"
     id="path9" />
  <g
     id="g913"
     transform="rotate(-45,-17.885542,28.664563)">
    <g
       transform="matrix(0.18708636,0.18708636,-0.18708636,0.18708636,-17.885542,24.17449)"
       id="g890">
      <path
         inkscape:connector-curvature="0"
         d="m 8,4 v 1.45 l 2,2 V 4 h 4 v 4 h -3.45 l 2,2 H 14 v 1.45 l 2,2 V 10 h 4 v 4 h -3.45 l 2,2 H 20 v 1.45 l 2,2 V 4 C 22,2.9 21.1,2 20,2 H 4.55 l 2,2 z m 8,0 h 4 V 8 H 16 Z M 1.27,1.27 0,2.55 l 2,2 V 20 c 0,1.1 0.9,2 2,2 h 15.46 l 2,2 1.27,-1.27 z M 10,12.55 11.45,14 H 10 Z M 4,6.55 5.45,8 H 4 Z M 8,20 H 4 V 16 H 8 Z M 8,14 H 4 V 10 H 7.45 L 8,10.55 Z m 6,6 h -4 v -4 h 3.45 L 14,16.54 Z m 2,0 V 18.54 L 17.46,20 Z"
         id="path878" />
    </g>
    <rect
       y="24.65156"
       x="-18.362614"
       height="8.0278759"
       width="0.47707021"
       id="rect905"
       style="opacity:1;fill:#353564;fill-opacity:0.60550459;stroke:none;stroke-width:0.13404155;stroke-linecap:round;stroke-linejoin:round;stroke-miterlimit:4;stroke-dasharray:none;stroke-dashoffset:0;stroke-opacity:1;paint-order:markers fill stroke" />
    <rect
       style="opacity:1;fill:#353564;fill-opacity:0.60550459;stroke:none;stroke-width:0.13404155;stroke-linecap:round;stroke-linejoin:round;stroke-miterlimit:4;stroke-dasharray:none;stroke-dashoffset:0;stroke-opacity:1;paint-order:markers fill stroke"
       id="rect907"
       width="0.47707021"
       height="8.0278759"
       x="-17.885544"
       y="24.65156" />
  </g>
  <rect
     style="opacity:1;fill:#353564;fill-opacity:0.60550459;stroke:none;stroke-width:0.13229004;stroke-linecap:round;stroke-linejoin:round;stroke-miterlimit:4;stroke-dasharray:none;stroke-dashoffset:0;stroke-opacity:1;paint-order:markers fill stroke"
     id="rect921"
     width="5.2916007"
     height="5.2916007"
     x="-20.531343"
     y="26.018763"
     ry="0.52916014" />
  <path
     style="fill:url(#linearGradient894);stroke-width:0.29374146"
     d="m -19.942914,26.018763 c -0.326053,0 -0.584484,0.264341 -0.584484,0.587436 l -5.71e-4,0.876579 h 5.284851 v -0.876579 c 0,-0.323113 -0.264046,-0.587436 -0.58714,-0.587436 z m 2.204873,0.605728 h 0.110937 c 0.133644,0 0.211412,0.04628 0.233086,0.138376 9.13e-4,0.0036 0.0012,0.0079 0.0012,0.01328 0,0.01445 -0.0054,0.02609 -0.01623,0.03422 -0.0099,0.0081 -0.02326,0.0121 -0.04042,0.0121 -0.01625,0 -0.02903,-0.004 -0.03806,-0.0121 -0.0081,-0.0081 -0.01579,-0.02147 -0.02301,-0.03954 -0.0063,-0.01174 -0.01853,-0.01968 -0.03659,-0.02419 -0.01806,-0.0054 -0.04474,-0.0083 -0.07996,-0.0083 h -0.110938 c -0.03973,-9.13e-4 -0.07067,0.0031 -0.09235,0.0121 -0.02167,0.009 -0.03699,0.02435 -0.04603,0.04603 -0.009,0.02167 -0.01357,0.05262 -0.01357,0.09235 v 0.156964 c 0,0.03973 0.0045,0.07068 0.01357,0.09235 0.009,0.02167 0.02435,0.03699 0.04603,0.04603 0.02167,0.009 0.05261,0.01328 0.09235,0.01328 h 0.110938 c 0.03522,0 0.0619,-0.0022 0.07996,-0.0068 0.01806,-0.0054 0.03026,-0.01393 0.03659,-0.02567 0.0072,-0.01896 0.01488,-0.03202 0.02301,-0.03924 0.009,-0.0081 0.02208,-0.0121 0.03924,-0.0121 0.01626,0 0.02931,0.004 0.03924,0.0121 0.01084,0.0081 0.01623,0.01948 0.01623,0.03393 0,0.0054 -2.79e-4,0.01 -0.0012,0.01357 -0.02167,0.09211 -0.09944,0.137786 -0.233086,0.137786 h -0.110937 c -0.0903,0 -0.157284,-0.02127 -0.200631,-0.06461 -0.04334,-0.04335 -0.06491,-0.110327 -0.06491,-0.20063 v -0.156956 c 0,-0.0903 0.02157,-0.157284 0.06491,-0.200631 0.04335,-0.04335 0.110334,-0.06463 0.200631,-0.06373 z m 0.733777,0 h 2.95e-4 0.211253 c 0.106552,0 0.169277,0.04484 0.188239,0.134246 9.13e-4,0.0027 8.85e-4,0.0067 8.85e-4,0.0121 0,0.01445 -0.0051,0.02637 -0.01593,0.03541 -0.0099,0.0081 -0.02356,0.0121 -0.04072,0.0121 -0.01716,0 -0.03021,-0.004 -0.03924,-0.0121 -0.0081,-0.009 -0.01494,-0.02266 -0.02036,-0.04072 -0.0054,-0.01084 -0.01365,-0.01793 -0.02449,-0.02154 -0.01084,-0.0036 -0.02671,-0.0056 -0.04839,-0.0056 h -0.211548 c -0.02348,0 -0.04107,0.0022 -0.05281,0.0068 -0.01174,0.0036 -0.01997,0.01157 -0.02449,0.02331 -0.0036,0.01174 -0.0053,0.02962 -0.0053,0.054 0,0.03251 0.0054,0.05465 0.01623,0.06639 0.01084,0.01084 0.03297,0.01623 0.06638,0.01623 h 0.218039 c 0.135448,0 0.202991,0.06754 0.202991,0.202991 0,0.135449 -0.06754,0.202991 -0.202991,0.202991 h -0.222169 c -0.114683,0 -0.181375,-0.0471 -0.200336,-0.141917 -9.14e-4,-0.0027 -0.0012,-0.0067 -0.0012,-0.0121 0,-0.01535 0.0048,-0.02698 0.01475,-0.03511 0.01084,-0.009 0.02474,-0.01387 0.0419,-0.01387 0.01716,0 0.03021,0.0049 0.03924,0.01387 0.009,0.0081 0.01642,0.02203 0.02183,0.0419 0.0054,0.01354 0.01393,0.02233 0.02567,0.02685 0.01264,0.0045 0.03223,0.0068 0.05842,0.0068 h 0.221874 c 0.03522,0 0.05878,-0.0057 0.07052,-0.01741 0.01264,-0.01174 0.01888,-0.03587 0.01888,-0.07199 0,-0.03612 -0.0062,-0.05996 -0.01888,-0.0717 -0.01174,-0.01174 -0.0353,-0.01741 -0.07052,-0.01741 h -0.217744 c -0.130932,0 -0.196795,-0.06557 -0.196795,-0.1965 0,-0.06682 0.01647,-0.116493 0.04898,-0.148998 0.03246,-0.03245 0.08177,-0.04893 0.147523,-0.04898 z m 0.618415,0 c 0.02077,0 0.03667,0.0125 0.0475,0.03688 l 0.189714,0.462926 0.208597,-0.465876 c 0.01174,-0.02257 0.02762,-0.03393 0.04839,-0.03393 0.0072,0 0.01631,0.0023 0.02714,0.0068 0.02258,0.01084 0.03422,0.02645 0.03422,0.04632 0,0.0081 -0.0022,0.01777 -0.0068,0.02951 l -0.249313,0.562061 c -0.01174,0.02799 -0.0336,0.0419 -0.0652,0.0419 -0.02799,0 -0.04814,-0.01446 -0.06078,-0.04425 l -0.230426,-0.560908 c -0.0045,-0.01174 -0.0068,-0.0211 -0.0068,-0.02833 0,-0.02167 0.0125,-0.03729 0.03688,-0.04632 0.01084,-0.0045 0.01962,-0.0068 0.02685,-0.0068 z"
     id="path892"
     inkscape:connector-curvature="0" />
  <rect
     style="opacity:1;fill:#353564;fill-opacity:0.60550459;stroke:none;stroke-width:0.16405487;stroke-linecap:round;stroke-linejoin:round;stroke-miterlimit:4;stroke-dasharray:none;stroke-dashoffset:0;stroke-opacity:1;paint-order:markers fill stroke"
     id="rect923"
     width="4.2332778"
     height="3.2984245"
     x="-20.002182"
     y="27.482779"
     ry="0" />
  <g
     transform="rotate(-45,-31.49825,37.94709)"
     id="g933">
    <g
       id="g927"
       transform="matrix(0.18708636,0.18708636,-0.18708636,0.18708636,-17.885542,24.17449)" />
  </g>
  <path
     style="opacity:1;fill:#353564;fill-opacity:0.60550459;stroke:none;stroke-width:0.5;stroke-linecap:round;stroke-linejoin:round;stroke-miterlimit:4;stroke-dasharray:none;stroke-dashoffset:0;stroke-opacity:1;paint-order:markers fill stroke"
     d="M -164.19922 69.708984 L -165.47266 70.984375 L -163.39258 73.064453 L -163.39258 88.433594 C -163.39257 89.541595 -162.50058 90.433594 -161.39258 90.433594 L -146.02344 90.433594 L -144.01758 92.439453 L -142.74414 91.164062 L -144.02148 89.886719 L -145.50195 88.40625 L -148.75195 85.15625 L -151.39258 82.515625 L -153.33398 80.574219 L -154.69336 79.214844 L -155.39258 78.515625 L -157.39258 76.515625 L -157.94336 75.964844 L -162.84375 71.064453 L -164.19922 69.708984 z M -160.92383 70.433594 L -155.39258 75.964844 L -151.39258 75.964844 L -151.39258 79.214844 L -152.14258 79.214844 L -149.39258 81.964844 L -149.39258 80.548828 L -145.39258 80.548828 L -145.39258 83.798828 L -147.55859 83.798828 L -146.20117 85.15625 L -145.39258 85.15625 L -145.39258 85.964844 L -143.39258 87.964844 L -143.39258 72.433594 C -143.39258 71.325593 -144.28457 70.433594 -145.39258 70.433594 L -160.92383 70.433594 z M -152.83398 72.722656 L -152.41602 72.722656 C -151.91091 72.722656 -151.61707 72.896065 -151.53516 73.244141 C -151.53171 73.257747 -151.5293 73.274739 -151.5293 73.294922 C -151.5293 73.349537 -151.55083 73.395053 -151.5918 73.425781 C -151.62921 73.456396 -151.67928 73.472656 -151.74414 73.472656 C -151.80556 73.472656 -151.85454 73.456396 -151.88867 73.425781 C -151.91929 73.395167 -151.94732 73.345641 -151.97461 73.277344 C -151.99842 73.232972 -152.04502 73.202593 -152.11328 73.185547 C -152.18154 73.165137 -152.2829 73.152344 -152.41602 73.152344 L -152.83398 73.152344 C -152.98415 73.148893 -153.10165 73.163325 -153.18359 73.197266 C -153.2655 73.231282 -153.32325 73.289153 -153.35742 73.371094 C -153.39144 73.452997 -153.4082 73.570541 -153.4082 73.720703 L -153.4082 74.314453 C -153.4082 74.464616 -153.39159 74.582159 -153.35742 74.664062 C -153.32341 74.745967 -153.26553 74.803723 -153.18359 74.837891 C -153.10169 74.871907 -152.98418 74.886719 -152.83398 74.886719 L -152.41602 74.886719 C -152.2829 74.886719 -152.18154 74.878714 -152.11328 74.861328 C -152.04502 74.840918 -151.99853 74.809997 -151.97461 74.765625 C -151.9474 74.693964 -151.9194 74.644476 -151.88867 74.617188 C -151.85466 74.586572 -151.80509 74.570313 -151.74023 74.570312 C -151.67878 74.570312 -151.62933 74.586572 -151.5918 74.617188 C -151.55083 74.647802 -151.5293 74.689526 -151.5293 74.744141 C -151.5293 74.76455 -151.53186 74.783382 -151.53516 74.796875 C -151.61706 75.145012 -151.91088 75.316406 -152.41602 75.316406 L -152.83398 75.316406 C -153.17528 75.316406 -153.42991 75.236035 -153.59375 75.072266 C -153.75756 74.908421 -153.83789 74.65576 -153.83789 74.314453 L -153.83789 73.720703 C -153.83789 73.379408 -153.75756 73.126724 -153.59375 72.962891 C -153.42991 72.799046 -153.17528 72.719255 -152.83398 72.722656 z M -150.06055 72.722656 L -149.26172 72.722656 C -148.85899 72.722656 -148.62245 72.890584 -148.55078 73.228516 C -148.54733 73.23872 -148.54688 73.254981 -148.54688 73.275391 C -148.54688 73.330005 -148.56653 73.374036 -148.60742 73.408203 C -148.64484 73.438818 -148.69686 73.455078 -148.76172 73.455078 C -148.82658 73.455078 -148.87603 73.438818 -148.91016 73.408203 C -148.94077 73.374187 -148.96588 73.324118 -148.98633 73.255859 C -149.00674 73.214889 -149.03715 73.187472 -149.07812 73.173828 C -149.11911 73.160222 -149.17974 73.152344 -149.26172 73.152344 L -150.06055 73.152344 C -150.14929 73.152344 -150.21735 73.160348 -150.26172 73.177734 C -150.30609 73.191341 -150.33643 73.221253 -150.35352 73.265625 C -150.36712 73.309997 -150.37305 73.378557 -150.37305 73.470703 C -150.37305 73.593577 -150.35339 73.676331 -150.3125 73.720703 C -150.27153 73.761674 -150.18682 73.783203 -150.06055 73.783203 L -149.23828 73.783203 C -148.72634 73.783203 -148.4707 74.038815 -148.4707 74.550781 C -148.4707 75.062721 -148.72632 75.316406 -149.23828 75.316406 L -150.07617 75.316406 C -150.50962 75.316406 -150.76233 75.139637 -150.83398 74.78125 C -150.83745 74.771045 -150.83789 74.754785 -150.83789 74.734375 C -150.83789 74.676359 -150.82089 74.632291 -150.7832 74.601562 C -150.74223 74.567546 -150.68986 74.550781 -150.625 74.550781 C -150.56014 74.550781 -150.51069 74.567773 -150.47656 74.601562 C -150.44255 74.632178 -150.41498 74.684665 -150.39453 74.759766 C -150.37412 74.810941 -150.34125 74.844244 -150.29688 74.861328 C -150.24909 74.878336 -150.17516 74.888672 -150.07617 74.888672 L -149.23828 74.888672 C -149.10516 74.888672 -149.01508 74.866373 -148.9707 74.822266 C -148.92293 74.777893 -148.90039 74.687299 -148.90039 74.550781 C -148.90039 74.414263 -148.9227 74.323669 -148.9707 74.279297 C -149.01508 74.234925 -149.10513 74.212891 -149.23828 74.212891 L -150.06055 74.212891 C -150.55541 74.212891 -150.80469 73.965555 -150.80469 73.470703 C -150.80469 73.218152 -150.74201 73.031058 -150.61914 72.908203 C -150.49646 72.785556 -150.30907 72.722845 -150.06055 72.722656 z M -147.72461 72.722656 C -147.64611 72.722656 -147.58585 72.769182 -147.54492 72.861328 L -146.82812 74.611328 L -146.03906 72.849609 C -145.99469 72.764304 -145.93397 72.722656 -145.85547 72.722656 C -145.82826 72.722656 -145.79484 72.731039 -145.75391 72.748047 C -145.66856 72.789017 -145.625 72.846775 -145.625 72.921875 C -145.625 72.95249 -145.633 72.990784 -145.65039 73.035156 L -146.5918 75.158203 C -146.63617 75.263993 -146.71846 75.316406 -146.83789 75.316406 C -146.94368 75.316406 -147.02059 75.262984 -147.06836 75.150391 L -147.93945 73.029297 C -147.95646 72.984925 -147.96484 72.949201 -147.96484 72.921875 C -147.96484 72.839972 -147.91832 72.782176 -147.82617 72.748047 C -147.7852 72.731039 -147.75194 72.724609 -147.72461 72.724609 L -147.72461 72.722656 z M -149.39258 75.941406 L -145.39258 75.941406 L -145.39258 79.191406 L -149.39258 79.191406 L -149.39258 75.941406 z M -161.39258 75.964844 L -160.49219 75.964844 L -157.39258 79.064453 L -157.39258 79.214844 L -161.39258 79.214844 L -161.39258 75.964844 z M -161.39258 80.574219 L -157.39258 80.574219 L -157.39258 83.824219 L -161.39258 83.824219 L -161.39258 80.574219 z M -155.39258 81.064453 L -152.63281 83.824219 L -155.39258 83.824219 L -155.39258 81.064453 z M -161.39258 85.181641 L -157.39258 85.181641 L -157.39258 88.431641 L -161.39258 88.431641 L -161.39258 85.181641 z M -155.39258 85.181641 L -151.39258 85.181641 L -151.39258 88.431641 L -155.39258 88.431641 L -155.39258 85.181641 z M -149.39258 87.064453 L -148.05078 88.40625 L -149.39258 88.40625 L -149.39258 87.064453 z "
     transform="matrix(0.26458007,0,0,0.26458007,-6.9700631e-4,0)"
     id="rect935" />
  <g
     transform="rotate(-45,-38.158409,52.399828)"
     id="g1031">
    <g
       id="g1025"
       transform="matrix(0.18708636,0.18708636,-0.18708636,0.18708636,-17.885542,24.17449)" />
  </g>
</svg>
