<?xml version="1.0" encoding="UTF-8" standalone="no"?>
<svg
   xmlns:dc="http://purl.org/dc/elements/1.1/"
   xmlns:cc="http://creativecommons.org/ns#"
   xmlns:rdf="http://www.w3.org/1999/02/22-rdf-syntax-ns#"
   xmlns:svg="http://www.w3.org/2000/svg"
   xmlns="http://www.w3.org/2000/svg"
   xmlns:sodipodi="http://sodipodi.sourceforge.net/DTD/sodipodi-0.dtd"
   xmlns:inkscape="http://www.inkscape.org/namespaces/inkscape"
   width="600"
   height="40"
   version="1.1"
   viewBox="0 0 600 40"
   id="svg10"
   sodipodi:docname="waiting_overlay_icons.svg"
   inkscape:version="0.92.4 (5da689c313, 2019-01-14)">
  <metadata
     id="metadata16">
    <rdf:RDF>
      <cc:Work
         rdf:about="">
        <dc:format>image/svg+xml</dc:format>
        <dc:type
           rdf:resource="http://purl.org/dc/dcmitype/StillImage" />
        <dc:title></dc:title>
      </cc:Work>
    </rdf:RDF>
  </metadata>
  <defs
     id="defs14">
    <linearGradient
       gradientUnits="userSpaceOnUse"
       gradientTransform="matrix(0.61251,-0.61251,0.61251,0.61251,19.69,38.618)"
       y2="4.7547998"
       y1="-2.5079999"
       x2="8.7384005"
       x1="16.000999"
       id="linearGradient845">
      <stop
         id="stop1051"
         offset="0"
         stop-color="#f00" />
      <stop
         id="stop1053"
         offset="1"
         stop-color="#700000" />
    </linearGradient>
    <linearGradient
       gradientUnits="userSpaceOnUse"
       gradientTransform="matrix(0.70198,0,0,0.70198,-0.0013956,26.005)"
       y2="15.609"
       y1="0.54417998"
       x2="40.889"
       x1="40.889"
       id="linearGradient1044">
      <stop
         id="stop1056"
         offset="0"
         stop-color="#f2e500" />
      <stop
         id="stop1058"
         offset="1"
         stop-color="#bb7000" />
    </linearGradient>
    <linearGradient
       gradientUnits="userSpaceOnUse"
       gradientTransform="matrix(5.8799917,0,0,5.8796137,-1193.7394,43.365171)"
       y2="11.949"
       y1="0.14963"
       x2="192.17"
       x1="192.17"
       id="linearGradient1577">
      <stop
         id="stop1092"
         offset="0"
         stop-color="#f2e500" />
      <stop
         id="stop1094"
         offset="1"
         stop-color="#bb7000" />
    </linearGradient>
    <linearGradient
       gradientUnits="userSpaceOnUse"
       gradientTransform="translate(-36.416,-12.117)"
       y2="53.313"
       y1="39.193001"
       x2="56.877998"
       x1="56.877998"
       id="linearGradient1662">
      <stop
         id="stop1111"
         offset="0"
         stop-color="#ebeb00" />
      <stop
         id="stop1113"
         offset="1"
         stop-color="#a40" />
    </linearGradient>
    <filter
       height="1.126"
       width="1.0296"
       y="-0.063000001"
       x="-0.014824"
       id="filter1210"
       style="color-interpolation-filters:sRGB">
      <feGaussianBlur
         id="feGaussianBlur1135"
         stdDeviation="1.3125" />
    </filter>
    <linearGradient
       gradientUnits="userSpaceOnUse"
       gradientTransform="matrix(5.8799917,0,0,5.8796137,-1202.4252,-26.120918)"
       y2="11.949"
       y1="0.14963"
       x2="192.17"
       x1="192.17"
       id="linearGradient1577-7">
      <stop
         id="stop1365"
         offset="0"
         stop-color="#f2e500" />
      <stop
         id="stop1367"
         offset="1"
         stop-color="#bb7000" />
    </linearGradient>
    <linearGradient
       id="linearGradient1577-71"
       x1="192.17"
       x2="192.17"
       y1="0.14963"
       y2="11.949"
       gradientTransform="matrix(1.5557364,0,0,1.5556364,-280.33483,17.273109)"
       gradientUnits="userSpaceOnUse">
      <stop
         stop-color="#f2e500"
         offset="0"
         id="stop3042" />
      <stop
         stop-color="#bb7000"
         offset="1"
         id="stop3044" />
    </linearGradient>
    <linearGradient
       id="linearGradient1210"
       x1="14.784"
       x2="19.547001"
       y1="4.0251002"
       y2="4.0251002"
       gradientTransform="matrix(1.9444168,0,0,1.9444168,-55.003618,-0.16052131)"
       gradientUnits="userSpaceOnUse">
      <stop
         stop-color="#800000"
         offset="0"
         id="stop2-4" />
      <stop
         stop-color="#f00"
         offset="1"
         id="stop4-1" />
    </linearGradient>
  </defs>
  <sodipodi:namedview
     pagecolor="#ffffff"
     bordercolor="#666666"
     borderopacity="1"
     objecttolerance="10"
     gridtolerance="10"
     guidetolerance="10"
     inkscape:pageopacity="0"
     inkscape:pageshadow="2"
     inkscape:window-width="2560"
     inkscape:window-height="1057"
     id="namedview12"
     showgrid="false"
     inkscape:zoom="2"
     inkscape:cx="420.30906"
     inkscape:cy="-134.38755"
     inkscape:window-x="1912"
     inkscape:window-y="-8"
     inkscape:window-maximized="1"
     inkscape:current-layer="svg10"
     inkscape:snap-page="true"
     showguides="true"
     inkscape:guide-bbox="true"
     inkscape:snap-bbox="true"
     inkscape:bbox-paths="true"
     inkscape:bbox-nodes="true"
     inkscape:snap-bbox-edge-midpoints="true"
     inkscape:snap-bbox-midpoints="true"
     inkscape:object-paths="true"
     inkscape:snap-intersection-paths="true"
     inkscape:snap-smooth-nodes="true"
     inkscape:snap-midpoints="true"
     inkscape:snap-object-midpoints="true"
     inkscape:snap-center="true"
     inkscape:snap-text-baseline="true" />
  <rect
     transform="scale(-1,1)"
     y="0"
     x="-600"
     height="40"
     width="199.99998"
     id="rect1499"
     style="opacity:1;fill:none;fill-opacity:1;stroke:none;stroke-width:1;stroke-linecap:round;stroke-linejoin:miter;stroke-miterlimit:4;stroke-dasharray:none;stroke-dashoffset:0;stroke-opacity:1;paint-order:normal" />
  <path
     inkscape:connector-curvature="0"
     id="path2"
     d="m 187.78625,15.100001 c -1.7,-8.6249999 -9.275,-15.0999996462681 -18.375,-15.0999996462681 -7.225,0 -13.5,4.0999998462681 -16.625,10.0999996462681 -7.525,0.8 -13.375,7.175 -13.375,14.899999 0,8.275 6.725,15 15,15 h 32.5 c 6.9,0 12.5,-5.6 12.5,-12.5 0,-6.599999 -5.125,-11.949999 -11.625,-12.399999 z M 186.91125,35 h -32.5 c -5.525,0 -10,-4.475 -10,-10 0,-5.524999 4.475,-9.999999 10,-9.999999 h 1.775 c 1.65,-5.775 6.925,-9.9999998 13.225,-9.9999998 7.6,0 13.75,6.1499998 13.75,13.7499998 v 1.25 h 3.75 c 4.15,0 7.5,3.349999 7.5,7.499999 0,4.15 -3.35,7.5 -7.5,7.5 z"
     style="fill:#808080;stroke-width:1" />
  <path
     inkscape:connector-curvature="0"
     id="path4"
     d="m 50.588753,35 c 2.75,0 4.974999,-2.25 4.974999,-5 l 0.025,-24.9999988 C 55.588752,2.2500013 53.338753,1.3537319e-6 50.588753,1.3537319e-6 H 10.588754 C 7.8387544,1.3537319e-6 5.5887545,2.2500013 5.5887545,5.0000012 V 30 c 0,2.75 2.2499999,5 4.9999995,5 H 0.58875465 v 5 H 60.588752 V 35 Z M 10.588754,5.0000012 H 50.588753 V 30 H 10.588754 Z"
     style="fill:#808080;stroke-width:1" />
  <path
     style="fill:#808080;stroke-width:0.75"
     inkscape:connector-curvature="0"
     id="path6"
     d="m 79.403751,12.500001 -7.481749,7.5 L 79.403751,27.5 v -5.625 h 7.47075 v -3.749999 h -7.47075 z m 41.192499,0 v 5.625 H 113.1255 V 21.875 h 7.47075 V 27.5 l 7.48175,-7.499999 z m -29.969999,5.625 V 21.875 h 3.75 v -3.749999 z m 7.5,0 V 21.875 h 3.749999 v -3.749999 z m 7.499999,0 V 21.875 h 3.75 v -3.749999 z" />
  <rect
     style="opacity:1;fill:none;fill-opacity:0.59633029;stroke:none;stroke-width:0.99999988;stroke-linecap:round;stroke-linejoin:miter;stroke-miterlimit:4;stroke-dasharray:none;stroke-dashoffset:0;stroke-opacity:1;paint-order:normal"
     id="rect1418"
     width="199.99998"
     height="40"
     x="4.3844439e-06"
     y="8.9535786e-07" />
  <path
     style="fill:#808080;stroke-width:1"
     inkscape:connector-curvature="0"
     d="m 377.78624,15.100002 c -1.7,-8.6249994 -9.275,-15.0999991413834 -18.375,-15.0999991413834 -7.225,0 -13.5,4.0999998413834 -16.625,10.0999991413834 -7.525,0.8 -13.375,7.175 -13.375,14.9 0,8.275 6.725,14.999999 15,14.999999 h 32.5 c 6.9,0 12.5,-5.6 12.5,-12.499999 0,-6.6 -5.125,-11.95 -11.625,-12.4 z m -0.875,19.899999 h -32.5 c -5.525,0 -10,-4.474999 -10,-9.999999 0,-5.525 4.475,-10 10,-10 h 1.775 c 1.65,-5.7749995 6.925,-9.9999993 13.225,-9.9999993 7.6,0 13.75,6.1499993 13.75,13.7499993 v 1.25 h 3.75 c 4.15,0 7.5,3.35 7.5,7.5 0,4.15 -3.35,7.499999 -7.5,7.499999 z"
     id="path1031" />
  <path
     style="fill:#808080;stroke-width:0.75"
     inkscape:connector-curvature="0"
     d="m 269.40375,12.500002 -7.48175,7.5 7.48175,7.5 v -5.625 h 7.47075 v -3.75 h -7.47075 z m 41.1925,0 v 5.625 h -7.47075 v 3.75 h 7.47075 v 5.625 l 7.48174,-7.5 z m -29.97,5.625 v 3.75 h 3.75 v -3.75 z m 7.5,0 v 3.75 h 3.75 v -3.75 z m 7.5,0 v 3.75 h 3.75 v -3.75 z"
     id="path1033" />
  <path
     style="fill:#808080;stroke-width:1"
     inkscape:connector-curvature="0"
     d="m 230.58875,4.7500027 c 2.9,0 5.25,2.3499999 5.25,5.2499993 0,2.9 -2.35,5.25 -5.25,5.25 -2.9,0 -5.25,-2.35 -5.25,-5.25 0,-2.8999994 2.35,-5.2499993 5.25,-5.2499993 m 0,22.4999993 c 7.425,0 15.25,3.65 15.25,5.25 v 2.749999 h -30.5 v -2.749999 c 0,-1.6 7.825,-5.25 15.25,-5.25 m 0,-27.2499991413834 c -5.525,0 -10,4.4749998413834 -10,9.9999991413834 0,5.525 4.475,10 10,10 5.525,0 10,-4.475 10,-10 0,-5.5249993 -4.475,-9.9999991413834 -10,-9.9999991413834 z m 0,22.4999991413834 c -6.675,0 -20,3.35 -20,10 v 7.499999 h 40 v -7.499999 c 0,-6.65 -13.325,-10 -20,-10 z"
     id="path1035" />
  <rect
     y="1.9040267e-06"
     x="200"
     height="40"
     width="199.99998"
     id="rect1420"
     style="opacity:1;fill:none;fill-opacity:0.59633029;stroke:none;stroke-width:0.99999988;stroke-linecap:round;stroke-linejoin:miter;stroke-miterlimit:4;stroke-dasharray:none;stroke-dashoffset:0;stroke-opacity:1;paint-order:normal" />
  <g
     id="g1533"
     transform="translate(0,-80)">
    <path
       id="path1493"
       d="m 480,81.5625 c -2.77001,0 -5,2.230001 -5,5 V 115 c 0,2.77 2.23,5 5,5 h 40 c 2.77,0 5,-2.23 5,-5 V 94.195312 c -2.06295,-1.740496 -3.38281,-4.340617 -3.38281,-7.232421 0,-1.645606 0.43055,-3.196005 1.17969,-4.548829 C 521.9994,81.876581 521.03813,81.5625 520,81.5625 Z m 21.97852,4.765625 h 1.04492 c 1.26277,0 1.99639,0.434496 2.20117,1.304687 0.007,0.03403 0.0156,0.07455 0.0156,0.125 0,0.136527 -0.0538,0.251306 -0.15625,0.328126 -0.0935,0.07653 -0.21873,0.117187 -0.38086,0.117187 -0.1535,0 -0.276,-0.04066 -0.36132,-0.117187 -0.0765,-0.07653 -0.14685,-0.200351 -0.21485,-0.371094 -0.0595,-0.110925 -0.17695,-0.187844 -0.34765,-0.230469 -0.17075,-0.05102 -0.42306,-0.08203 -0.75586,-0.08203 h -1.04492 c -0.37543,-0.0087 -0.67015,0.02648 -0.875,0.111328 -0.20475,0.08505 -0.34818,0.230702 -0.4336,0.435547 -0.085,0.20475 -0.12695,0.497642 -0.12695,0.873047 v 1.484375 c 0,0.375407 0.0414,0.670242 0.12695,0.875 0.085,0.20475 0.22878,0.348173 0.4336,0.433593 0.20475,0.08505 0.4995,0.123047 0.875,0.123047 h 1.04492 c 0.3328,0 0.58521,-0.02097 0.75586,-0.06445 0.17075,-0.05103 0.28785,-0.127356 0.34765,-0.238281 0.068,-0.17915 0.1381,-0.302874 0.21485,-0.371094 0.085,-0.07655 0.20899,-0.117162 0.37109,-0.117187 0.15375,0 0.27726,0.04066 0.37109,0.117187 0.1025,0.07653 0.15625,0.181827 0.15625,0.318359 0,0.05103 -0.008,0.09713 -0.0156,0.13086 -0.20475,0.870342 -0.93832,1.298828 -2.20117,1.298828 h -1.04492 c -0.85325,0 -1.4908,-0.201903 -1.9004,-0.611328 -0.40951,-0.409612 -0.60939,-1.041264 -0.60937,-1.894531 v -1.484375 c 0,-0.853238 0.19977,-1.48495 0.60937,-1.894532 0.40961,-0.409615 1.04715,-0.608112 1.9004,-0.599609 z m 6.93359,0 h 1.99609 c 1.00683,0 1.59818,0.420794 1.77735,1.265625 0.007,0.0255 0.01,0.06426 0.01,0.115234 0,0.136525 -0.0484,0.246626 -0.15039,0.332032 -0.0935,0.07653 -0.2245,0.117187 -0.38672,0.117187 -0.16225,0 -0.28577,-0.04066 -0.37109,-0.117187 -0.0765,-0.08505 -0.1382,-0.210225 -0.18945,-0.38086 -0.051,-0.102425 -0.12797,-0.170978 -0.23047,-0.205078 -0.1025,-0.03402 -0.25404,-0.05273 -0.45899,-0.05273 h -1.99609 c -0.22175,0 -0.39298,0.01903 -0.50391,0.0625 -0.111,0.03403 -0.18576,0.109778 -0.22851,0.220703 -0.034,0.110924 -0.0488,0.281355 -0.0488,0.511719 0,0.307185 0.0479,0.51407 0.15039,0.625 0.1025,0.102425 0.31519,0.15625 0.63086,0.15625 h 2.05469 c 1.27984,0 1.91992,0.640006 1.91992,1.919922 0,1.279848 -0.64002,1.914062 -1.91992,1.914062 h -2.09375 c -1.08362,0 -1.71538,-0.441924 -1.89453,-1.337891 -0.008,-0.0255 -0.01,-0.06618 -0.01,-0.117187 0,-0.14505 0.0425,-0.255208 0.13672,-0.332031 0.1025,-0.08505 0.23226,-0.126954 0.39453,-0.126953 0.16224,0 0.28579,0.04247 0.37109,0.126953 0.085,0.07655 0.15408,0.208726 0.20508,0.396484 0.051,0.12795 0.13313,0.211201 0.24414,0.253906 0.1195,0.04252 0.30526,0.06641 0.55274,0.06641 h 2.09375 c 0.3328,0 0.55897,-0.05574 0.66992,-0.166016 0.1195,-0.110925 0.17578,-0.33644 0.17578,-0.677734 0,-0.341296 -0.0557,-0.568758 -0.17578,-0.679688 -0.111,-0.110925 -0.33704,-0.166016 -0.66992,-0.166016 h -2.05469 c -1.23715,0 -1.86133,-0.618338 -1.86133,-1.855468 0,-0.631377 0.15775,-1.099112 0.46484,-1.40625 0.3067,-0.306617 0.77519,-0.462419 1.39649,-0.462891 z m 5.83984,0 c 0.19624,0 0.34495,0.117301 0.44727,0.347656 l 1.79297,4.375 1.97265,-4.404297 c 0.111,-0.213275 0.26274,-0.318359 0.45899,-0.318359 0.068,0 0.1515,0.02197 0.2539,0.06445 0.21325,0.102425 0.32227,0.245849 0.32227,0.433594 0,0.07653 -0.0209,0.172276 -0.0644,0.283203 l -2.35157,5.308594 c -0.111,0.264475 -0.31861,0.394531 -0.61718,0.394531 -0.26448,0 -0.4548,-0.132575 -0.57422,-0.414062 l -2.17774,-5.302735 c -0.0425,-0.110925 -0.0644,-0.201226 -0.0644,-0.269531 0,-0.204751 0.11528,-0.348272 0.3457,-0.433594 0.1025,-0.04253 0.18548,-0.06055 0.25391,-0.06055 z M 480,95.3125 h 10 v 8.125 h -10 z m 15,0 h 10 v 8.125 h -10 z m 15,0 h 10 v 8.125 h -10 z m -30,11.5625 h 10 V 115 h -10 z m 15,0 h 10 V 115 h -10 z m 15,0 h 10 V 115 h -10 z"
       style="opacity:1;fill:#808080;fill-opacity:1;stroke:none;stroke-width:1;stroke-linecap:round;stroke-linejoin:miter;stroke-miterlimit:4;stroke-dasharray:none;stroke-dashoffset:0;stroke-opacity:1;paint-order:normal"
       inkscape:connector-curvature="0" />
    <path
       d="m 536.95962,90.660797 c 0.68081,-1.0831 1.0831,-2.336401 1.0831,-3.698013 0,-3.85274 -3.11004,-6.962784 -6.96278,-6.962784 -3.85274,0 -6.96279,3.110044 -6.96279,6.962784 0,3.852741 3.11005,6.962785 6.94732,6.962785 1.36161,0 2.63038,-0.402294 3.69801,-1.0831 l 4.82753,4.827531 2.19714,-2.197145 z m -5.87968,0.170201 c -2.13526,0 -3.86822,-1.73296 -3.86822,-3.868214 0,-2.135254 1.73296,-3.868213 3.86822,-3.868213 2.13525,0 3.86821,1.732959 3.86821,3.868213 0,2.135254 -1.73296,3.868214 -3.86821,3.868214 z"
       id="path1501-1"
       inkscape:connector-curvature="0"
       sodipodi:nodetypes="cssssccccsssss"
       style="fill:#808080;fill-opacity:1;stroke:none;stroke-width:5;stroke-miterlimit:4;stroke-dasharray:none;paint-order:stroke fill markers" />
  </g>
  <rect
     style="opacity:1;fill:#ff6600;fill-opacity:0.6513761;stroke:none;stroke-width:1;stroke-linecap:round;stroke-linejoin:miter;stroke-miterlimit:4;stroke-dasharray:none;stroke-dashoffset:0;stroke-opacity:1;paint-order:normal"
     id="rect1520"
     width="199.99998"
     height="40"
     x="-737.17871"
     y="202.68303"
     transform="scale(-1,1)" />
  <path
     style="fill:#808080;fill-opacity:1;stroke-width:1"
     sodipodi:nodetypes="cssssccccsssss"
     inkscape:connector-curvature="0"
     id="path1522"
     d="m 510.25001,211.00225 c 0.68081,-1.0831 1.0831,-2.3364 1.0831,-3.69801 0,-3.85274 -3.11004,-6.96279 -6.96278,-6.96279 -3.85274,0 -6.96279,3.11005 -6.96279,6.96279 0,3.85274 3.11005,6.96278 6.94732,6.96278 1.36161,0 2.63038,-0.40229 3.69801,-1.0831 l 4.82753,4.82753 2.19714,-2.19714 z m -5.87968,0.1702 c -2.13526,0 -3.86822,-1.73296 -3.86822,-3.86821 0,-2.13526 1.73296,-3.86822 3.86822,-3.86822 2.13525,0 3.86821,1.73296 3.86821,3.86822 0,2.13525 -1.73296,3.86821 -3.86821,3.86821 z" />
  <path
     style="opacity:1;fill:#808080;fill-opacity:1;stroke:none;stroke-width:1;stroke-linecap:round;stroke-linejoin:miter;stroke-miterlimit:4;stroke-dasharray:none;stroke-dashoffset:0;stroke-opacity:1;paint-order:normal"
     d="m 617.17873,203.46428 c -2.77001,0 -5.00001,2.23 -5.00001,5 v 28.4375 c 0,2.77 2.23,5 5.00001,5 h 40 c 2.77,0 5,-2.23 5,-5 v -28.4375 c 0,-2.77 -2.23,-5 -5,-5 z m 21.97752,4.76562 h 1.04493 c 1.26277,0 1.99737,0.43352 2.20215,1.30371 0.007,0.034 0.015,0.0765 0.015,0.12695 0,0.13653 -0.0538,0.25033 -0.15625,0.32715 -0.0935,0.0765 -0.21875,0.11718 -0.38088,0.11718 -0.1535,0 -0.276,-0.0406 -0.36132,-0.11718 -0.0765,-0.0765 -0.14675,-0.20035 -0.21475,-0.37109 -0.0595,-0.11093 -0.176,-0.18688 -0.3467,-0.2295 -0.17075,-0.051 -0.42403,-0.083 -0.75683,-0.083 h -1.04492 c -0.37543,-0.009 -0.66918,0.0274 -0.87403,0.1123 -0.20475,0.0851 -0.34915,0.22972 -0.43457,0.43457 -0.085,0.20475 -0.127,0.49862 -0.127,0.87402 v 1.48438 c 0,0.3754 0.0415,0.66926 0.127,0.87402 0.085,0.20475 0.22975,0.34915 0.43457,0.43457 0.20475,0.085 0.49853,0.12208 0.87403,0.12208 h 1.04492 c 0.3328,0 0.58618,-0.02 0.75683,-0.0635 0.17075,-0.051 0.2869,-0.12833 0.3467,-0.23925 0.068,-0.17915 0.138,-0.30288 0.21475,-0.3711 0.085,-0.0765 0.209,-0.11715 0.3711,-0.11717 0.15375,0 0.27727,0.0406 0.3711,0.11717 0.1025,0.0765 0.15625,0.18085 0.15625,0.31739 0,0.051 -0.007,0.0981 -0.015,0.13182 -0.20475,0.87034 -0.9393,1.29883 -2.20215,1.29883 h -1.04493 c -0.85325,0 -1.4898,-0.20093 -1.8994,-0.61035 -0.40952,-0.40961 -0.61037,-1.04127 -0.61035,-1.89453 v -1.48438 c 0,-0.85324 0.20075,-1.48495 0.61035,-1.89453 0.4096,-0.40961 1.04615,-0.60909 1.8994,-0.60058 z m 6.9336,0 h 1.99708 c 1.00682,0 1.59815,0.41982 1.77732,1.26465 0.007,0.0255 0.01,0.0662 0.01,0.11718 0,0.13652 -0.0495,0.24662 -0.1515,0.33203 -0.0935,0.0765 -0.2235,0.11717 -0.38572,0.11717 -0.16225,0 -0.28578,-0.0406 -0.3711,-0.11717 -0.0765,-0.085 -0.13925,-0.21023 -0.1905,-0.38086 -0.051,-0.10243 -0.127,-0.17098 -0.2295,-0.20508 -0.1025,-0.034 -0.25403,-0.0537 -0.45898,-0.0537 h -1.99707 c -0.22175,0 -0.392,0.02 -0.50293,0.0635 -0.111,0.034 -0.18675,0.1088 -0.2295,0.21973 -0.034,0.11092 -0.0487,0.28233 -0.0487,0.51269 0,0.30719 0.049,0.51407 0.1515,0.625 0.1025,0.10243 0.3142,0.15625 0.62988,0.15625 h 2.05565 c 1.27985,0 1.91895,0.63903 1.91895,1.91895 0,1.27985 -0.63905,1.91406 -1.91895,1.91406 h -2.09473 c -1.08362,0 -1.71537,-0.44192 -1.89452,-1.33789 -0.008,-0.0255 -0.01,-0.0662 -0.01,-0.11718 0,-0.14505 0.0425,-0.2552 0.13675,-0.33203 0.1025,-0.085 0.23325,-0.12695 0.39552,-0.12695 0.16225,0 0.28578,0.0425 0.37108,0.12695 0.085,0.0765 0.154,0.20775 0.205,0.39551 0.051,0.12795 0.13325,0.2112 0.24425,0.25391 0.1195,0.0425 0.30427,0.0683 0.55175,0.0683 h 2.09472 c 0.3328,0 0.558,-0.0557 0.66895,-0.16603 0.1195,-0.11092 0.17575,-0.33742 0.17575,-0.67871 0,-0.3413 -0.0557,-0.56778 -0.17575,-0.67871 -0.111,-0.11093 -0.33607,-0.16603 -0.66895,-0.16603 h -2.05565 c -1.23715,0 -1.86035,-0.61834 -1.86035,-1.85547 0,-0.63137 0.15675,-1.09911 0.46385,-1.40625 0.3067,-0.30661 0.7752,-0.46339 1.3965,-0.46386 z m 5.83985,0 c 0.19625,0 0.34688,0.11633 0.4492,0.34668 l 1.792,4.375 1.97265,-4.4043 c 0.111,-0.21327 0.26275,-0.31738 0.459,-0.31738 0.068,0 0.1515,0.021 0.2539,0.0635 0.21325,0.10243 0.32228,0.24683 0.32228,0.43457 0,0.0765 -0.02,0.17228 -0.0635,0.2832 l -2.3535,5.30762 c -0.111,0.26448 -0.31668,0.39551 -0.61525,0.39551 -0.26448,0 -0.45673,-0.13355 -0.57615,-0.41504 l -2.17775,-5.30273 c -0.0425,-0.11093 -0.0635,-0.20025 -0.0635,-0.26856 0,-0.20475 0.11625,-0.34925 0.34667,-0.43457 0.1025,-0.0425 0.1855,-0.0586 0.25393,-0.0586 z m -34.75097,8.98438 h 10 v 8.125 h -10 z m 15,0 h 10 v 8.125 h -10 z m 15,0 h 10 v 8.125 h -10 z m -30,11.5625 h 10 v 8.125 h -10 z m 15,0 h 10 v 8.125 h -10 z m 15,0 h 10 v 8.125 h -10 z"
     id="path1524"
     inkscape:connector-curvature="0"
     sodipodi:nodetypes="ssssssssscscscscccscccssccsscccccscssccsccccscscscccssccscssssscscscccsscscssscccccccscsccsccsccccccccccccccccccccccccccccccccc" />
  <path
     inkscape:connector-curvature="0"
     id="path1526"
     d="m 668.2588,200.18303 c -5.19812,0 -9.46289,4.26476 -9.46289,9.46289 0,5.19812 4.25919,9.46289 9.44726,9.46289 1.10986,0 2.15065,-0.24867 3.14063,-0.60547 l 5.38476,5.38477 5.73633,-5.73438 -5.38867,-5.37109 c 0.35618,-0.98725 0.60547,-2.02574 0.60547,-3.13672 0,-5.19812 -4.26477,-9.46289 -9.46289,-9.46289 z m 0,8.09375 c 0.78259,0 1.36719,0.58654 1.36719,1.36914 0,0.78259 -0.5846,1.36718 -1.36719,1.36718 -0.78261,0 -1.36914,-0.58459 -1.36914,-1.36718 0,-0.7826 0.58653,-1.36914 1.36914,-1.36914 z"
     style="color:#000000;font-style:normal;font-variant:normal;font-weight:normal;font-stretch:normal;font-size:medium;line-height:normal;font-family:sans-serif;font-variant-ligatures:normal;font-variant-position:normal;font-variant-caps:normal;font-variant-numeric:normal;font-variant-alternates:normal;font-feature-settings:normal;text-indent:0;text-align:start;text-decoration:none;text-decoration-line:none;text-decoration-style:solid;text-decoration-color:#000000;letter-spacing:normal;word-spacing:normal;text-transform:none;writing-mode:lr-tb;direction:ltr;text-orientation:mixed;dominant-baseline:auto;baseline-shift:baseline;text-anchor:start;white-space:normal;shape-padding:0;clip-rule:nonzero;display:inline;overflow:visible;visibility:visible;opacity:1;isolation:auto;mix-blend-mode:normal;color-interpolation:sRGB;color-interpolation-filters:linearRGB;solid-color:#000000;solid-opacity:1;vector-effect:none;fill:#ff6500;fill-opacity:0.65098039;fill-rule:nonzero;stroke:none;stroke-width:5;stroke-linecap:butt;stroke-linejoin:miter;stroke-miterlimit:4;stroke-dasharray:none;stroke-dashoffset:0;stroke-opacity:1;paint-order:stroke fill markers;color-rendering:auto;image-rendering:auto;shape-rendering:auto;text-rendering:auto;enable-background:accumulate" />
  <path
     d="m 674.13834,213.34382 c 0.68081,-1.0831 1.0831,-2.3364 1.0831,-3.69801 0,-3.85274 -3.11004,-6.96278 -6.96278,-6.96278 -3.85274,0 -6.96279,3.11004 -6.96279,6.96278 0,3.85274 3.11005,6.96279 6.94732,6.96279 1.36161,0 2.63038,-0.4023 3.69801,-1.0831 l 4.82753,4.82753 2.19714,-2.19715 z m -5.87968,0.1702 c -2.13526,0 -3.86822,-1.73296 -3.86822,-3.86821 0,-2.13525 1.73296,-3.86821 3.86822,-3.86821 2.13525,0 3.86821,1.73296 3.86821,3.86821 0,2.13525 -1.73296,3.86821 -3.86821,3.86821 z"
     id="path1528"
     inkscape:connector-curvature="0"
     sodipodi:nodetypes="cssssccccsssss"
     style="fill:#808080;fill-opacity:1;stroke:none;stroke-width:5;stroke-miterlimit:4;stroke-dasharray:none;paint-order:stroke fill markers" />
  <rect
     transform="scale(-1,1)"
     y="168.18303"
     x="-334.17871"
     height="40"
     width="199.99998"
     id="rect1535"
     style="opacity:1;fill:#ff6600;fill-opacity:0.6513761;stroke:none;stroke-width:1;stroke-linecap:round;stroke-linejoin:miter;stroke-miterlimit:4;stroke-dasharray:none;stroke-dashoffset:0;stroke-opacity:1;paint-order:normal" />
  <path
     style="opacity:1;fill:#808080;fill-opacity:1;stroke:none;stroke-width:1;stroke-linecap:round;stroke-linejoin:miter;stroke-miterlimit:4;stroke-dasharray:none;stroke-dashoffset:0;stroke-opacity:1;paint-order:normal"
     d="m 214.17969,169.74609 c -2.77001,0 -5.00196,2.23 -5.00196,5 v 28.4375 c 0,2.77 2.23195,5 5.00196,5 h 40 c 2.77,0 5,-2.23 5,-5 v -13.2832 c -1.35869,0.53511 -2.79297,0.91406 -4.33985,0.91406 -0.22282,0 -0.44009,-0.0216 -0.66015,-0.0332 v 0.83984 h -10 v -6.79492 c -1.18651,-1.91775 -1.88477,-4.16716 -1.88477,-6.57812 0,-3.27689 1.27846,-6.26001 3.34961,-8.50196 z m 3.97656,4.76563 h 1.04492 c 1.26277,0 1.99639,0.43254 2.20117,1.30273 0.007,0.034 0.0156,0.0765 0.0156,0.12696 0,0.13653 -0.0538,0.2513 -0.15625,0.32812 -0.0935,0.0765 -0.21873,0.11719 -0.38086,0.11719 -0.1535,0 -0.27601,-0.0406 -0.36133,-0.11719 -0.0765,-0.0765 -0.14684,-0.20035 -0.21484,-0.37109 -0.0595,-0.11093 -0.17501,-0.18785 -0.34571,-0.23047 -0.17075,-0.051 -0.42501,-0.082 -0.75781,-0.082 h -1.04492 c -0.37543,-0.009 -0.6682,0.0264 -0.87305,0.11133 -0.20475,0.0851 -0.35012,0.23069 -0.43554,0.43554 -0.085,0.20475 -0.12696,0.49765 -0.12696,0.87305 v 1.48437 c 0,0.3754 0.0415,0.67024 0.12696,0.875 0.085,0.20475 0.23072,0.34818 0.43554,0.4336 0.20475,0.085 0.49755,0.12304 0.87305,0.12305 h 1.04492 c 0.3328,0 0.58716,-0.021 0.75781,-0.0645 0.17075,-0.051 0.28591,-0.12736 0.34571,-0.23828 0.068,-0.17915 0.13809,-0.30287 0.21484,-0.37109 0.085,-0.0765 0.20899,-0.11717 0.37109,-0.11719 0.15376,0 0.27727,0.0406 0.3711,0.11719 0.1025,0.0765 0.15625,0.17986 0.15625,0.3164 0,0.051 -0.008,0.0991 -0.0156,0.13282 -0.20475,0.87034 -0.93832,1.29882 -2.20117,1.29882 h -1.04492 c -0.85325,0 -1.48884,-0.2019 -1.89844,-0.61132 -0.40952,-0.40961 -0.61135,-1.04128 -0.61133,-1.89454 v -1.48437 c 0,-0.85324 0.20173,-1.48495 0.61133,-1.89453 0.4096,-0.40961 1.04519,-0.60812 1.89844,-0.59961 z m 6.93359,0 h 1.99805 c 1.00682,0 1.59622,0.41884 1.77539,1.26367 0.007,0.0255 0.0117,0.0662 0.0117,0.11719 0,0.13652 -0.0503,0.24662 -0.15234,0.33203 -0.0935,0.0765 -0.22255,0.11719 -0.38477,0.11719 -0.16225,0 -0.28577,-0.0406 -0.37109,-0.11719 -0.0765,-0.085 -0.14016,-0.21023 -0.19141,-0.38086 -0.051,-0.10243 -0.12602,-0.17098 -0.22851,-0.20508 -0.1025,-0.034 -0.25404,-0.0527 -0.45899,-0.0527 h -1.99805 c -0.22175,0 -0.39102,0.019 -0.50195,0.0625 -0.111,0.034 -0.18772,0.10977 -0.23047,0.2207 -0.034,0.11092 -0.0488,0.28136 -0.0488,0.51172 0,0.30719 0.0498,0.51407 0.15235,0.625 0.1025,0.10243 0.31322,0.15625 0.6289,0.15625 h 2.05664 c 1.27985,0 1.91797,0.64 1.91797,1.91992 0,1.27985 -0.63807,1.91406 -1.91797,1.91406 h -2.0957 c -1.08362,0 -1.71538,-0.44192 -1.89453,-1.33789 -0.008,-0.0255 -0.01,-0.0662 -0.01,-0.11718 0,-0.14505 0.0425,-0.25521 0.13672,-0.33204 0.1025,-0.085 0.23422,-0.12695 0.39649,-0.12695 0.16225,0 0.28579,0.0425 0.37109,0.12695 0.085,0.0765 0.15213,0.20678 0.20313,0.39454 0.051,0.12795 0.13509,0.21119 0.24609,0.2539 0.1195,0.0425 0.3033,0.0684 0.55078,0.0684 h 2.0957 c 0.3328,0 0.55702,-0.0557 0.66797,-0.16601 0.1195,-0.11092 0.17578,-0.33645 0.17578,-0.67774 0,-0.3413 -0.0557,-0.56876 -0.17578,-0.67969 -0.111,-0.11093 -0.33509,-0.16601 -0.66797,-0.16601 h -2.05664 c -1.23715,0 -1.85937,-0.61834 -1.85937,-1.85547 0,-0.63137 0.15579,-1.09911 0.46289,-1.40625 0.3067,-0.30661 0.77518,-0.46242 1.39648,-0.46289 z m 5.83985,0 c 0.19625,0 0.3469,0.11535 0.44922,0.3457 l 1.79101,4.375 1.97266,-4.4043 c 0.111,-0.21326 0.26469,-0.3164 0.46094,-0.3164 0.068,0 0.14955,0.02 0.25195,0.0625 0.21325,0.10243 0.32422,0.24781 0.32422,0.43555 0,0.0765 -0.021,0.17228 -0.0645,0.2832 l -2.35351,5.30664 c -0.111,0.26448 -0.31667,0.39648 -0.61524,0.39648 -0.26448,0 -0.45675,-0.13452 -0.57617,-0.41601 l -2.17773,-5.30274 c -0.0425,-0.11093 -0.0645,-0.19926 -0.0645,-0.26757 0,-0.20475 0.11724,-0.35023 0.34766,-0.43555 0.1025,-0.0425 0.18548,-0.0586 0.25391,-0.0586 z m -16.75,8.98437 h 10 v 8.125 h -10 z m 15,0 h 10 v 8.125 h -10 z m -15,11.5625 h 10 v 8.125 h -10 z m 15,0 h 10 v 8.125 h -10 z m 15,0 h 10 v 8.125 h -10 z"
     id="path1537"
     inkscape:connector-curvature="0"
     sodipodi:nodetypes="sssssscsccccscscscscscccscccsscccscccccscssccscccscscscccssccscssssscscscccsscscsssccccccscsccsccscccccccccccccccccccccccccccc" />
  <path
     style="fill:#808080;fill-opacity:1;stroke:none;stroke-width:5;stroke-miterlimit:4;stroke-dasharray:none;paint-order:stroke fill markers"
     sodipodi:nodetypes="cssssccccsssss"
     inkscape:connector-curvature="0"
     id="path1541"
     d="m 263.36185,183.59503 c 0.98422,-1.56581 1.5658,-3.37767 1.5658,-5.34611 0,-5.56979 -4.49609,-10.06589 -10.06588,-10.06589 -5.5698,0 -10.0659,4.4961 -10.0659,10.06589 0,5.56979 4.4961,10.0659 10.04353,10.0659 1.96844,0 3.80267,-0.58159 5.34611,-1.5658 l 6.97902,6.97901 3.17634,-3.17635 z m -8.50008,0.24605 c -3.08689,0 -5.59217,-2.50529 -5.59217,-5.59216 0,-3.08687 2.50528,-5.59216 5.59217,-5.59216 3.08687,0 5.59215,2.50529 5.59215,5.59216 0,3.08687 -2.50528,5.59216 -5.59215,5.59216 z" />
</svg>
