<?xml version="1.0" encoding="UTF-8" standalone="no"?>
<!-- Created with Inkscape (http://www.inkscape.org/) -->

<svg
   xmlns:dc="http://purl.org/dc/elements/1.1/"
   xmlns:cc="http://creativecommons.org/ns#"
   xmlns:rdf="http://www.w3.org/1999/02/22-rdf-syntax-ns#"
   xmlns:svg="http://www.w3.org/2000/svg"
   xmlns="http://www.w3.org/2000/svg"
   xmlns:xlink="http://www.w3.org/1999/xlink"
   xmlns:sodipodi="http://sodipodi.sourceforge.net/DTD/sodipodi-0.dtd"
   xmlns:inkscape="http://www.inkscape.org/namespaces/inkscape"
   version="1.1"
   id="svg2"
   width="164"
   height="314"
   viewBox="0 0 164 314"
   sodipodi:docname="installerSidebar.svg"
   inkscape:version="0.92.4 (5da689c313, 2019-01-14)"
   inkscape:export-filename="C:\Users\Ouroboros\Desktop\Bullseye_Separation\bullseye_capturing\build\installerSidebar.png"
   inkscape:export-xdpi="96"
   inkscape:export-ydpi="96">
  <metadata
     id="metadata8">
    <rdf:RDF>
      <cc:Work
         rdf:about="">
        <dc:format>image/svg+xml</dc:format>
        <dc:type
           rdf:resource="http://purl.org/dc/dcmitype/StillImage" />
        <dc:title></dc:title>
      </cc:Work>
    </rdf:RDF>
  </metadata>
  <defs
     id="defs6">
    <linearGradient
       inkscape:collect="always"
       id="linearGradient1909">
      <stop
         style="stop-color:#000000;stop-opacity:1"
         offset="0"
         id="stop1905" />
      <stop
         style="stop-color:#4d4d4d;stop-opacity:1"
         offset="1"
         id="stop1907" />
    </linearGradient>
    <filter
       color-interpolation-filters="sRGB"
       height="1.126"
       width="1.0296"
       y="-.063"
       x="-.014824"
       id="filter1210">
      <feGaussianBlur
         id="feGaussianBlur1777"
         stdDeviation="1.3125" />
    </filter>
    <linearGradient
       inkscape:collect="always"
       xlink:href="#linearGradient1909"
       id="linearGradient1911"
       x1="-91.229729"
       y1="314"
       x2="-91.229729"
       y2="0"
       gradientUnits="userSpaceOnUse" />
    <filter
       inkscape:collect="always"
       style="color-interpolation-filters:sRGB"
       id="filter2355"
       x="-0.021428589"
       width="1.0428572"
       y="-0.027272699"
       height="1.0545454">
      <feGaussianBlur
         inkscape:collect="always"
         stdDeviation="1.250001"
         id="feGaussianBlur2357" />
    </filter>
  </defs>
  <sodipodi:namedview
     pagecolor="#ffffff"
     bordercolor="#666666"
     borderopacity="1"
     objecttolerance="10"
     gridtolerance="10"
     guidetolerance="10"
     inkscape:pageopacity="0"
     inkscape:pageshadow="2"
     inkscape:window-width="2560"
     inkscape:window-height="1057"
     id="namedview4"
     showgrid="false"
     inkscape:snap-page="true"
     inkscape:zoom="1.455904"
     inkscape:cx="434.04181"
     inkscape:cy="157"
     inkscape:window-x="1912"
     inkscape:window-y="-8"
     inkscape:window-maximized="1"
     inkscape:current-layer="svg2" />
  <rect
     style="opacity:1;fill:url(#linearGradient1911);fill-opacity:1;stroke:none;stroke-width:9.32167625;stroke-linecap:square;stroke-linejoin:miter;stroke-miterlimit:4;stroke-dasharray:none;stroke-dashoffset:0;stroke-opacity:0.2745098;paint-order:markers stroke fill"
     id="rect1903"
     width="164"
     height="314"
     x="-164"
     y="0"
     transform="scale(-1,1)" />
  <path
     style="fill:#000000;stroke-width:0.50000006;paint-order:stroke fill markers;filter:url(#filter2355)"
     d="m 51.500004,39.498046 v 50 H 101.5 v -50 z m 7.5,7.5 h 35.00195 v 35.001953 h -35.00195 z m 9.99414,10.001953 v 15 h 15 v -15 z M 6.5000037,110.9961 v 23.35547 H 20.853524 c 1.01798,0 1.88311,-0.35278 2.5957,-1.06055 0.73295,-0.72797 1.09961,-1.59828 1.09961,-2.60938 v -10.25195 c 0,-1.01109 -0.36666,-1.87036 -1.09961,-2.57812 -0.71259,-0.72798 -1.57772,-1.0918 -2.5957,-1.0918 H 9.0039137 v -5.76367 z m 41.5742203,0.002 v 19.6875 c 0,1.01109 0.35576,1.87945 1.06836,2.60742 0.73295,0.70778 1.60896,1.0625 2.62695,1.0625 h 2.99219 v -2.48828 h -2.99219 c -0.32576,0 -0.61114,-0.11156 -0.85547,-0.33398 -0.22394,-0.24267 -0.33594,-0.52412 -0.33594,-0.84766 v -19.6875 z m 9.24609,0 v 19.6875 c 0,1.01109 0.35576,1.87945 1.06836,2.60742 0.73296,0.70778 1.60897,1.0625 2.62695,1.0625 h 2.99219 v -2.48828 h -2.99219 c -0.32573,0 -0.61114,-0.11156 -0.85546,-0.33398 -0.22397,-0.24267 -0.33594,-0.52412 -0.33594,-0.84766 v -19.6875 z m 33.36719,5.75977 c -1.01799,0 -1.89205,0.36381 -2.625,1.09179 -0.71259,0.70777 -1.07031,1.56899 -1.07031,2.58008 v 10.25195 c 0,1.0111 0.35772,1.87945 1.07031,2.60743 0.73295,0.70776 1.60701,1.0625 2.625,1.0625 h 14.353516 v -2.48633 H 90.687504 c -0.32576,0 -0.60919,-0.11156 -0.85352,-0.33399 -0.22394,-0.24267 -0.33593,-0.52607 -0.33593,-0.84961 v -3.88281 h 15.542966 v -6.36914 c 0,-1.01109 -0.36666,-1.87036 -1.09961,-2.57812 -0.7126,-0.72798 -1.58665,-1.0918 -2.625,-1.0918 z m 41.458976,0 c -1.01799,0 -1.894,0.36381 -2.62695,1.09179 -0.71259,0.70777 -1.06836,1.56899 -1.06836,2.58008 v 10.25195 c 0,1.0111 0.35577,1.87945 1.06836,2.60743 0.73295,0.70776 1.60896,1.0625 2.62695,1.0625 H 146.5 v -2.48633 h -14.35352 c -0.32576,0 -0.61114,-0.11156 -0.85546,-0.33399 -0.22395,-0.24267 -0.33594,-0.52607 -0.33594,-0.84961 v -3.88286 H 146.5 v -6.36914 c 0,-1.01109 -0.36666,-1.87036 -1.09961,-2.57812 -0.71259,-0.72798 -1.5886,-1.0918 -2.62695,-1.0918 z m -105.275386,0.002 v 13.92187 c 0,1.0111 0.35772,1.88141 1.07032,2.60938 0.73295,0.70777 1.607,1.06055 2.625,1.06055 h 10.6289 c 1.03836,0 1.91436,-0.35278 2.62696,-1.06055 0.73295,-0.72797 1.09765,-1.59828 1.09765,-2.60938 v -13.92187 h -2.5039 v 13.92187 c 0,0.32354 -0.12091,0.60695 -0.36524,0.84961 -0.2443,0.22244 -0.52971,0.33399 -0.85547,0.33399 h -10.6289 c -0.32576,0 -0.60919,-0.11155 -0.85352,-0.33399 -0.22394,-0.24266 -0.33594,-0.52607 -0.33594,-0.84961 v -13.92187 z m 43.26758,0 c -1.01798,0 -1.894,0.36382 -2.62695,1.0918 -0.7126,0.70776 -1.06836,1.56898 -1.06836,2.58007 v 2.69922 c 0,1.0111 0.35576,1.87945 1.06836,2.60742 0.73295,0.70778 1.60897,1.0625 2.62695,1.0625 h 10.62891 c 0.32576,0 0.60028,0.12062 0.82422,0.36329 0.24432,0.22244 0.36523,0.49676 0.36523,0.82031 v 2.69922 c 0,0.32354 -0.12091,0.60694 -0.36523,0.84961 -0.22394,0.22242 -0.49846,0.33203 -0.82422,0.33203 h -10.62891 c -0.32573,0 -0.61115,-0.10961 -0.85547,-0.33203 -0.22394,-0.24267 -0.33593,-0.52607 -0.33593,-0.84961 v -0.24219 h -2.50391 v 0.24219 c 0,1.01109 0.35577,1.87944 1.06836,2.60742 0.73295,0.70777 1.60895,1.0625 2.62695,1.0625 h 10.62891 c 1.03834,0 1.9124,-0.35473 2.625,-1.0625 0.73295,-0.72798 1.09961,-1.59633 1.09961,-2.60742 v -2.69922 c 0,-1.0111 -0.36666,-1.87231 -1.09961,-2.58008 -0.7126,-0.72798 -1.58666,-1.0918 -2.625,-1.0918 h -10.62891 c -0.32574,0 -0.61115,-0.10959 -0.85547,-0.33203 -0.22394,-0.24266 -0.33593,-0.52607 -0.33593,-0.84961 v -2.69922 c 0,-0.32356 0.11199,-0.59788 0.33593,-0.82031 0.2443,-0.24267 0.52971,-0.36328 0.85547,-0.36328 h 10.62891 c 0.32575,0 0.60028,0.12061 0.82422,0.36328 0.24432,0.22246 0.36523,0.49678 0.36523,0.82031 v 0.24219 h 2.53516 v -0.24219 c 0,-1.01109 -0.36666,-1.87231 -1.09961,-2.58007 -0.7126,-0.72798 -1.58665,-1.0918 -2.625,-1.0918 z m 37.695306,0.0625 v 13.86133 c 0,1.01109 0.35577,1.88139 1.06836,2.60937 0.73296,0.70777 1.60896,1.0625 2.62696,1.0625 h 11.81836 v 3.27539 c 0,0.32357 -0.12287,0.59593 -0.36719,0.81836 -0.22395,0.24267 -0.49847,0.36524 -0.82422,0.36524 h -11.05469 v 2.51757 h 11.05469 c 1.03835,0 1.91436,-0.36577 2.62695,-1.09375 0.7126,-0.70776 1.06836,-1.57611 1.06836,-2.60742 v -20.80859 h -2.5039 v 13.86133 c 0,0.32354 -0.12286,0.60694 -0.36719,0.84961 -0.22394,0.22243 -0.49847,0.33398 -0.82422,0.33398 H 111.5293 c -0.32576,0 -0.61115,-0.11155 -0.85547,-0.33398 -0.22394,-0.24267 -0.33594,-0.52607 -0.33594,-0.84961 v -13.86133 z m -97.607416,2.42383 h 10.62696 c 0.32575,0 0.60027,0.12061 0.82421,0.36328 0.24433,0.22246 0.36719,0.49678 0.36719,0.82031 v 10.25195 c 0,0.32354 -0.12286,0.60695 -0.36719,0.84961 -0.22394,0.22244 -0.49846,0.33399 -0.82421,0.33399 h -10.62696 c -0.3257603,0 -0.6111403,-0.11155 -0.8554703,-0.33399 -0.24432,-0.24266 -0.36718,-0.52607 -0.36718,-0.84961 v -10.25195 c 0,-0.32356 0.12286,-0.59788 0.36718,-0.82031 0.24433,-0.24267 0.52971,-0.36328 0.8554703,-0.36328 z m 80.46094,0 h 10.628906 c 0.32578,0 0.60027,0.12061 0.82421,0.36328 0.24433,0.22245 0.36524,0.49677 0.36524,0.82031 v 3.88281 H 89.496094 v -3.88281 c 0,-0.32356 0.112,-0.59788 0.33594,-0.82031 0.24433,-0.24267 0.52971,-0.36328 0.85547,-0.36328 z m 41.458976,0 h 10.62696 c 0.32576,0 0.60028,0.12061 0.82422,0.36328 0.24432,0.22245 0.36718,0.49677 0.36718,0.82031 v 3.88281 h -13.00976 v -3.88281 c 0,-0.32356 0.112,-0.59788 0.33594,-0.82031 0.24432,-0.24267 0.5297,-0.36328 0.85546,-0.36328 z m -50.992176,23.98828 c -0.89916,0.0163 -1.59118,0.33029 -2.07618,0.94336 -0.49588,0.60487 -0.74414,1.34607 -0.74414,2.2207 0,0.87736 0.24353,1.60517 0.72852,2.18555 0.23977,0.27792 0.53521,0.49745 0.88672,0.6582 0.34604,0.16348 0.74496,0.24845 1.19726,0.25391 0.53405,-0.005 1.00774,-0.13398 1.42188,-0.38477 0.40597,-0.24523 0.68529,-0.5879 0.83789,-1.0293 h 0.0156 v 1.27149 h 0.32031 v -2.93164 h -2.52344 v 0.32031 h 2.20313 c 0.0217,0.73569 -0.16796,1.32423 -0.56836,1.76563 -0.40327,0.4414 -0.96665,0.66446 -1.69141,0.66992 -0.82014,-0.011 -1.43505,-0.28559 -1.84375,-0.82227 -0.41144,-0.52315 -0.61719,-1.17505 -0.61719,-1.95703 0,-0.76838 0.21361,-1.42931 0.63867,-1.98242 0.41144,-0.56401 1.0185,-0.85238 1.82227,-0.86328 1.11713,0.0217 1.82528,0.57912 2.125,1.67187 h 0.35156 c -0.11172,-0.63486 -0.39576,-1.12466 -0.85351,-1.4707 -0.45776,-0.34059 -1.00146,-0.51408 -1.63086,-0.51953 z m -54.35938,0.002 c -0.49045,0 -0.94207,0.11961 -1.35351,0.35938 -0.42506,0.24522 -0.6434,0.65555 -0.6543,1.23046 0,0.28066 0.061,0.51277 0.18359,0.69532 0.11171,0.17983 0.26671,0.32816 0.46289,0.44531 0.19347,0.10625 0.40867,0.19239 0.64844,0.25781 0.11715,0.0327 0.24107,0.0638 0.36914,0.0937 0.11716,0.0327 0.23912,0.065 0.36719,0.0977 0.2643,0.0463 0.51845,0.0959 0.76367,0.15039 0.23433,0.0572 0.45031,0.13626 0.64649,0.23437 0.19346,0.10082 0.34964,0.22868 0.46679,0.38672 0.11171,0.16077 0.16602,0.37086 0.16602,0.62696 0,0.25613 -0.052,0.47015 -0.15821,0.64453 -0.11171,0.17166 -0.25649,0.31171 -0.43359,0.41797 -0.17438,0.10625 -0.35731,0.18219 -0.55078,0.22851 -0.20163,0.049 -0.39911,0.0723 -0.58984,0.0723 -0.60217,0.005 -1.11598,-0.13276 -1.54102,-0.41602 -0.41687,-0.28066 -0.62027,-0.74056 -0.60937,-1.38086 h -0.36719 c 0.011,0.75748 0.25687,1.30118 0.73633,1.63086 0.47409,0.32425 1.06736,0.48633 1.78125,0.48633 0.49045,0 0.95703,-0.12864 1.39843,-0.38477 0.4523,-0.2534 0.68677,-0.68576 0.70313,-1.29882 0,-0.29972 -0.0563,-0.54798 -0.16797,-0.74414 -0.11715,-0.19074 -0.27334,-0.34574 -0.4668,-0.46289 -0.19617,-0.11716 -0.4102,-0.2104 -0.64453,-0.28126 -0.24523,-0.0681 -0.4982,-0.12437 -0.75976,-0.16796 -0.12806,-0.0354 -0.25314,-0.0665 -0.37305,-0.0937 -0.12805,-0.0217 -0.25001,-0.0492 -0.36719,-0.082 -0.23976,-0.0572 -0.45692,-0.13076 -0.65039,-0.22071 -0.19617,-0.0872 -0.34922,-0.20915 -0.46094,-0.36719 -0.12261,-0.14985 -0.18554,-0.33946 -0.18554,-0.56836 0,-0.25066 0.0562,-0.45642 0.16797,-0.61718 0.10624,-0.16894 0.23961,-0.30113 0.40039,-0.39649 0.35148,-0.1771 0.70986,-0.26325 1.07226,-0.25781 0.55858,0 1.01376,0.12629 1.36524,0.37695 0.34605,0.25614 0.52898,0.6413 0.55078,1.15625 h 0.36718 c -0.0381,-0.65392 -0.26591,-1.12878 -0.68554,-1.42578 -0.42234,-0.28336 -0.95462,-0.42578 -1.59766,-0.42578 z m 70.93555,0 c -0.9046,0.0109 -1.60134,0.31111 -2.0918,0.90234 -0.49589,0.58038 -0.74649,1.32392 -0.75195,2.22852 0.005,0.89369 0.25593,1.63056 0.75195,2.21094 0.24523,0.28336 0.54305,0.50525 0.89453,0.66601 0.35148,0.16348 0.7504,0.24844 1.19727,0.25391 0.67573,-0.0109 1.24341,-0.24972 1.70117,-0.71289 0.45776,-0.44686 0.724486,-1.0311 0.800776,-1.75586 h -0.367186 c -0.0436,0.56948 -0.26193,1.06403 -0.65429,1.48633 -0.38964,0.4305 -0.88376,0.65121 -1.48047,0.66211 -0.78744,-0.011 -1.39211,-0.29032 -1.81445,-0.83789 -0.4414,-0.53406 -0.66211,-1.19069 -0.66211,-1.97266 0,-0.79288 0.22071,-1.4538 0.66211,-1.98242 0.42234,-0.54221 1.02701,-0.81918 1.81445,-0.83008 0.51225,0.005 0.96034,0.14776 1.3418,0.42578 0.37328,0.28066 0.60539,0.67291 0.69531,1.17969 h 0.367186 c 0.005,-0.0327 -0.0211,-0.1456 -0.0781,-0.3418 -0.0545,-0.19618 -0.162726,-0.41451 -0.326166,-0.65429 -0.16075,-0.24524 -0.4019,-0.46004 -0.7207,-0.64258 -0.32152,-0.18528 -0.74798,-0.27971 -1.2793,-0.28516 z m -91.2285203,0.14063 v 5.97461 h 0.36914 v -5.97461 z m 1.42383,0 v 5.97461 h 0.36719 v -5.5254 h 0.0176 l 3.8007803,5.5254 h 0.43359 v -5.97461 h -0.36914 v 5.48047 h -0.0156 l -3.7734403,-5.48047 z m 26.5156303,0 v 5.97656 h 0.36914 v -2.72266 h 2.125 c 0.26975,0 0.49047,0.0264 0.66211,0.0781 0.17438,0.0545 0.31011,0.12929 0.4082,0.22461 0.10628,0.0899 0.18694,0.19812 0.24414,0.32617 0.049,0.12805 0.0809,0.26809 0.0918,0.41797 0.0245,0.29699 0.0316,0.59599 0.0234,0.89843 0,0.14441 0.0126,0.28015 0.0371,0.40821 0.0109,0.0654 0.0247,0.12833 0.041,0.18555 0.0163,0.0681 0.0348,0.1291 0.0566,0.18359 h 0.41211 c -0.10626,-0.16621 -0.1582,-0.39832 -0.1582,-0.69531 -0.005,-0.28882 -0.0203,-0.59333 -0.0449,-0.91211 -0.0109,-0.3188 -0.0994,-0.60049 -0.26562,-0.84571 -0.0845,-0.11715 -0.19697,-0.21394 -0.33594,-0.29296 -0.14984,-0.0654 -0.33516,-0.11459 -0.55859,-0.14454 v -0.0156 c 0.83647,-0.17711 1.26294,-0.68736 1.27929,-1.5293 -0.005,-0.56947 -0.18787,-0.97075 -0.54492,-1.20508 -0.35694,-0.22887 -0.80543,-0.34137 -1.34765,-0.33593 z m 5.27929,0 v 5.97461 h 0.36914 v -5.97461 z m 6.39258,0 v 5.97461 h 3.76172 v -0.31836 h -3.39258 v -5.65625 z m 6.50781,0 v 5.97461 h 0.36719 v -5.97461 z m 1.42188,0 v 5.97461 h 0.36719 v -5.5254 h 0.0176 l 3.80079,5.5254 h 0.43359 v -5.97461 h -0.36914 v 5.48047 h -0.0156 l -3.77343,-5.48047 z m 10.02148,0 v 5.97461 h 4.0586 v -0.31836 h -3.68946 v -2.62696 h 3.43164 v -0.32031 h -3.43164 v -2.39062 h 3.64844 v -0.31836 z m 4.69141,0 v 5.97461 h 3.75976 v -0.31836 h -3.39257 v -5.65625 z m 4.1875,0 v 5.97461 h 3.75976 v -0.31836 h -3.39257 v -5.65625 z m 4.18359,0 v 5.97461 h 0.36719 v -5.97461 z m 7.61914,0 v 5.97461 h 4.0586 v -0.31836 h -3.68946 v -2.62696 h 3.43165 v -0.32031 h -3.43165 v -2.39062 h 3.64844 v -0.31836 z m 4.69141,0 v 5.97461 h 0.36719 v -5.5254 h 0.0176 l 3.80078,5.5254 h 0.43359 v -5.97461 h -0.36914 v 5.48047 h -0.0156 l -3.77344,-5.48047 z m 11.572266,0 v 5.97461 h 4.05859 v -0.31836 h -3.68945 v -2.62696 h 3.43164 v -0.32031 h -3.43164 v -2.39062 h 3.64843 v -0.31836 z m -87.414066,0.002 v 5.97461 h 1.94141 c 0.95911,-0.005 1.66489,-0.2941 2.11719,-0.86914 0.4414,-0.55312 0.66211,-1.26127 0.66211,-2.125 0.011,-0.79288 -0.17863,-1.48253 -0.56836,-2.06836 -0.40871,-0.59127 -1.14085,-0.89577 -2.19532,-0.91211 z m 5.59375,0 v 3.58008 c -0.005,0.20163 0.0132,0.44515 0.0566,0.72851 0.0409,0.28609 0.13259,0.5654 0.27149,0.83789 0.14441,0.2752 0.36984,0.50494 0.67773,0.6875 0.30515,0.18528 0.71784,0.2797 1.23828,0.28516 0.8801,-0.0109 1.49383,-0.25918 1.83985,-0.74414 0.32968,-0.46866 0.49177,-1.06548 0.48633,-1.79297 v -3.58203 h -0.36915 v 3.58203 c 0.005,0.68663 -0.13276,1.22482 -0.41601,1.61719 -0.30245,0.39507 -0.81626,0.59609 -1.54102,0.60156 -0.42506,-0.005 -0.76299,-0.0891 -1.01367,-0.25 -0.25612,-0.15805 -0.44574,-0.35594 -0.56836,-0.5957 -0.11715,-0.23976 -0.19544,-0.48328 -0.23633,-0.72852 -0.0381,-0.25066 -0.0586,-0.4647 -0.0586,-0.64453 v -3.58203 z m 10.25782,0 v 0.31836 h 2.09961 v 5.65625 h 0.36914 v -5.65625 h 2.11132 v -0.31836 z m 13.4707,0 -2.4043,5.97656 h 0.39649 l 0.76172,-1.91797 h 2.85937 l 0.75781,1.91797 h 0.39063 l -2.36133,-5.97656 z m 16.15234,0 v 0.31836 h 2.09961 v 5.65625 h 0.36914 v -5.65625 h 2.11328 v -0.31836 z m -45.10742,0.31836 h 1.5332 c 0.23433,0 0.48966,0.0228 0.76758,0.0664 0.2752,0.049 0.5427,0.16389 0.79883,0.34376 0.25613,0.17167 0.46661,0.43722 0.63281,0.79687 0.16348,0.36237 0.24845,0.84746 0.25391,1.45508 -0.0163,1.01087 -0.27127,1.71234 -0.76172,2.10742 -0.48773,0.38963 -1.02591,0.57926 -1.61719,0.56836 h -1.60742 z m 20.84766,0 h 2.125 c 0.4196,0 0.77602,0.0909 1.07031,0.27344 0.29699,0.19617 0.44766,0.52033 0.45312,0.97265 -0.005,0.4741 -0.1458,0.81912 -0.42382,1.03711 -0.28609,0.22344 -0.65275,0.33594 -1.09961,0.33594 h -2.125 z m 8.30664,0.043 h 0.0176 l 1.2832,3.3789 h -2.62891 z"
     id="path2124"
     inkscape:connector-curvature="0" />
  <g
     id="g1901"
     transform="matrix(3.7795552,0,0,3.7795552,-367.03808,52.994197)">
    <path
       id="path1782"
       style="fill:none;stroke-width:0.89102;paint-order:markers stroke fill"
       d="M 22.956,27.517 H 82.878 V 46.038 H 22.956 Z"
       inkscape:connector-curvature="0" />
    <path
       id="path1784"
       style="paint-order:stroke fill markers;filter:url(#filter1210)"
       d="m 52.465,371.33 v 50 h 50 v -50 z m 7.5,7.5 h 35 v 35 h -35 z m 55,1.25 v 25.025 h 15.379 c 1.0907,0 2.0177,-0.37839 2.7812,-1.1367 0.78532,-0.78 1.1777,-1.7116 1.1777,-2.7949 v -10.986 c 0,-1.0833 -0.39241,-2.0034 -1.1777,-2.7617 -0.76351,-0.78 -1.6905,-1.1699 -2.7812,-1.1699 H 117.649 V 380.08 Z m 44.543,0 v 21.094 c 0,1.0833 0.38298,2.0149 1.1465,2.7949 0.78532,0.75833 1.7237,1.1367 2.8144,1.1367 h 3.2051 v -2.6641 h -3.2051 c -0.34903,0 -0.65424,-0.11909 -0.91602,-0.35742 -0.23996,-0.26 -0.36132,-0.56349 -0.36132,-0.91015 v -21.094 z m 9.9062,0 v 21.094 c 0,1.0833 0.38298,2.0149 1.1465,2.7949 0.78532,0.75833 1.7237,1.1367 2.8144,1.1367 h 3.2051 v -2.6641 h -3.2051 c -0.34903,0 -0.65619,-0.11909 -0.91797,-0.35742 -0.23996,-0.26 -0.35937,-0.56349 -0.35937,-0.91015 v -21.094 z m -32.625,6.1758 v 14.918 c 0,1.0833 0.38298,2.0149 1.1465,2.7949 0.78532,0.75833 1.7218,1.1367 2.8125,1.1367 h 11.389 c 1.1125,0 2.049,-0.37839 2.8125,-1.1367 0.78532,-0.78 1.1797,-1.7116 1.1797,-2.7949 v -14.918 h -2.6836 v 14.918 c 0,0.34666 -0.1308,0.65015 -0.39258,0.91015 -0.26177,0.23833 -0.56698,0.35742 -0.91601,0.35742 h -11.389 c -0.34904,0 -0.65424,-0.11909 -0.91602,-0.35742 -0.23996,-0.26 -0.35937,-0.56349 -0.35937,-0.91015 v -14.918 z m 46.359,0 c -1.0907,0 -2.0272,0.38992 -2.8125,1.1699 -0.76351,0.75833 -1.1465,1.6784 -1.1465,2.7617 v 2.8926 c 0,1.0833 0.38298,2.0149 1.1465,2.7949 0.78532,0.75833 1.7218,1.1387 2.8125,1.1387 h 11.389 c 0.34903,0 0.64285,0.12867 0.88281,0.38867 0.26178,0.23833 0.39258,0.53224 0.39258,0.87891 v 2.8926 c 0,0.34666 -0.1308,0.65015 -0.39258,0.91015 -0.23996,0.23833 -0.53378,0.35742 -0.88281,0.35742 h -11.389 c -0.34904,0 -0.65424,-0.11909 -0.91602,-0.35742 -0.23996,-0.26 -0.35937,-0.56349 -0.35937,-0.91015 v -0.25977 h -2.6836 v 0.25977 c 0,1.0833 0.38298,2.0149 1.1465,2.7949 0.78532,0.75833 1.7218,1.1367 2.8125,1.1367 h 11.389 c 1.1125,0 2.049,-0.37839 2.8125,-1.1367 0.78532,-0.78 1.1797,-1.7116 1.1797,-2.7949 v -2.8926 c 0,-1.0833 -0.39437,-2.0053 -1.1797,-2.7637 -0.76351,-0.78 -1.7,-1.1699 -2.8125,-1.1699 h -11.389 c -0.34904,0 -0.65424,-0.11909 -0.91602,-0.35742 -0.23996,-0.26 -0.35937,-0.56349 -0.35937,-0.91016 v -2.8926 c 0,-0.34667 0.11941,-0.63862 0.35937,-0.87696 0.26178,-0.26 0.56698,-0.39062 0.91602,-0.39062 h 11.389 c 0.34903,0 0.64285,0.13062 0.88281,0.39062 0.26178,0.23834 0.39258,0.53029 0.39258,0.87696 v 0.25976 h 2.7168 v -0.25976 c 0,-1.0833 -0.39437,-2.0034 -1.1797,-2.7617 -0.76351,-0.78 -1.7,-1.1699 -2.8125,-1.1699 z m 22.02,0 c -1.0907,0 -2.0291,0.38992 -2.8144,1.1699 -0.76351,0.75833 -1.1445,1.6784 -1.1445,2.7617 v 10.986 c 0,1.0833 0.38103,2.0149 1.1445,2.7949 0.78532,0.75833 1.7237,1.1367 2.8144,1.1367 h 15.379 v -2.6641 h -15.379 c -0.34903,0 -0.65424,-0.11909 -0.91602,-0.35742 -0.23996,-0.26 -0.35937,-0.56349 -0.35937,-0.91015 v -4.1602 h 16.654 v -6.8262 c 0,-1.0833 -0.39242,-2.0034 -1.1777,-2.7617 -0.76351,-0.78 -1.7019,-1.1699 -2.8144,-1.1699 z m 44.418,0 c -1.0907,0 -2.0291,0.38992 -2.8145,1.1699 -0.76351,0.75833 -1.1445,1.6784 -1.1445,2.7617 v 10.986 c 0,1.0833 0.38102,2.0149 1.1445,2.7949 0.78533,0.75833 1.7237,1.1367 2.8145,1.1367 h 15.379 v -2.6641 h -15.379 c -0.34904,0 -0.65424,-0.11909 -0.91602,-0.35742 -0.23996,-0.26 -0.35937,-0.56349 -0.35937,-0.91015 v -4.1602 h 16.654 v -6.8262 c 0,-1.0833 -0.39241,-2.0034 -1.1777,-2.7617 -0.76351,-0.78 -1.7019,-1.1699 -2.8144,-1.1699 z m -26.047,0.0644 v 14.854 c 0,1.0833 0.38102,2.0149 1.1445,2.7949 0.78533,0.75833 1.7237,1.1367 2.8145,1.1367 h 12.664 v 3.5098 c 0,0.34667 -0.1308,0.63862 -0.39258,0.87695 -0.23996,0.26 -0.53573,0.39063 -0.88476,0.39063 h -11.846 v 2.6973 h 11.846 c 1.1125,0 2.0509,-0.38992 2.8144,-1.1699 0.76351,-0.75833 1.1445,-1.6899 1.1445,-2.7949 v -22.295 h -2.6816 v 14.854 c 0,0.34666 -0.1308,0.65015 -0.39258,0.91015 -0.23996,0.23833 -0.53573,0.35742 -0.88476,0.35742 h -11.387 c -0.34904,0 -0.65424,-0.11909 -0.91602,-0.35742 -0.23996,-0.26 -0.35937,-0.56349 -0.35937,-0.91015 v -14.854 z m -153.57,2.5098 v 15 h 15 v -15 z m 48.992,0.0899 h 11.387 c 0.34903,0 0.64481,0.13062 0.88477,0.39062 0.26177,0.23834 0.39257,0.53029 0.39257,0.87696 v 10.986 c 0,0.34666 -0.1308,0.65015 -0.39257,0.91015 -0.23996,0.23833 -0.53574,0.35742 -0.88477,0.35742 h -11.387 c -0.34903,0 -0.65424,-0.11909 -0.91601,-0.35742 -0.26178,-0.26 -0.39258,-0.56349 -0.39258,-0.91015 v -10.986 c 0,-0.34667 0.1308,-0.63862 0.39258,-0.87696 0.26177,-0.26 0.56698,-0.39062 0.91601,-0.39062 z m 86.211,0 h 11.387 c 0.34903,0 0.6448,0.13062 0.88476,0.39062 0.26178,0.23834 0.39258,0.53029 0.39258,0.87696 v 4.1602 h -13.939 v -4.1602 c 0,-0.34667 0.11941,-0.63862 0.35937,-0.87696 0.26178,-0.26 0.56699,-0.39062 0.91602,-0.39062 z m 44.418,0 h 11.387 c 0.34903,0 0.6448,0.13062 0.88476,0.39062 0.26178,0.23834 0.39258,0.53029 0.39258,0.87696 v 4.1602 h -13.939 v -4.1602 c 0,-0.34667 0.11941,-0.63862 0.35937,-0.87696 0.26178,-0.26 0.56698,-0.39062 0.91602,-0.39062 z m -112.88,25.701 c -0.5255,0 -1.0084,0.12981 -1.4492,0.38672 -0.45543,0.26275 -0.68949,0.70235 -0.70117,1.3184 0,0.3007 0.0659,0.54854 0.19727,0.74414 0.11969,0.19268 0.28589,0.35103 0.49609,0.47656 0.20728,0.11386 0.4384,0.20533 0.69531,0.27539 0.12554,0.035 0.25732,0.0695 0.39453,0.10157 0.12554,0.035 0.25732,0.0704 0.39454,0.10546 0.28318,0.0496 0.5556,0.10372 0.81835,0.16211 0.25108,0.0613 0.48121,0.14295 0.69141,0.24805 0.20728,0.10802 0.37446,0.24669 0.5,0.41602 0.1197,0.17224 0.17969,0.39744 0.17969,0.67187 0,0.27443 -0.058,0.50456 -0.17188,0.69141 -0.11969,0.18392 -0.27312,0.33145 -0.46289,0.44531 -0.18684,0.11386 -0.38451,0.19646 -0.59179,0.24609 -0.21604,0.0525 -0.4265,0.0781 -0.63086,0.0781 -0.6452,0.006 -1.195,-0.14169 -1.6504,-0.44531 -0.44668,-0.30071 -0.66403,-0.7944 -0.65235,-1.4805 h -0.39453 c 0.0117,0.8116 0.27524,1.3928 0.78906,1.7461 0.50799,0.34742 1.1433,0.52149 1.9082,0.52148 0.5255,0 1.0251,-0.13572 1.498,-0.41015 0.48463,-0.27151 0.73639,-0.7357 0.75391,-1.3926 0,-0.32114 -0.06,-0.58863 -0.17969,-0.79883 -0.12553,-0.20436 -0.29272,-0.3686 -0.5,-0.49414 -0.2102,-0.12553 -0.44033,-0.22683 -0.6914,-0.30273 -0.26276,-0.073 -0.53419,-0.13298 -0.81446,-0.17969 -0.13721,-0.038 -0.26998,-0.0704 -0.39843,-0.0996 -0.13722,-0.0233 -0.269,-0.0529 -0.39454,-0.0879 -0.25691,-0.0613 -0.48998,-0.13999 -0.69726,-0.23633 -0.2102,-0.0934 -0.37444,-0.2252 -0.49414,-0.39453 -0.13138,-0.16057 -0.19727,-0.36219 -0.19727,-0.60742 0,-0.26859 0.06,-0.48986 0.17969,-0.66211 0.11386,-0.18101 0.25744,-0.3236 0.42969,-0.42578 0.37661,-0.18977 0.75819,-0.28123 1.1465,-0.27539 0.59849,0 1.0863,0.13375 1.4629,0.40234 0.37077,0.27443 0.56844,0.68846 0.5918,1.2402 h 0.39453 c -0.0409,-0.70067 -0.28673,-1.2091 -0.73633,-1.5274 -0.45251,-0.30362 -1.0239,-0.45703 -1.7129,-0.45703 z m 58.244,0 c -0.96342,0.0175 -1.7049,0.35484 -2.2246,1.0117 -0.53134,0.64812 -0.79687,1.4418 -0.79687,2.3789 0,0.94006 0.25963,1.72 0.77929,2.3418 0.25692,0.29779 0.57261,0.53283 0.94922,0.70508 0.37077,0.17517 0.79858,0.26565 1.2832,0.27148 0.57221,-0.006 1.0816,-0.14156 1.5254,-0.41015 0.435,-0.26275 0.73299,-0.63057 0.89648,-1.1035 h 0.0176 v 1.3613 h 0.3418 v -3.1406 h -2.7012 v 0.34179 h 2.3594 c 0.0233,0.78826 -0.18022,1.4196 -0.60938,1.8926 -0.43207,0.47295 -1.0359,0.71096 -1.8125,0.7168 -0.87875,-0.0117 -1.5367,-0.30378 -1.9746,-0.87891 -0.44084,-0.56053 -0.66211,-1.2598 -0.66211,-2.0976 0,-0.82329 0.22815,-1.5324 0.68359,-2.125 0.44084,-0.60433 1.0919,-0.91215 1.9531,-0.92383 1.197,0.0233 1.9562,0.62031 2.2774,1.791 h 0.37695 c -0.1197,-0.68023 -0.42555,-1.2054 -0.91601,-1.5762 -0.49047,-0.36493 -1.0717,-0.5508 -1.7461,-0.55664 z m 17.762,0 c -0.96926,0.0117 -1.7167,0.33523 -2.2422,0.96875 -0.53134,0.62184 -0.8008,1.4175 -0.80664,2.3867 0.006,0.95758 0.2753,1.7473 0.80664,2.3691 0.26275,0.30362 0.58238,0.54064 0.95899,0.71289 0.37661,0.17517 0.80441,0.26565 1.2832,0.27148 0.72402,-0.0117 1.3318,-0.26541 1.8223,-0.76171 0.49046,-0.47879 0.77567,-1.1062 0.85742,-1.8828 h -0.39453 c -0.0467,0.61017 -0.27882,1.1412 -0.69922,1.5938 -0.41748,0.46128 -0.94658,0.69731 -1.5859,0.70899 -0.84372,-0.0117 -1.4928,-0.30968 -1.9453,-0.89649 -0.47295,-0.57221 -0.70899,-1.2774 -0.70899,-2.1152 0,-0.84956 0.23604,-1.5586 0.70899,-2.125 0.45251,-0.58097 1.1016,-0.87699 1.9453,-0.88867 0.54886,0.006 1.0268,0.15729 1.4356,0.45508 0.39996,0.3007 0.6478,0.7226 0.74414,1.2656 h 0.39453 c 0.006,-0.035 -0.0207,-0.15699 -0.082,-0.36719 -0.0584,-0.2102 -0.1764,-0.44426 -0.35156,-0.70117 -0.17225,-0.26275 -0.42796,-0.4919 -0.76954,-0.6875 -0.34449,-0.19852 -0.8018,-0.3008 -1.3711,-0.30664 z m -97.748,0.1543 v 6.4023 h 0.39454 v -6.4023 z m 1.5234,0 v 6.4023 h 0.39453 v -5.9219 h 0.0176 l 4.0723,5.9219 h 0.46484 v -6.4023 h -0.39453 v 5.873 h -0.0176 l -4.041,-5.873 z m 6.0781,0 v 6.4023 h 2.0801 c 1.0276,-0.006 1.7849,-0.31759 2.2695,-0.93359 0.47295,-0.59265 0.70898,-1.3519 0.70898,-2.2774 0.0117,-0.84956 -0.19189,-1.5872 -0.60938,-2.2148 -0.43791,-0.63352 -1.2217,-0.95905 -2.3516,-0.97656 z m 5.9922,0 v 3.8359 c -0.006,0.21603 0.0138,0.47567 0.0605,0.77929 0.0438,0.30654 0.14017,0.60649 0.28906,0.89844 0.15473,0.29486 0.39667,0.53877 0.72657,0.73437 0.32697,0.19853 0.77051,0.30081 1.3281,0.30664 0.94298,-0.0117 1.5999,-0.27721 1.9707,-0.79687 0.35326,-0.50215 0.52537,-1.1424 0.51953,-1.9219 v -3.8359 h -0.39257 v 3.8359 c 0.006,0.7357 -0.14365,1.314 -0.44727,1.7344 -0.32406,0.42332 -0.87382,0.63674 -1.6504,0.64258 -0.45543,-0.006 -0.81735,-0.0934 -1.0859,-0.26563 -0.27443,-0.16933 -0.478,-0.38371 -0.60937,-0.64062 -0.12554,-0.25691 -0.21012,-0.51655 -0.25391,-0.7793 -0.0409,-0.26859 -0.0625,-0.49872 -0.0625,-0.6914 v -3.8359 z m 10.99,0 v 0.34179 h 2.252 v 6.0606 h 0.39453 v -6.0606 h 2.2637 v -0.34179 z m 5.3516,0 v 6.4023 h 0.39453 v -2.916 h 2.2774 c 0.28902,0 0.52505,0.0266 0.70898,0.082 0.18684,0.0584 0.33435,0.13805 0.43945,0.24023 0.11386,0.0963 0.20041,0.21435 0.26172,0.35156 0.0525,0.13722 0.084,0.2867 0.0957,0.44727 0.0263,0.31822 0.0361,0.63883 0.0273,0.96289 0,0.15473 0.0128,0.30029 0.0391,0.4375 0.0117,0.0701 0.0255,0.13596 0.043,0.19727 0.0175,0.073 0.0391,0.13887 0.0625,0.19726 h 0.44141 c -0.11386,-0.17809 -0.16993,-0.42592 -0.16993,-0.74414 -0.006,-0.30946 -0.0225,-0.63499 -0.0488,-0.97656 -0.0117,-0.34158 -0.10707,-0.6435 -0.28516,-0.90625 -0.0905,-0.12554 -0.20853,-0.23174 -0.35742,-0.31641 -0.16057,-0.0701 -0.36217,-0.12023 -0.60156,-0.15234 v -0.0176 c 0.89627,-0.18976 1.3536,-0.73656 1.3711,-1.6387 -0.006,-0.61017 -0.19958,-1.0399 -0.58203,-1.291 -0.38245,-0.24523 -0.86434,-0.36521 -1.4453,-0.35937 z m 5.6582,0 v 6.4023 h 0.39453 v -6.4023 z m 3.4258,0 -2.5762,6.4023 h 0.42578 l 0.81446,-2.0547 h 3.0644 l 0.81055,2.0547 h 0.41992 l -2.5312,-6.4023 z m 3.4238,0 v 6.4023 h 4.0293 v -0.3418 h -3.6348 v -6.0605 z m 6.9707,0 v 6.4023 h 0.39453 v -6.4023 z m 1.5254,0 v 6.4023 h 0.39258 v -5.9219 h 0.0176 l 4.0742,5.9219 h 0.46289 v -6.4023 h -0.39453 v 5.873 h -0.0156 l -4.043,-5.873 z m 5.3848,0 v 0.34179 h 2.252 v 6.0606 h 0.39453 v -6.0606 h 2.2637 v -0.34179 z m 5.3516,0 v 6.4023 h 4.3496 v -0.3418 h -3.9551 v -2.8164 h 3.6797 v -0.3418 h -3.6797 v -2.5606 h 3.9102 v -0.34179 z m 5.0274,0 v 6.4023 h 4.0293 v -0.3418 h -3.6348 v -6.0605 z m 4.4844,0 v 6.4023 h 4.0293 v -0.3418 h -3.6348 v -6.0605 z m 4.4844,0 v 6.4023 h 0.39453 v -6.4023 z m 8.1641,0 v 6.4023 h 4.3477 v -0.3418 h -3.9551 v -2.8164 h 3.6797 v -0.3418 h -3.6797 v -2.5606 h 3.9121 v -0.34179 z m 5.0273,0 v 6.4023 h 0.39258 v -5.9219 h 0.0176 l 4.0742,5.9219 h 0.46289 v -6.4023 h -0.39453 v 5.873 h -0.0176 l -4.041,-5.873 z m 12.4,0 v 6.4023 h 4.3496 v -0.3418 h -3.9551 v -2.8164 h 3.6797 v -0.3418 h -3.6797 v -2.5606 h 3.9102 v -0.34179 z m -93.268,0.34179 h 1.6426 c 0.25107,0 0.52643,0.0236 0.82421,0.0703 0.29487,0.0525 0.57909,0.1745 0.85352,0.36718 0.27443,0.18393 0.49965,0.46815 0.67773,0.85352 0.17517,0.38829 0.26565,0.90756 0.27149,1.5586 -0.0175,1.0831 -0.28895,1.8364 -0.81445,2.2598 -0.52259,0.41748 -1.1009,0.62105 -1.7344,0.60937 h -1.7207 z m 22.334,0 h 2.2774 c 0.44959,0 0.83313,0.0974 1.1484,0.29297 0.31822,0.2102 0.47854,0.55834 0.48438,1.043 -0.006,0.50799 -0.1573,0.87777 -0.45508,1.1113 -0.30654,0.2394 -0.69894,0.35937 -1.1777,0.35938 h -2.2774 z m 8.9024,0.043 h 0.0176 l 1.375,3.6211 h -2.8144 z"
       transform="matrix(0.25519,0,0,0.25519,10.367,-62.324)"
       inkscape:connector-curvature="0" />
    <path
       id="path1786"
       style="fill:#b3b3b3;stroke-width:0.12759;paint-order:stroke fill markers"
       d="M 25.797,30.397 V 43.156 H 38.556 V 30.397 Z m 1.9139,1.9139 h 8.9316 v 8.9316 h -8.9316 z"
       inkscape:connector-curvature="0" />
    <path
       id="path1788"
       style="fill:#ff0000;stroke-width:0.48225001;paint-order:stroke fill markers"
       d="m 30.261,34.863 h 3.8279 v 3.8279 H 30.261 Z"
       inkscape:connector-curvature="0" />
    <g
       id="g1854"
       style="fill:#b3b3b3">
      <g
         id="g1806"
         style="stroke-width:0.20805">
        <path
           id="path1790"
           d="m 45.671,34.205 q 0.41753,0 0.7098,0.29858 0.30062,0.29029 0.30062,0.70499 v 2.8034 q 0,0.4147 -0.30062,0.71328 -0.29227,0.29029 -0.7098,0.29029 h -3.9248 v -6.3863 h 0.68474 v 1.5759 z m 0.32567,3.8069 v -2.8034 q 0,-0.1327 -0.10021,-0.22394 -0.09185,-0.09953 -0.22546,-0.09953 h -2.906 q -0.13361,0 -0.23382,0.09953 -0.10021,0.09123 -0.10021,0.22394 v 2.8034 q 0,0.1327 0.10021,0.23223 0.10021,0.09123 0.23382,0.09123 h 2.906 q 0.13361,0 0.22546,-0.09123 0.10021,-0.09953 0.10021,-0.23223 z"
           inkscape:connector-curvature="0" />
        <path
           id="path1792"
           d="m 51.567,34.205 h 0.68474 v 3.8069 q 0,0.4147 -0.30062,0.71328 -0.29227,0.29029 -0.71815,0.29029 h -2.906 q -0.41753,0 -0.71815,-0.29029 Q 47.31655,38.4266 47.31655,38.0119 V 34.205 h 0.68474 v 3.8069 q 0,0.1327 0.09185,0.23223 0.10021,0.09123 0.23382,0.09123 h 2.906 q 0.13361,0 0.23381,-0.09123 0.10021,-0.09953 0.10021,-0.23223 z"
           inkscape:connector-curvature="0" />
        <path
           id="path1794"
           d="m 53.114,32.63 h 0.68474 v 5.3828 q 0,0.1327 0.09185,0.23223 0.10021,0.09123 0.23382,0.09123 h 0.81835 v 0.6801 h -0.81835 q -0.41753,0 -0.71815,-0.29029 -0.29227,-0.29858 -0.29227,-0.71328 z"
           inkscape:connector-curvature="0" />
        <path
           id="path1796"
           d="m 55.642,32.63 h 0.68474 v 5.3828 q 0,0.1327 0.09186,0.23223 0.10021,0.09123 0.23381,0.09123 h 0.81835 v 0.6801 H 56.6524 q -0.41753,0 -0.71815,-0.29029 -0.29227,-0.29858 -0.29227,-0.71328 z"
           inkscape:connector-curvature="0" />
        <path
           id="path1798"
           d="m 63.072,35.209 v 0.06635 H 62.37891 V 35.209 q 0,-0.1327 -0.10021,-0.22394 -0.09185,-0.09953 -0.22546,-0.09953 h -2.906 q -0.13361,0 -0.23381,0.09953 -0.09185,0.09123 -0.09185,0.22394 v 0.73816 q 0,0.1327 0.09185,0.23223 0.10021,0.09123 0.23381,0.09123 h 2.906 q 0.42588,0 0.71815,0.29858 0.30062,0.29029 0.30062,0.70499 v 0.73816 q 0,0.4147 -0.30062,0.71328 -0.29227,0.29029 -0.71815,0.29029 h -2.906 q -0.41753,0 -0.71815,-0.29029 -0.29227,-0.29858 -0.29227,-0.71328 V 37.946 h 0.68474 v 0.06635 q 0,0.1327 0.09185,0.23223 0.10021,0.09123 0.23381,0.09123 h 2.906 q 0.13361,0 0.22546,-0.09123 0.10021,-0.09953 0.10021,-0.23223 v -0.73816 q 0,-0.1327 -0.10021,-0.22394 -0.09185,-0.09953 -0.22546,-0.09953 h -2.906 q -0.41753,0 -0.71815,-0.29029 -0.29227,-0.29858 -0.29227,-0.71328 v -0.73816 q 0,-0.4147 0.29227,-0.70499 0.30062,-0.29858 0.71815,-0.29858 h 2.906 q 0.42588,0 0.71815,0.29858 0.30062,0.29029 0.30062,0.70499 z"
           inkscape:connector-curvature="0" />
        <path
           id="path1800"
           d="m 67.672,34.205 q 0.42588,0 0.71815,0.29858 0.30062,0.29029 0.30062,0.70499 v 1.7417 h -4.2504 v 1.0616 q 0,0.1327 0.09185,0.23223 0.10021,0.09123 0.23382,0.09123 h 3.9248 v 0.6801 h -3.9248 q -0.41753,0 -0.71815,-0.29029 -0.29227,-0.29858 -0.29227,-0.71328 v -2.8034 q 0,-0.4147 0.29227,-0.70499 0.30062,-0.29858 0.71815,-0.29858 z m -3.2317,2.0652 h 3.5573 v -1.0616 q 0,-0.1327 -0.10021,-0.22394 -0.09185,-0.09953 -0.22547,-0.09953 h -2.906 q -0.13361,0 -0.23382,0.09953 -0.09185,0.09123 -0.09185,0.22394 z"
           inkscape:connector-curvature="0" />
        <path
           id="path1802"
           d="m 74.381,39.912 q 0,0.42299 -0.29227,0.71328 -0.29227,0.29858 -0.71815,0.29858 h -3.0229 v -0.6884 h 3.0229 q 0.13361,0 0.22546,-0.09953 0.10021,-0.09123 0.10021,-0.22394 v -0.89575 h -3.2317 q -0.41753,0 -0.71815,-0.29029 -0.29227,-0.29858 -0.29227,-0.71328 v -3.7903 h 0.68474 v 3.7903 q 0,0.1327 0.09185,0.23223 0.10021,0.09123 0.23382,0.09123 h 2.906 q 0.13361,0 0.22546,-0.09123 0.10021,-0.09953 0.10021,-0.23223 v -3.7903 h 0.68474 z"
           inkscape:connector-curvature="0" />
        <path
           id="path1804"
           d="m 79.008,34.205 q 0.42588,0 0.71815,0.29858 0.30062,0.29029 0.30062,0.70499 v 1.7417 h -4.2504 v 1.0616 q 0,0.1327 0.09185,0.23223 0.10021,0.09123 0.23382,0.09123 h 3.9248 v 0.6801 h -3.9248 q -0.41753,0 -0.71815,-0.29029 -0.29227,-0.29858 -0.29227,-0.71328 v -2.8034 q 0,-0.4147 0.29227,-0.70499 0.30062,-0.29858 0.71815,-0.29858 z m -3.2317,2.0652 h 3.5573 v -1.0616 q 0,-0.1327 -0.10021,-0.22394 -0.09185,-0.09953 -0.22546,-0.09953 h -2.906 q -0.13361,0 -0.23382,0.09953 -0.09185,0.09123 -0.09185,0.22394 z"
           inkscape:connector-curvature="0" />
      </g>
      <g
         id="g1852"
         style="stroke-width:0.057219">
        <path
           id="path1808"
           d="m 41.747,43.117 h 0.10058 V 41.4832 H 41.747 Z"
           inkscape:connector-curvature="0" />
        <path
           id="path1810"
           d="m 42.136,43.117 h 0.10058 v -1.5109 h 0.0045 l 1.0393,1.5109 h 0.11846 v -1.6338 h -0.10058 v 1.4986 h -0.0045 l -1.0315,-1.4986 h -0.12628 z"
           inkscape:connector-curvature="0" />
        <path
           id="path1812"
           d="m 43.787,41.571 h 0.41908 q 0.09611,0 0.2101,0.01788 0.11287,0.02011 0.21792,0.09387 0.10505,0.07041 0.17322,0.21792 0.06705,0.14863 0.06929,0.39784 -0.0067,0.41461 -0.20786,0.57665 -0.20004,0.15981 -0.44255,0.15534 H 43.787 Z m -0.10058,1.5467 h 0.53083 q 0.39338,-0.0022 0.57889,-0.23804 0.18104,-0.22686 0.18104,-0.58112 0.0045,-0.3252 -0.15534,-0.56548 -0.16763,-0.24251 -0.60012,-0.24921 h -0.5353 z"
           inkscape:connector-curvature="0" />
        <path
           id="path1814"
           d="m 45.216,41.484 v 0.97897 q -0.0022,0.0827 0.01564,0.19892 0.01676,0.11734 0.07376,0.2291 0.05923,0.11287 0.18551,0.18775 0.12516,0.07599 0.33862,0.07823 0.36097,-0.0045 0.50289,-0.20339 0.13522,-0.19222 0.13299,-0.4906 v -0.97897 h -0.10058 v 0.97897 q 0.0022,0.28162 -0.11399,0.44255 -0.12405,0.16204 -0.42131,0.16428 -0.17434,-0.0022 -0.27715,-0.06817 -0.10505,-0.06482 -0.15534,-0.16316 -0.04805,-0.09834 -0.06482,-0.19892 -0.01564,-0.10281 -0.01564,-0.17657 v -0.97897 z"
           inkscape:connector-curvature="0" />
        <path
           id="path1816"
           d="m 47.92,41.951 q -0.01565,-0.26821 -0.18775,-0.39002 -0.17322,-0.11622 -0.43696,-0.11622 -0.20116,0 -0.36991,0.09834 -0.17434,0.10058 -0.17881,0.33638 0,0.11511 0.05029,0.18998 0.04582,0.07376 0.12628,0.12181 0.07935,0.04358 0.17769,0.07041 0.04805,0.01341 0.10058,0.0257 0.04805,0.01341 0.10058,0.02682 0.1084,0.019 0.20898,0.04135 0.09611,0.02347 0.17657,0.0637 0.07935,0.04135 0.1274,0.10617 0.04582,0.06594 0.04582,0.17098 0,0.10505 -0.04358,0.17657 -0.04582,0.07041 -0.11846,0.11399 -0.07152,0.04358 -0.15087,0.06258 -0.0827,0.02012 -0.16093,0.02012 -0.24698,0.0022 -0.42131,-0.11399 -0.17098,-0.11511 -0.16651,-0.37773 h -0.10058 q 0.0045,0.31068 0.20116,0.4459 0.19445,0.13299 0.48725,0.13299 0.20116,0 0.3822,-0.10505 0.18551,-0.10393 0.19222,-0.35538 0,-0.12293 -0.04582,-0.20339 -0.04805,-0.07823 -0.1274,-0.12628 -0.08046,-0.04805 -0.17657,-0.07711 -0.10058,-0.02794 -0.20786,-0.04582 -0.05252,-0.01453 -0.1017,-0.0257 -0.05252,-0.0089 -0.10058,-0.02235 -0.09834,-0.02347 -0.17769,-0.06035 -0.08046,-0.03576 -0.12628,-0.10058 -0.05029,-0.06146 -0.05029,-0.15534 0,-0.10281 0.04582,-0.16875 0.04358,-0.06929 0.10952,-0.1084 0.14416,-0.07264 0.2928,-0.07041 0.2291,0 0.37326,0.10281 0.14193,0.10505 0.15087,0.31626 z"
           inkscape:connector-curvature="0" />
        <path
           id="path1818"
           d="m 48.595,41.571 v 1.5467 h 0.10058 V 41.571 h 0.57777 v -0.08717 h -1.2528 V 41.571 Z"
           inkscape:connector-curvature="0" />
        <path
           id="path1820"
           d="m 49.487,42.287 v -0.71634 h 0.58112 q 0.1721,0 0.2928,0.07487 0.12181,0.08046 0.12405,0.26598 -0.0022,0.19445 -0.11622,0.28386 -0.11734,0.09164 -0.30062,0.09164 z m -0.10058,0.83033 H 49.487 v -0.74428 h 0.58112 q 0.11064,0 0.18104,0.02123 0.07152,0.02235 0.11175,0.06146 0.04359,0.03688 0.06705,0.0894 0.02012,0.05252 0.02459,0.11399 0.01006,0.12181 0.0067,0.24586 0,0.05923 0.01006,0.11175 0.0045,0.02682 0.01118,0.05029 0.0067,0.02794 0.01565,0.05029 h 0.11287 q -0.04358,-0.06817 -0.04358,-0.18998 -0.0022,-0.11846 -0.01229,-0.24921 -0.0045,-0.13075 -0.07264,-0.23133 -0.03464,-0.04805 -0.09164,-0.08046 -0.06146,-0.02682 -0.1531,-0.03911 v -0.0045 q 0.34308,-0.07264 0.34979,-0.41796 -0.0022,-0.23357 -0.14863,-0.32968 -0.1464,-0.09387 -0.36879,-0.09164 h -0.6817 z"
           inkscape:connector-curvature="0" />
        <path
           id="path1822"
           d="m 50.83,43.117 h 0.10058 V 41.4832 H 50.83 Z"
           inkscape:connector-curvature="0" />
        <path
           id="path1824"
           d="m 51.704,41.484 -0.65712,1.6338 h 0.1084 l 0.20786,-0.52413 h 0.78228 l 0.20674,0.52413 h 0.10728 L 51.8135,41.484 Z m -0.30844,1.0226 0.3632,-0.92421 h 0.0045 l 0.35091,0.92421 z"
           inkscape:connector-curvature="0" />
        <path
           id="path1826"
           d="m 52.578,43.117 h 1.0281 v -0.08717 h -0.92756 v -1.5467 h -0.10058 z"
           inkscape:connector-curvature="0" />
        <path
           id="path1828"
           d="m 54.357,43.117 h 0.10058 V 41.4832 H 54.357 Z"
           inkscape:connector-curvature="0" />
        <path
           id="path1830"
           d="m 54.746,43.117 h 0.10058 v -1.5109 h 0.0045 l 1.0393,1.5109 h 0.11846 v -1.6338 h -0.10058 v 1.4986 h -0.0045 l -1.0315,-1.4986 h -0.12628 z"
           inkscape:connector-curvature="0" />
        <path
           id="path1832"
           d="m 56.695,41.571 v 1.5467 h 0.10058 V 41.571 h 0.57777 v -0.08717 h -1.2528 V 41.571 Z"
           inkscape:connector-curvature="0" />
        <path
           id="path1834"
           d="m 57.587,43.03 v -0.71858 h 0.93874 V 42.22425 H 57.587 v -0.65376 h 0.99796 v -0.08717 h -1.0985 v 1.6338 h 1.1097 v -0.08717 z"
           inkscape:connector-curvature="0" />
        <path
           id="path1836"
           d="m 58.769,43.117 h 1.0281 v -0.08717 h -0.92756 v -1.5467 h -0.10058 z"
           inkscape:connector-curvature="0" />
        <path
           id="path1838"
           d="m 59.914,43.117 h 1.0281 v -0.08717 h -0.92756 v -1.5467 h -0.10058 z"
           inkscape:connector-curvature="0" />
        <path
           id="path1840"
           d="m 61.058,43.117 h 0.10058 V 41.4832 H 61.058 Z"
           inkscape:connector-curvature="0" />
        <path
           id="path1842"
           d="m 62.177,42.316 v 0.08717 h 0.60236 q 0.0089,0.30174 -0.15534,0.48278 -0.1654,0.18104 -0.46266,0.18328 -0.33638,-0.0045 -0.50401,-0.22463 -0.16875,-0.21457 -0.16875,-0.5353 0,-0.31515 0.17434,-0.54201 0.16875,-0.23133 0.49842,-0.2358 0.45819,0.0089 0.58112,0.45708 h 0.09611 q -0.04582,-0.26039 -0.23357,-0.40232 -0.18775,-0.13969 -0.4459,-0.14193 -0.36879,0.0067 -0.56771,0.25815 -0.20339,0.24809 -0.20339,0.60682 0,0.35985 0.19892,0.59789 0.09834,0.11399 0.24251,0.17992 0.14193,0.06705 0.32744,0.06929 0.21904,-0.0022 0.3889,-0.10505 0.16651,-0.10058 0.2291,-0.28162 h 0.0045 v 0.34756 h 0.08717 V 42.316 Z"
           inkscape:connector-curvature="0" />
        <path
           id="path1844"
           d="m 63.242,43.03 v -0.71858 h 0.93874 V 42.22425 H 63.242 v -0.65376 h 0.99796 v -0.08717 h -1.0985 v 1.6338 h 1.1097 v -0.08717 z"
           inkscape:connector-curvature="0" />
        <path
           id="path1846"
           d="m 64.424,43.117 h 0.10058 v -1.5109 h 0.0045 l 1.0393,1.5109 h 0.11846 v -1.6338 h -0.10058 v 1.4986 h -0.0045 l -1.0315,-1.4986 h -0.12628 z"
           inkscape:connector-curvature="0" />
        <path
           id="path1848"
           d="m 67.349,41.971 q 0.0022,-0.01341 -0.02123,-0.09387 -0.02235,-0.08046 -0.0894,-0.17881 -0.06593,-0.10058 -0.19669,-0.17545 -0.13187,-0.07599 -0.34979,-0.07823 -0.37102,0.0045 -0.57218,0.24698 -0.20339,0.23804 -0.20563,0.60906 0.0022,0.36655 0.20563,0.60459 0.10058,0.11622 0.24474,0.18216 0.14416,0.06705 0.32744,0.06929 0.27715,-0.0045 0.4649,-0.19445 0.18775,-0.18328 0.21904,-0.48054 h -0.10058 q -0.01788,0.23357 -0.17881,0.40678 -0.15981,0.17657 -0.40455,0.18104 -0.32297,-0.0045 -0.49619,-0.2291 -0.18104,-0.21904 -0.18104,-0.53977 0,-0.3252 0.18104,-0.54201 0.17322,-0.22239 0.49619,-0.22686 0.2101,0.0022 0.36655,0.11622 0.1531,0.11511 0.18998,0.32297 z"
           inkscape:connector-curvature="0" />
        <path
           id="path1850"
           d="m 67.689,43.03 v -0.71858 h 0.93874 V 42.22425 H 67.689 v -0.65376 h 0.99796 v -0.08717 h -1.0985 v 1.6338 h 1.1097 v -0.08717 z"
           inkscape:connector-curvature="0" />
      </g>
    </g>
  </g>
  <path
     id="path1913"
     style="fill:none;stroke-width:3.36765933;paint-order:markers stroke fill"
     d="M 287.23889,128.6553 H 513.7174 v 70.00115 H 287.23889 Z"
     inkscape:connector-curvature="0" />
  <g
     id="g2122"
     transform="matrix(1.0368423,0,0,1.0368423,-251.95475,-110.68142)">
    <path
       inkscape:connector-curvature="0"
       d="m 297.97661,139.54042 v 48.22335 h 48.22334 v -48.22335 z m 7.23369,7.23369 h 33.75747 v 33.75748 H 305.2103 Z"
       style="fill:#b3b3b3;stroke-width:0.48223346;paint-order:stroke fill markers"
       id="path1917" />
    <path
       inkscape:connector-curvature="0"
       d="m 314.84854,156.41992 h 14.46776 v 14.46776 h -14.46776 z"
       style="fill:#ff0000;stroke-width:1.82269049;paint-order:stroke fill markers"
       id="path1919" />
  </g>
  <g
     id="g2118"
     transform="matrix(0.9676274,0,0,0.9676274,-246.92952,-171.27815)">
    <path
       inkscape:connector-curvature="0"
       d="m 282.42617,291.99152 q 1.57807,0 2.68272,1.1285 1.13621,1.09717 1.13621,2.66455 v 10.5956 q 0,1.56738 -1.13621,2.69588 -1.10465,1.09717 -2.68272,1.09717 h -14.834 v -24.13737 h 2.58801 v 5.9562 z m 1.23088,14.38839 V 295.7843 q 0,-0.50154 -0.37875,-0.84639 -0.34715,-0.37618 -0.85213,-0.37618 h -10.98339 q -0.50499,0 -0.88374,0.37618 -0.37875,0.34481 -0.37875,0.84639 v 10.59561 q 0,0.50154 0.37875,0.87772 0.37875,0.34481 0.88374,0.34481 h 10.98339 q 0.50498,0 0.85213,-0.34481 0.37875,-0.37618 0.37875,-0.87772 z"
       id="path1921"
       style="fill:#b3b3b3;stroke-width:0.78633642" />
    <path
       inkscape:connector-curvature="0"
       d="m 304.71042,291.99152 h 2.58802 v 14.38839 q 0,1.56738 -1.13621,2.69588 -1.10465,1.09717 -2.71429,1.09717 h -10.98339 q -1.57808,0 -2.71429,-1.09717 -1.10465,-1.1285 -1.10465,-2.69588 v -14.38839 h 2.58802 v 14.38839 q 0,0.50154 0.34715,0.87772 0.37875,0.34481 0.88373,0.34481 h 10.98339 q 0.50499,0 0.8837,-0.34481 0.37875,-0.37618 0.37875,-0.87772 z"
       id="path1923"
       style="fill:#b3b3b3;stroke-width:0.78633642" />
    <path
       inkscape:connector-curvature="0"
       d="m 310.55739,286.03872 h 2.58802 v 20.34459 q 0,0.50155 0.34715,0.87773 0.37875,0.3448 0.88374,0.3448 h 3.09299 v 2.57048 h -3.09299 q -1.57808,0 -2.71429,-1.09717 -1.10465,-1.1285 -1.10465,-2.69588 z"
       id="path1925"
       style="fill:#b3b3b3;stroke-width:0.78633642" />
    <path
       inkscape:connector-curvature="0"
       d="m 320.11211,286.03872 h 2.58801 v 20.34459 q 0,0.50155 0.34719,0.87773 0.37875,0.3448 0.8837,0.3448 h 3.093 v 2.57048 h -3.09304 q -1.57807,0 -2.71428,-1.09717 -1.10466,-1.1285 -1.10466,-2.69588 z"
       id="path1927"
       style="fill:#b3b3b3;stroke-width:0.78633642" />
    <path
       inkscape:connector-curvature="0"
       d="m 348.19421,295.78619 v 0.25078 h -2.61958 v -0.25078 q 0,-0.50154 -0.37875,-0.84639 -0.34715,-0.37618 -0.85213,-0.37618 h -10.98339 q -0.50499,0 -0.8837,0.37618 -0.34715,0.34481 -0.34715,0.84639 v 2.78992 q 0,0.50155 0.34715,0.87772 0.37875,0.34481 0.8837,0.34481 h 10.98339 q 1.60963,0 2.71428,1.1285 1.13621,1.09717 1.13621,2.66455 v 2.78992 q 0,1.56738 -1.13621,2.69588 -1.10465,1.09717 -2.71428,1.09717 h -10.98339 q -1.57808,0 -2.71429,-1.09717 -1.10465,-1.1285 -1.10465,-2.69588 v -0.25078 h 2.58801 v 0.25078 q 0,0.50155 0.34716,0.87772 0.37874,0.34481 0.88369,0.34481 h 10.98339 q 0.50499,0 0.85214,-0.34481 0.37875,-0.37617 0.37875,-0.87772 v -2.78992 q 0,-0.50155 -0.37875,-0.84639 -0.34715,-0.37618 -0.85214,-0.37618 h -10.98339 q -1.57807,0 -2.71428,-1.09717 -1.10466,-1.1285 -1.10466,-2.69588 v -2.78992 q 0,-1.56738 1.10466,-2.66454 1.13621,-1.1285 2.71428,-1.1285 h 10.98339 q 1.60964,0 2.71429,1.1285 1.13621,1.09716 1.13621,2.66454 z"
       id="path1929"
       style="fill:#b3b3b3;stroke-width:0.78633642" />
    <path
       inkscape:connector-curvature="0"
       d="m 365.58016,291.99152 q 1.60964,0 2.71429,1.1285 1.13621,1.09717 1.13621,2.66455 v 6.58285 h -16.06462 v 4.01237 q 0,0.50155 0.34715,0.87773 0.37875,0.34481 0.88373,0.34481 h 14.834 v 2.57047 h -14.834 q -1.57807,0 -2.71428,-1.09716 -1.10465,-1.1285 -1.10465,-2.69588 v -10.59561 q 0,-1.56738 1.10465,-2.66455 1.13621,-1.1285 2.71428,-1.1285 z m -12.21439,7.80554 h 13.44501 v -4.01238 q 0,-0.50155 -0.37875,-0.84639 -0.34715,-0.37618 -0.85217,-0.37618 h -10.98339 q -0.50499,0 -0.88374,0.37618 -0.34715,0.34481 -0.34715,0.84639 z"
       id="path1931"
       style="fill:#b3b3b3;stroke-width:0.78633642" />
    <path
       inkscape:connector-curvature="0"
       d="m 390.9372,313.56144 q 0,1.59871 -1.10466,2.69588 -1.10465,1.1285 -2.71428,1.1285 h -11.42522 v -2.60184 h 11.42522 q 0.50498,0 0.85214,-0.37618 0.37874,-0.34481 0.37874,-0.8464 v -3.38553 h -12.21438 q -1.57808,0 -2.71429,-1.09717 -1.10465,-1.1285 -1.10465,-2.69588 v -14.32565 h 2.58801 v 14.32565 q 0,0.50154 0.34715,0.87772 0.37875,0.34481 0.88374,0.34481 h 10.98339 q 0.50498,0 0.85213,-0.34481 0.37875,-0.37618 0.37875,-0.87772 v -14.32565 h 2.58802 z"
       id="path1933"
       style="fill:#b3b3b3;stroke-width:0.78633642" />
    <path
       inkscape:connector-curvature="0"
       d="m 408.4252,291.99152 q 1.60963,0 2.71428,1.1285 1.13621,1.09717 1.13621,2.66455 v 6.58285 h -16.06462 v 4.01237 q 0,0.50155 0.34716,0.87773 0.37874,0.34481 0.88373,0.34481 h 14.834 v 2.57047 h -14.834 q -1.57808,0 -2.71429,-1.09716 -1.10465,-1.1285 -1.10465,-2.69588 v -10.59561 q 0,-1.56738 1.10465,-2.66455 1.13621,-1.1285 2.71429,-1.1285 z m -12.21439,7.80554 h 13.44501 v -4.01238 q 0,-0.50155 -0.37875,-0.84639 -0.34715,-0.37618 -0.85214,-0.37618 h -10.98338 q -0.50499,0 -0.88374,0.37618 -0.34715,0.34481 -0.34715,0.84639 z"
       id="path1935"
       style="fill:#b3b3b3;stroke-width:0.78633642" />
    <path
       inkscape:connector-curvature="0"
       d="m 267.59519,325.67491 h 0.38015 v -6.17503 h -0.38015 z"
       id="path1939"
       style="fill:#b3b3b3;stroke-width:0.21626237" />
    <path
       inkscape:connector-curvature="0"
       d="m 269.06544,325.67491 h 0.38015 v -5.71053 h 0.017 l 3.9281,5.71053 h 0.44772 v -6.17503 h -0.38015 v 5.66404 h -0.017 l -3.89862,-5.66404 h -0.47728 z"
       id="path1941"
       style="fill:#b3b3b3;stroke-width:0.21626237" />
    <path
       inkscape:connector-curvature="0"
       d="m 275.30548,319.83172 h 1.58394 q 0.36325,0 0.79408,0.0676 0.4266,0.076 0.82364,0.35479 0.39705,0.26612 0.6547,0.82364 0.25342,0.56175 0.26188,1.50366 -0.0253,1.56704 -0.78561,2.17948 -0.75607,0.60401 -1.67265,0.58711 h -1.65998 z m -0.38014,5.84584 h 2.0063 q 1.4868,-0.008 2.18794,-0.89969 0.68425,-0.85742 0.68425,-2.19637 0.017,-1.22911 -0.58711,-2.13726 -0.63357,-0.91658 -2.26819,-0.94191 h -2.02319 z"
       id="path1943"
       style="fill:#b3b3b3;stroke-width:0.21626237" />
    <path
       inkscape:connector-curvature="0"
       d="m 280.70647,319.5029 v 3.70007 q -0.008,0.31257 0.0591,0.75183 0.0634,0.44349 0.27878,0.8659 0.22386,0.4266 0.70115,0.70961 0.47304,0.28721 1.27983,0.29567 1.3643,-0.017 1.9007,-0.76872 0.51107,-0.72651 0.50264,-1.85425 v -3.70007 h -0.38015 v 3.70007 q 0.008,1.0644 -0.43083,1.67264 -0.46885,0.61244 -1.59236,0.62091 -0.65893,-0.008 -1.04751,-0.25765 -0.39704,-0.245 -0.58711,-0.61668 -0.18161,-0.37168 -0.24499,-0.75183 -0.0591,-0.38857 -0.0591,-0.66735 v -3.70007 z"
       id="path1945"
       style="fill:#b3b3b3;stroke-width:0.21626237" />
    <path
       inkscape:connector-curvature="0"
       d="m 290.92639,321.26795 q -0.0591,-1.01371 -0.70962,-1.4741 -0.65469,-0.43926 -1.65151,-0.43926 -0.7603,0 -1.3981,0.37168 -0.65892,0.38015 -0.67582,1.27137 0,0.43506 0.19008,0.71804 0.17317,0.27878 0.47728,0.46039 0.29991,0.16471 0.67159,0.26612 0.1816,0.0507 0.38014,0.0971 0.18161,0.0507 0.38015,0.10137 0.40971,0.0718 0.78985,0.15628 0.36326,0.0887 0.66736,0.24076 0.29991,0.15628 0.48152,0.40128 0.17317,0.24922 0.17317,0.64622 0,0.39705 -0.16471,0.66736 -0.17318,0.26612 -0.44772,0.43083 -0.27032,0.16471 -0.57023,0.23653 -0.31257,0.076 -0.60824,0.076 -0.93347,0.008 -1.59236,-0.43083 -0.64623,-0.43507 -0.62934,-1.42765 h -0.38015 q 0.017,1.17423 0.7603,1.6853 0.73493,0.50264 1.84159,0.50264 0.76029,0 1.44454,-0.39704 0.70115,-0.39281 0.72651,-1.34318 0,-0.46462 -0.17318,-0.76872 -0.18161,-0.29567 -0.48151,-0.47728 -0.30411,-0.18161 -0.66736,-0.29144 -0.38015,-0.1056 -0.78562,-0.17318 -0.1985,-0.0549 -0.38438,-0.0971 -0.1985,-0.0336 -0.38015,-0.0845 -0.37168,-0.0887 -0.67159,-0.2281 -0.3041,-0.13515 -0.47728,-0.38014 -0.19007,-0.2323 -0.19007,-0.58712 0,-0.38858 0.17318,-0.6378 0.16471,-0.26189 0.41393,-0.4097 0.54486,-0.27455 1.10666,-0.26612 0.86589,0 1.41075,0.38857 0.53644,0.39705 0.57023,1.19533 z"
       id="path1947"
       style="fill:#b3b3b3;stroke-width:0.21626237" />
    <path
       inkscape:connector-curvature="0"
       d="m 293.47758,319.83172 v 5.84584 h 0.38015 v -5.84584 h 2.18372 v -0.32946 h -4.73503 v 0.32946 z"
       id="path1949"
       style="fill:#b3b3b3;stroke-width:0.21626237" />
    <path
       inkscape:connector-curvature="0"
       d="m 296.84895,322.53788 v -2.70744 h 2.19637 q 0.65046,0 1.10666,0.28297 0.46038,0.30411 0.46885,1.00529 -0.008,0.73493 -0.43926,1.07286 -0.44349,0.34636 -1.13621,0.34636 z m -0.38015,3.13828 h 0.38015 v -2.81305 h 2.19637 q 0.41817,0 0.68425,0.0802 0.27032,0.0845 0.42237,0.2323 0.16475,0.13939 0.25342,0.33789 0.076,0.1985 0.0929,0.43083 0.038,0.46039 0.0253,0.92924 0,0.22386 0.038,0.42237 0.017,0.10136 0.0423,0.19007 0.0253,0.1056 0.0591,0.19007 h 0.4266 q -0.16472,-0.25765 -0.16472,-0.71804 -0.008,-0.44772 -0.0465,-0.9419 -0.017,-0.49418 -0.27454,-0.87432 -0.13093,-0.18161 -0.34636,-0.30411 -0.23229,-0.10136 -0.57865,-0.14781 v -0.017 q 1.29669,-0.27455 1.32205,-1.57971 -0.008,-0.88279 -0.56176,-1.24604 -0.55332,-0.35479 -1.39386,-0.34636 h -2.57652 z"
       id="path1951"
       style="fill:#b3b3b3;stroke-width:0.21626237" />
    <path
       inkscape:connector-curvature="0"
       d="m 301.92489,325.67491 h 0.38015 v -6.17503 h -0.38015 z"
       id="path1953"
       style="fill:#b3b3b3;stroke-width:0.21626237" />
    <path
       inkscape:connector-curvature="0"
       d="m 305.22822,319.5029 -2.48362,6.17504 h 0.4097 l 0.78562,-1.98098 h 2.95667 l 0.78139,1.98098 h 0.40547 l -2.44137,-6.17504 z m -1.16576,3.86497 1.37273,-3.4931 h 0.017 l 1.32628,3.4931 z"
       id="path1955"
       style="fill:#b3b3b3;stroke-width:0.21626237" />
    <path
       inkscape:connector-curvature="0"
       d="m 308.53155,325.67491 h 3.88576 v -0.32946 h -3.50576 v -5.84584 h -0.38015 z"
       id="path1957"
       style="fill:#b3b3b3;stroke-width:0.21626237" />
    <path
       inkscape:connector-curvature="0"
       d="m 315.25538,325.67491 h 0.38015 v -6.17503 h -0.38015 z"
       id="path1959"
       style="fill:#b3b3b3;stroke-width:0.21626237" />
    <path
       inkscape:connector-curvature="0"
       d="m 316.72563,325.67491 h 0.38015 v -5.71053 h 0.017 l 3.9281,5.71053 h 0.44772 v -6.17503 h -0.38015 v 5.66404 h -0.017 l -3.89861,-5.66404 h -0.47729 z"
       id="path1961"
       style="fill:#b3b3b3;stroke-width:0.21626237" />
    <path
       inkscape:connector-curvature="0"
       d="m 324.09198,319.83172 v 5.84584 h 0.38015 v -5.84584 h 2.18371 v -0.32946 h -4.73502 v 0.32946 z"
       id="path1963"
       style="fill:#b3b3b3;stroke-width:0.21626237" />
    <path
       inkscape:connector-curvature="0"
       d="m 327.46335,325.34609 v -2.71591 h 3.54801 v -0.32946 h -3.54801 v -2.47093 h 3.77184 v -0.32946 h -4.15184 v 6.17504 h 4.19417 v -0.32947 z"
       id="path1965"
       style="fill:#b3b3b3;stroke-width:0.21626237" />
    <path
       inkscape:connector-curvature="0"
       d="m 331.93078,325.67491 h 3.88576 v -0.32946 h -3.50576 v -5.84584 h -0.38015 z"
       id="path1967"
       style="fill:#b3b3b3;stroke-width:0.21626237" />
    <path
       inkscape:connector-curvature="0"
       d="m 336.25837,325.67491 h 3.88576 v -0.32946 h -3.50576 v -5.84584 h -0.38015 z"
       id="path1969"
       style="fill:#b3b3b3;stroke-width:0.21626237" />
    <path
       inkscape:connector-curvature="0"
       d="m 340.58218,325.67491 h 0.38015 v -6.17503 h -0.38015 z"
       id="path1971"
       style="fill:#b3b3b3;stroke-width:0.21626237" />
    <path
       inkscape:connector-curvature="0"
       d="m 344.8115,322.64749 v 0.32946 h 2.27666 q 0.0336,1.14045 -0.58712,1.8247 -0.62514,0.68425 -1.74865,0.69272 -1.27137,-0.017 -1.90493,-0.84901 -0.6378,-0.81098 -0.6378,-2.02319 0,-1.19113 0.65893,-2.04856 0.6378,-0.87432 1.8838,-0.89122 1.73176,0.0336 2.19638,1.72756 h 0.36325 q -0.17318,-0.98416 -0.88279,-1.52059 -0.70961,-0.52797 -1.6853,-0.53643 -1.39387,0.0253 -2.1457,0.97569 -0.76872,0.93767 -0.76872,2.29351 0,1.36007 0.75183,2.25976 0.37168,0.43083 0.91658,0.68002 0.53643,0.25342 1.23758,0.26188 0.82787,-0.008 1.46987,-0.39704 0.62933,-0.38015 0.86589,-1.0644 h 0.017 v 1.31362 h 0.32946 v -3.02848 z"
       id="path1973"
       style="fill:#b3b3b3;stroke-width:0.21626237" />
    <path
       inkscape:connector-curvature="0"
       d="m 348.83673,325.34609 v -2.71591 h 3.54802 v -0.32946 h -3.54802 v -2.47093 h 3.77184 v -0.32946 h -4.15184 v 6.17504 h 4.19418 v -0.32947 z"
       id="path1975"
       style="fill:#b3b3b3;stroke-width:0.21626237" />
    <path
       inkscape:connector-curvature="0"
       d="m 353.30416,325.67491 h 0.38015 v -5.71053 h 0.017 l 3.92809,5.71053 h 0.44773 v -6.17503 h -0.38015 v 5.66404 h -0.017 l -3.89861,-5.66404 h -0.47728 z"
       id="path1977"
       style="fill:#b3b3b3;stroke-width:0.21626237" />
    <path
       inkscape:connector-curvature="0"
       d="m 364.35936,321.34354 q 0.008,-0.0507 -0.0802,-0.35478 -0.0845,-0.30411 -0.33789,-0.67582 -0.24919,-0.38015 -0.7434,-0.66313 -0.49841,-0.28721 -1.32205,-0.29567 -1.40229,0.017 -2.16259,0.93347 -0.76872,0.89969 -0.77719,2.30198 0.008,1.38539 0.77719,2.28508 0.38015,0.43926 0.92501,0.68848 0.54486,0.25342 1.23758,0.26189 1.0475,-0.017 1.75711,-0.73494 0.70962,-0.69271 0.82788,-1.81622 h -0.38015 q -0.0676,0.88279 -0.67582,1.53744 -0.60401,0.66736 -1.52902,0.68425 -1.22068,-0.017 -1.87538,-0.86589 -0.68425,-0.82788 -0.68425,-2.04009 0,-1.22911 0.68425,-2.04856 0.6547,-0.84053 1.87538,-0.85743 0.79408,0.008 1.3854,0.43926 0.57865,0.43507 0.71804,1.22068 z"
       id="path1979"
       style="fill:#b3b3b3;stroke-width:0.21626237" />
    <path
       inkscape:connector-curvature="0"
       d="m 365.64441,325.34609 v -2.71591 h 3.54802 v -0.32946 h -3.54802 v -2.47093 h 3.77185 v -0.32946 h -4.15184 v 6.17504 h 4.19417 v -0.32947 z"
       id="path1981"
       style="fill:#b3b3b3;stroke-width:0.21626237" />
  </g>
</svg>
