<?xml version="1.0" encoding="UTF-8" standalone="no"?>
<svg
   xmlns:dc="http://purl.org/dc/elements/1.1/"
   xmlns:cc="http://creativecommons.org/ns#"
   xmlns:rdf="http://www.w3.org/1999/02/22-rdf-syntax-ns#"
   xmlns:svg="http://www.w3.org/2000/svg"
   xmlns="http://www.w3.org/2000/svg"
   xmlns:sodipodi="http://sodipodi.sourceforge.net/DTD/sodipodi-0.dtd"
   xmlns:inkscape="http://www.inkscape.org/namespaces/inkscape"
   width="1000"
   height="40.000004"
   version="1.1"
   viewBox="0 0 1000 40.000004"
   id="svg10"
   sodipodi:docname="overlay_icons.svg"
   inkscape:version="0.92.4 (5da689c313, 2019-01-14)">
  <metadata
     id="metadata16">
    <rdf:RDF>
      <cc:Work
         rdf:about="">
        <dc:format>image/svg+xml</dc:format>
        <dc:type
           rdf:resource="http://purl.org/dc/dcmitype/StillImage" />
        <dc:title />
      </cc:Work>
    </rdf:RDF>
  </metadata>
  <defs
     id="defs14">
    <linearGradient
       gradientUnits="userSpaceOnUse"
       gradientTransform="matrix(0.61251,-0.61251,0.61251,0.61251,19.69,38.618)"
       y2="4.7547998"
       y1="-2.5079999"
       x2="8.7384005"
       x1="16.000999"
       id="linearGradient845">
      <stop
         id="stop1051"
         offset="0"
         stop-color="#f00" />
      <stop
         id="stop1053"
         offset="1"
         stop-color="#700000" />
    </linearGradient>
    <linearGradient
       gradientUnits="userSpaceOnUse"
       gradientTransform="matrix(0.70198,0,0,0.70198,-0.0013956,26.005)"
       y2="15.609"
       y1="0.54417998"
       x2="40.889"
       x1="40.889"
       id="linearGradient1044">
      <stop
         id="stop1056"
         offset="0"
         stop-color="#f2e500" />
      <stop
         id="stop1058"
         offset="1"
         stop-color="#bb7000" />
    </linearGradient>
    <linearGradient
       gradientUnits="userSpaceOnUse"
       gradientTransform="matrix(5.8799917,0,0,5.8796137,-1193.7394,43.365171)"
       y2="11.949"
       y1="0.14963"
       x2="192.17"
       x1="192.17"
       id="linearGradient1577">
      <stop
         id="stop1092"
         offset="0"
         stop-color="#f2e500" />
      <stop
         id="stop1094"
         offset="1"
         stop-color="#bb7000" />
    </linearGradient>
    <linearGradient
       gradientUnits="userSpaceOnUse"
       gradientTransform="translate(-36.416,-12.117)"
       y2="53.313"
       y1="39.193001"
       x2="56.877998"
       x1="56.877998"
       id="linearGradient1662">
      <stop
         id="stop1111"
         offset="0"
         stop-color="#ebeb00" />
      <stop
         id="stop1113"
         offset="1"
         stop-color="#a40" />
    </linearGradient>
    <filter
       height="1.126"
       width="1.0296"
       y="-0.063000001"
       x="-0.014824"
       id="filter1210"
       style="color-interpolation-filters:sRGB">
      <feGaussianBlur
         id="feGaussianBlur1135"
         stdDeviation="1.3125" />
    </filter>
    <linearGradient
       gradientUnits="userSpaceOnUse"
       gradientTransform="matrix(5.8799917,0,0,5.8796137,-1202.4252,-26.120918)"
       y2="11.949"
       y1="0.14963"
       x2="192.17"
       x1="192.17"
       id="linearGradient1577-7">
      <stop
         id="stop1365"
         offset="0"
         stop-color="#f2e500" />
      <stop
         id="stop1367"
         offset="1"
         stop-color="#bb7000" />
    </linearGradient>
    <linearGradient
       id="linearGradient1577-71"
       x1="192.17"
       x2="192.17"
       y1="0.14963"
       y2="11.949"
       gradientTransform="matrix(1.5557364,0,0,1.5556364,-280.33483,17.273109)"
       gradientUnits="userSpaceOnUse">
      <stop
         stop-color="#f2e500"
         offset="0"
         id="stop3042" />
      <stop
         stop-color="#bb7000"
         offset="1"
         id="stop3044" />
    </linearGradient>
    <linearGradient
       id="linearGradient1210"
       x1="14.784"
       x2="19.547001"
       y1="4.0251002"
       y2="4.0251002"
       gradientTransform="matrix(1.9444168,0,0,1.9444168,-55.003618,-0.16052131)"
       gradientUnits="userSpaceOnUse">
      <stop
         stop-color="#800000"
         offset="0"
         id="stop2-4" />
      <stop
         stop-color="#f00"
         offset="1"
         id="stop4-1" />
    </linearGradient>
  </defs>
  <sodipodi:namedview
     pagecolor="#ffffff"
     bordercolor="#666666"
     borderopacity="1"
     objecttolerance="10"
     gridtolerance="10"
     guidetolerance="10"
     inkscape:pageopacity="0"
     inkscape:pageshadow="2"
     inkscape:window-width="2560"
     inkscape:window-height="1057"
     id="namedview12"
     showgrid="false"
     inkscape:zoom="0.70710678"
     inkscape:cx="445.04582"
     inkscape:cy="-109.4114"
     inkscape:window-x="1912"
     inkscape:window-y="-8"
     inkscape:window-maximized="1"
     inkscape:current-layer="svg10"
     inkscape:snap-page="true"
     showguides="true"
     inkscape:guide-bbox="true"
     inkscape:snap-bbox="true"
     inkscape:bbox-paths="true"
     inkscape:bbox-nodes="true"
     inkscape:snap-bbox-edge-midpoints="true"
     inkscape:snap-bbox-midpoints="true"
     inkscape:object-paths="true"
     inkscape:snap-intersection-paths="true"
     inkscape:snap-smooth-nodes="true"
     inkscape:snap-midpoints="true"
     inkscape:snap-object-midpoints="true"
     inkscape:snap-center="true"
     inkscape:snap-text-baseline="true" />
  <rect
     style="opacity:1;fill:none;fill-opacity:0.6513761;stroke:none;stroke-width:1;stroke-linecap:round;stroke-linejoin:miter;stroke-miterlimit:4;stroke-dasharray:none;stroke-dashoffset:0;stroke-opacity:1;paint-order:normal"
     id="rect846"
     width="199.99998"
     height="39.999439"
     x="-800"
     y="2.0739151e-06"
     transform="scale(-1,1)" />
  <path
     inkscape:connector-curvature="0"
     id="path2"
     d="m 187.78625,15.100002 c -1.7,-8.625 -9.275,-15.0999998210863 -18.375,-15.0999998210863 -7.225,0 -13.5,4.0999999210863 -16.625,10.0999998210863 -7.525,0.8 -13.375,7.175 -13.375,14.899999 0,8.275 6.725,15 15,15 h 32.5 c 6.9,0 12.5,-5.6 12.5,-12.5 0,-6.599999 -5.125,-11.949999 -11.625,-12.399999 z m -0.875,19.899999 h -32.5 c -5.525,0 -10,-4.475 -10,-10 0,-5.524999 4.475,-9.999999 10,-9.999999 h 1.775 c 1.65,-5.7750001 6.925,-9.9999999 13.225,-9.9999999 7.6,0 13.75,6.1499999 13.75,13.7499999 v 1.25 h 3.75 c 4.15,0 7.5,3.349999 7.5,7.499999 0,4.15 -3.35,7.5 -7.5,7.5 z"
     style="fill:#808080;stroke-width:1" />
  <path
     inkscape:connector-curvature="0"
     id="path4"
     d="m 50.588749,35.000001 c 2.75,0 4.974999,-2.25 4.974999,-5 l 0.025,-24.9999989 C 55.588748,2.2500022 53.338749,2.1789137e-6 50.588749,2.1789137e-6 H 10.58875 C 7.83875,2.1789137e-6 5.5887501,2.2500022 5.5887501,5.0000021 V 30.000001 c 0,2.75 2.2499999,5 4.9999999,5 H 0.58875027 v 5 H 60.588748 v -5 z M 10.58875,5.0000021 H 50.588749 V 30.000001 H 10.58875 Z"
     style="fill:#808080;stroke-width:1" />
  <path
     style="fill:#808080;stroke-width:0.75"
     inkscape:connector-curvature="0"
     id="path6"
     d="m 79.403747,12.500002 -7.481749,7.5 7.481749,7.499999 v -5.625 h 7.47075 v -3.749999 h -7.47075 z m 41.192503,0 v 5.625 h -7.47075 v 3.749999 h 7.47075 v 5.625 l 7.48175,-7.499999 z m -29.970003,5.625 v 3.749999 h 3.75 v -3.749999 z m 7.5,0 v 3.749999 h 3.750003 v -3.749999 z m 7.500003,0 v 3.749999 h 3.75 v -3.749999 z" />
  <rect
     style="opacity:1;fill:none;fill-opacity:0.59633029;stroke:none;stroke-width:0.99999988;stroke-linecap:round;stroke-linejoin:miter;stroke-miterlimit:4;stroke-dasharray:none;stroke-dashoffset:0;stroke-opacity:1;paint-order:normal"
     id="rect1418"
     width="199.99998"
     height="40"
     x="0"
     y="1.7205365e-06" />
  <path
     style="fill:#808080;stroke-width:1"
     inkscape:connector-curvature="0"
     d="m 377.78624,15.100003 c -1.7,-8.6249995 -9.275,-15.0999993161963 -18.375,-15.0999993161963 -7.225,0 -13.5,4.0999999161963 -16.625,10.0999993161963 -7.525,0.8 -13.375,7.175 -13.375,14.9 0,8.275 6.725,14.999999 15,14.999999 h 32.5 c 6.9,0 12.5,-5.6 12.5,-12.499999 0,-6.6 -5.125,-11.95 -11.625,-12.4 z m -0.875,19.899999 h -32.5 c -5.525,0 -10,-4.474999 -10,-9.999999 0,-5.525 4.475,-10 10,-10 h 1.775 c 1.65,-5.7749996 6.925,-9.9999994 13.225,-9.9999994 7.6,0 13.75,6.1499994 13.75,13.7499994 v 1.25 h 3.75 c 4.15,0 7.5,3.35 7.5,7.5 0,4.15 -3.35,7.499999 -7.5,7.499999 z"
     id="path1031" />
  <path
     style="fill:#808080;stroke-width:0.75"
     inkscape:connector-curvature="0"
     d="m 269.40375,12.500003 -7.48175,7.5 7.48175,7.5 v -5.625 h 7.47075 v -3.75 h -7.47075 z m 41.1925,0 v 5.625 h -7.47075 v 3.75 h 7.47075 v 5.625 l 7.48174,-7.5 z m -29.97,5.625 v 3.75 h 3.75 v -3.75 z m 7.5,0 v 3.75 h 3.75 v -3.75 z m 7.5,0 v 3.75 h 3.75 v -3.75 z"
     id="path1033" />
  <path
     style="fill:#808080;stroke-width:1"
     inkscape:connector-curvature="0"
     d="m 230.58875,4.7500036 c 2.9,0 5.25,2.3499999 5.25,5.2499994 0,2.9 -2.35,5.25 -5.25,5.25 -2.9,0 -5.25,-2.35 -5.25,-5.25 0,-2.8999995 2.35,-5.2499994 5.25,-5.2499994 m 0,22.4999994 c 7.425,0 15.25,3.65 15.25,5.25 v 2.749999 h -30.5 v -2.749999 c 0,-1.6 7.825,-5.25 15.25,-5.25 m 0,-27.2499993161962 c -5.525,0 -10,4.4749999161962 -10,9.9999993161962 0,5.525 4.475,10 10,10 5.525,0 10,-4.475 10,-10 0,-5.5249994 -4.475,-9.9999993161963 -10,-9.9999993161962 z m 0,22.4999993161962 c -6.675,0 -20,3.35 -20,10 v 7.499999 h 40 v -7.499999 c 0,-6.65 -13.325,-10 -20,-10 z"
     id="path1035" />
  <rect
     y="2.7292169e-06"
     x="200"
     height="40"
     width="199.99998"
     id="rect1420"
     style="opacity:1;fill:none;fill-opacity:0.59633029;stroke:none;stroke-width:0.99999988;stroke-linecap:round;stroke-linejoin:miter;stroke-miterlimit:4;stroke-dasharray:none;stroke-dashoffset:0;stroke-opacity:1;paint-order:normal" />
  <g
     id="g858"
     transform="matrix(1,0,0,0.99998598,-4.3844439e-6,8.2518375e-7)"
     style="stroke-width:1.00000703">
    <g
       transform="translate(265.82129,-168.18303)"
       id="g1564"
       style="stroke-width:1.00000703">
      <rect
         transform="scale(-1,1)"
         y="168.18303"
         x="-334.17871"
         height="40"
         width="199.99998"
         id="rect1535"
         style="opacity:1;fill:none;fill-opacity:0.6513761;stroke:none;stroke-width:1.00000703;stroke-linecap:round;stroke-linejoin:miter;stroke-miterlimit:4;stroke-dasharray:none;stroke-dashoffset:0;stroke-opacity:1;paint-order:normal" />
      <path
         style="opacity:1;fill:#808080;fill-opacity:1;stroke:none;stroke-width:1.00000703;stroke-linecap:round;stroke-linejoin:miter;stroke-miterlimit:4;stroke-dasharray:none;stroke-dashoffset:0;stroke-opacity:1;paint-order:normal"
         d="m 214.17969,169.74609 c -2.77001,0 -5.00196,2.23 -5.00196,5 v 28.4375 c 0,2.77 2.23195,5 5.00196,5 h 40 c 2.77,0 5,-2.23 5,-5 v -13.2832 c -1.35869,0.53511 -2.79297,0.91406 -4.33985,0.91406 -0.22282,0 -0.44009,-0.0216 -0.66015,-0.0332 v 0.83984 h -10 v -6.79492 c -1.18651,-1.91775 -1.88477,-4.16716 -1.88477,-6.57812 0,-3.27689 1.27846,-6.26001 3.34961,-8.50196 z m 3.97656,4.76563 h 1.04492 c 1.26277,0 1.99639,0.43254 2.20117,1.30273 0.007,0.034 0.0156,0.0765 0.0156,0.12696 0,0.13653 -0.0538,0.2513 -0.15625,0.32812 -0.0935,0.0765 -0.21873,0.11719 -0.38086,0.11719 -0.1535,0 -0.27601,-0.0406 -0.36133,-0.11719 -0.0765,-0.0765 -0.14684,-0.20035 -0.21484,-0.37109 -0.0595,-0.11093 -0.17501,-0.18785 -0.34571,-0.23047 -0.17075,-0.051 -0.42501,-0.082 -0.75781,-0.082 h -1.04492 c -0.37543,-0.009 -0.6682,0.0264 -0.87305,0.11133 -0.20475,0.0851 -0.35012,0.23069 -0.43554,0.43554 -0.085,0.20475 -0.12696,0.49765 -0.12696,0.87305 v 1.48437 c 0,0.3754 0.0415,0.67024 0.12696,0.875 0.085,0.20475 0.23072,0.34818 0.43554,0.4336 0.20475,0.085 0.49755,0.12304 0.87305,0.12305 h 1.04492 c 0.3328,0 0.58716,-0.021 0.75781,-0.0645 0.17075,-0.051 0.28591,-0.12736 0.34571,-0.23828 0.068,-0.17915 0.13809,-0.30287 0.21484,-0.37109 0.085,-0.0765 0.20899,-0.11717 0.37109,-0.11719 0.15376,0 0.27727,0.0406 0.3711,0.11719 0.1025,0.0765 0.15625,0.17986 0.15625,0.3164 0,0.051 -0.008,0.0991 -0.0156,0.13282 -0.20475,0.87034 -0.93832,1.29882 -2.20117,1.29882 h -1.04492 c -0.85325,0 -1.48884,-0.2019 -1.89844,-0.61132 -0.40952,-0.40961 -0.61135,-1.04128 -0.61133,-1.89454 v -1.48437 c 0,-0.85324 0.20173,-1.48495 0.61133,-1.89453 0.4096,-0.40961 1.04519,-0.60812 1.89844,-0.59961 z m 6.93359,0 h 1.99805 c 1.00682,0 1.59622,0.41884 1.77539,1.26367 0.007,0.0255 0.0117,0.0662 0.0117,0.11719 0,0.13652 -0.0503,0.24662 -0.15234,0.33203 -0.0935,0.0765 -0.22255,0.11719 -0.38477,0.11719 -0.16225,0 -0.28577,-0.0406 -0.37109,-0.11719 -0.0765,-0.085 -0.14016,-0.21023 -0.19141,-0.38086 -0.051,-0.10243 -0.12602,-0.17098 -0.22851,-0.20508 -0.1025,-0.034 -0.25404,-0.0527 -0.45899,-0.0527 h -1.99805 c -0.22175,0 -0.39102,0.019 -0.50195,0.0625 -0.111,0.034 -0.18772,0.10977 -0.23047,0.2207 -0.034,0.11092 -0.0488,0.28136 -0.0488,0.51172 0,0.30719 0.0498,0.51407 0.15235,0.625 0.1025,0.10243 0.31322,0.15625 0.6289,0.15625 h 2.05664 c 1.27985,0 1.91797,0.64 1.91797,1.91992 0,1.27985 -0.63807,1.91406 -1.91797,1.91406 h -2.0957 c -1.08362,0 -1.71538,-0.44192 -1.89453,-1.33789 -0.008,-0.0255 -0.01,-0.0662 -0.01,-0.11718 0,-0.14505 0.0425,-0.25521 0.13672,-0.33204 0.1025,-0.085 0.23422,-0.12695 0.39649,-0.12695 0.16225,0 0.28579,0.0425 0.37109,0.12695 0.085,0.0765 0.15213,0.20678 0.20313,0.39454 0.051,0.12795 0.13509,0.21119 0.24609,0.2539 0.1195,0.0425 0.3033,0.0684 0.55078,0.0684 h 2.0957 c 0.3328,0 0.55702,-0.0557 0.66797,-0.16601 0.1195,-0.11092 0.17578,-0.33645 0.17578,-0.67774 0,-0.3413 -0.0557,-0.56876 -0.17578,-0.67969 -0.111,-0.11093 -0.33509,-0.16601 -0.66797,-0.16601 h -2.05664 c -1.23715,0 -1.85937,-0.61834 -1.85937,-1.85547 0,-0.63137 0.15579,-1.09911 0.46289,-1.40625 0.3067,-0.30661 0.77518,-0.46242 1.39648,-0.46289 z m 5.83985,0 c 0.19625,0 0.3469,0.11535 0.44922,0.3457 l 1.79101,4.375 1.97266,-4.4043 c 0.111,-0.21326 0.26469,-0.3164 0.46094,-0.3164 0.068,0 0.14955,0.02 0.25195,0.0625 0.21325,0.10243 0.32422,0.24781 0.32422,0.43555 0,0.0765 -0.021,0.17228 -0.0645,0.2832 l -2.35351,5.30664 c -0.111,0.26448 -0.31667,0.39648 -0.61524,0.39648 -0.26448,0 -0.45675,-0.13452 -0.57617,-0.41601 l -2.17773,-5.30274 c -0.0425,-0.11093 -0.0645,-0.19926 -0.0645,-0.26757 0,-0.20475 0.11724,-0.35023 0.34766,-0.43555 0.1025,-0.0425 0.18548,-0.0586 0.25391,-0.0586 z m -16.75,8.98437 h 10 v 8.125 h -10 z m 15,0 h 10 v 8.125 h -10 z m -15,11.5625 h 10 v 8.125 h -10 z m 15,0 h 10 v 8.125 h -10 z m 15,0 h 10 v 8.125 h -10 z"
         id="path1537"
         inkscape:connector-curvature="0"
         sodipodi:nodetypes="sssssscsccccscscscscscccscccsscccscccccscssccscccscscscccssccscssssscscscccsscscsssccccccscsccsccscccccccccccccccccccccccccccc" />
      <path
         style="fill:#808080;fill-opacity:1;stroke:none;stroke-width:5.00003529;stroke-miterlimit:4;stroke-dasharray:none;paint-order:stroke fill markers"
         sodipodi:nodetypes="cssssccccsssss"
         inkscape:connector-curvature="0"
         id="path1541"
         d="m 263.36185,183.59503 c 0.98422,-1.56581 1.5658,-3.37767 1.5658,-5.34611 0,-5.56979 -4.49609,-10.06589 -10.06588,-10.06589 -5.5698,0 -10.0659,4.4961 -10.0659,10.06589 0,5.56979 4.4961,10.0659 10.04353,10.0659 1.96844,0 3.80267,-0.58159 5.34611,-1.5658 l 6.97902,6.97901 3.17634,-3.17635 z m -8.50008,0.24605 c -3.08689,0 -5.59217,-2.50529 -5.59217,-5.59216 0,-3.08687 2.50528,-5.59216 5.59217,-5.59216 3.08687,0 5.59215,2.50529 5.59215,5.59216 0,3.08687 -2.50528,5.59216 -5.59215,5.59216 z" />
    </g>
  </g>
  <path
     style="opacity:1;fill:#808080;fill-opacity:1;stroke:none;stroke-width:1;stroke-linecap:round;stroke-linejoin:miter;stroke-miterlimit:4;stroke-dasharray:none;stroke-dashoffset:0;stroke-opacity:1;paint-order:normal"
     d="m 715.9707,2.0622217 c -1.8732,0 -3.61046,0.5679742 -5.05078,1.5390625 -0.48058,0.3240061 -0.92562,0.6936259 -1.33398,1.1015625 -1.43152,1.430004 -2.38213,3.3384644 -2.59375,5.4648443 -0.0295,0.297052 -0.0469,0.597492 -0.0469,0.902343 v 0.0098 0.01172 c 0,0.408448 0.0377,0.807288 0.0899,1.201172 0.008,0.05475 0.0148,0.109642 0.0234,0.164062 0.59024,3.904089 3.66105,6.971149 7.55469,7.552735 0.0386,0.0058 0.0765,0.01212 0.11524,0.01758 0.4009,0.05451 0.80871,0.08984 1.2246,0.08984 h 0.01 0.008 c 0.41808,0 0.82768,-0.03521 1.23047,-0.08984 0.035,-0.0046 0.0706,-0.01017 0.10547,-0.01563 3.90446,-0.576588 6.9766,-3.636506 7.57617,-7.533203 0.009,-0.05823 0.0194,-0.11526 0.0274,-0.173828 0.0532,-0.397442 0.0898,-0.800584 0.0898,-1.212891 0,-1.8732287 -0.56674,-3.6101542 -1.53906,-5.0507817 -0.324,-0.4802092 -0.69351,-0.9297332 -1.10156,-1.3378906 -1.0199,-1.0198938 -2.28359,-1.7954046 -3.69727,-2.234375 0,0 -0.002,0 -0.002,0 -0.84908,-0.2633537 -1.75324,-0.406282 -2.68984,-0.406282 z m -36.48437,1.4023438 c -2.4843,0 -4.48633,2.0001309 -4.48633,4.484375 V 33.452847 c 0,2.484256 2.00203,4.484375 4.48633,4.484375 h 35.87305 c 2.48428,0 4.48437,-2.000119 4.48437,-4.484375 V 21.538784 c -1.21853,0.479908 -2.5033,0.820313 -3.89063,0.820313 -0.19983,0 -0.39638,-0.01895 -0.59374,-0.0293 v 0.751953 h -8.9668 V 16.988 c -1.06413,-1.71992 -1.69141,-3.736188 -1.69141,-5.898437 0,-2.9388475 1.14639,-5.6143288 3.00391,-7.6250005 z m 36.48633,1.2324218 c 3.52903,0 6.39257,2.8636364 6.39257,6.3925787 0,3.528953 -2.86354,6.392578 -6.39257,6.392578 -3.52904,0 -6.39258,-2.863625 -6.39258,-6.392578 0,-3.5289424 2.86354,-6.3925787 6.39258,-6.3925787 z m -4.06836,2.3242188 v 8.1367189 h 2.88867 V 7.0212061 Z m 5.24804,0 v 8.1367189 h 2.88868 V 7.0212061 Z m -34.09961,0.7167968 h 0.9375 c 1.13252,0 1.789,0.3875461 1.97266,1.1679688 0.007,0.030453 0.0156,0.069904 0.0156,0.1152344 0,0.1224496 -0.0487,0.2240668 -0.14063,0.2929687 -0.0838,0.068576 -0.1964,0.1054688 -0.3418,0.1054688 -0.13768,0 -0.24768,-0.036776 -0.32421,-0.1054688 -0.0686,-0.068576 -0.13238,-0.1789082 -0.19336,-0.3320312 -0.0534,-0.099494 -0.1555,-0.1688029 -0.3086,-0.2070313 -0.15313,-0.045679 -0.38121,-0.074219 -0.67969,-0.074219 h -0.9375 c -0.33671,-0.00814 -0.59948,0.023477 -0.7832,0.099609 -0.18363,0.076364 -0.31401,0.2069101 -0.39062,0.390625 -0.0762,0.183622 -0.11329,0.4465279 -0.11329,0.7832032 v 1.3320315 c 0,0.336675 0.0366,0.601511 0.11329,0.785156 0.0762,0.183622 0.20692,0.312064 0.39062,0.388672 0.18365,0.07625 0.44643,0.109375 0.7832,0.109375 h 0.9375 c 0.29848,0 0.52665,-0.0177 0.67969,-0.05664 0.15315,-0.04568 0.25497,-0.115397 0.3086,-0.214844 0.0609,-0.160666 0.12452,-0.270847 0.19336,-0.332031 0.0762,-0.06858 0.18665,-0.105469 0.33203,-0.105469 0.1379,0 0.24982,0.03678 0.33398,0.105469 0.0919,0.06858 0.14063,0.160754 0.14063,0.283203 0,0.04568 -0.01,0.08895 -0.0156,0.119141 -0.18365,0.780562 -0.84006,1.166016 -1.97266,1.166016 h -0.9375 c -0.76524,0 -1.33577,-0.181643 -1.70312,-0.548829 -0.36727,-0.36736 -0.54885,-0.933975 -0.54883,-1.699218 V 9.9743311 c 0,-0.7652197 0.18149,-1.3318817 0.54883,-1.6992188 0.36735,-0.3673486 0.93787,-0.5447457 1.70312,-0.5371094 z m 6.21875,0 h 1.79102 c 0.90298,0 1.43112,0.3751363 1.5918,1.1328126 0.007,0.022897 0.0117,0.05979 0.0117,0.1054687 0,0.1224379 -0.0452,0.2222317 -0.13672,0.2988281 -0.0838,0.068576 -0.20023,0.1035156 -0.34571,0.1035156 -0.1455,0 -0.25551,-0.034823 -0.33203,-0.1035156 -0.0686,-0.076248 -0.1259,-0.1887669 -0.17187,-0.3417968 -0.0458,-0.091823 -0.11311,-0.1549548 -0.20508,-0.1855469 -0.0919,-0.030452 -0.22831,-0.046875 -0.41211,-0.046875 h -1.79102 c -0.19888,0 -0.3517,0.017704 -0.45117,0.056641 -0.0995,0.030453 -0.1687,0.097772 -0.20703,0.1972656 -0.0306,0.099494 -0.043,0.2523834 -0.043,0.4589844 0,0.2755027 0.0449,0.461053 0.13672,0.5605469 0.0919,0.091821 0.28134,0.1406245 0.56445,0.1406245 h 1.84375 c 1.14781,0 1.72071,0.57477 1.72071,1.722657 0,1.147818 -0.57284,1.716796 -1.72071,1.716797 h -1.8789 c -0.97185,0 -1.53854,-0.397631 -1.69922,-1.201172 -0.008,-0.0229 -0.01,-0.05979 -0.01,-0.105469 0,-0.130086 0.0385,-0.227973 0.12305,-0.296875 0.0919,-0.07625 0.20994,-0.113281 0.35547,-0.113281 0.14551,0 0.25551,0.03749 0.33203,0.113281 0.0762,0.06858 0.13785,0.185132 0.18359,0.353516 0.0458,0.11472 0.12116,0.190217 0.22071,0.228515 0.10716,0.03812 0.27217,0.06055 0.49414,0.06055 h 1.8789 c 0.29848,0 0.50012,-0.04953 0.59961,-0.148438 0.10717,-0.09949 0.15625,-0.301338 0.15625,-0.607421 0,-0.306084 -0.0485,-0.509893 -0.15625,-0.609375 -0.0995,-0.09949 -0.30107,-0.150391 -0.59961,-0.150391 h -1.84375 c -1.10955,0 -1.66796,-0.554554 -1.66796,-1.6640624 0,-0.5662435 0.13865,-0.9843093 0.41406,-1.2597656 0.27505,-0.2749797 0.69668,-0.4155856 1.2539,-0.4160157 z m 5.23633,0 c 0.17602,0 0.31255,0.1039576 0.4043,0.3105469 l 1.60547,3.9238282 1.76953,-3.9511719 c 0.0995,-0.1912584 0.23612,-0.2832032 0.41211,-0.2832032 0.061,0 0.13473,0.018518 0.22656,0.056641 0.19125,0.091823 0.29102,0.2222524 0.29102,0.390625 0,0.068576 -0.0195,0.1544239 -0.0586,0.2539062 l -2.10937,4.7597659 c -0.0995,0.237193 -0.28495,0.355468 -0.55274,0.355469 -0.23719,0 -0.40852,-0.120593 -0.51562,-0.373047 l -1.95313,-4.7558598 c -0.0381,-0.099494 -0.0586,-0.1789689 -0.0586,-0.2402343 0,-0.1836221 0.1059,-0.31411 0.3125,-0.390625 0.0919,-0.038124 0.16517,-0.052734 0.22656,-0.052734 z m -15.02148,8.0585941 h 8.96875 v 7.285156 h -8.96875 z m 13.45312,0 h 8.96875 v 7.285156 h -8.96875 z m -13.45312,10.369141 h 8.96875 v 7.287109 h -8.96875 z m 13.45312,0 h 8.96875 v 7.287109 h -8.96875 z m 13.45313,0 h 8.9668 v 7.287109 h -8.9668 z"
     id="path954"
     inkscape:connector-curvature="0" />
  <rect
     transform="scale(-1,1)"
     y="3.9615024e-06"
     x="-1000"
     height="40"
     width="199.99998"
     id="rect849"
     style="opacity:1;fill:none;fill-opacity:0.6513761;stroke:none;stroke-width:0.99999994;stroke-linecap:round;stroke-linejoin:miter;stroke-miterlimit:4;stroke-dasharray:none;stroke-dashoffset:0;stroke-opacity:1;paint-order:normal" />
  <path
     inkscape:connector-curvature="0"
     d="m 916.00001,4.1052837e-6 h -32 c -2.2,0 -3.98,1.7999999947163 -3.98,3.9999999947163 l -0.02,35.9999999 8,-8 h 28 c 2.2,0 4,-1.8 4,-4 V 4.0000041 c 0,-2.2 -1.8,-3.9999999947163 -4,-3.9999999947163 z M 902.00001,24.000004 h -4 v -4 h 4 z m 0,-8 h -4 V 8.0000041 h 4 z"
     id="path867"
     style="fill:#808080;fill-opacity:1;stroke-width:1" />
</svg>
