<?xml version="1.0" encoding="UTF-8" standalone="no"?>
<svg
   xmlns:dc="http://purl.org/dc/elements/1.1/"
   xmlns:cc="http://creativecommons.org/ns#"
   xmlns:rdf="http://www.w3.org/1999/02/22-rdf-syntax-ns#"
   xmlns:svg="http://www.w3.org/2000/svg"
   xmlns="http://www.w3.org/2000/svg"
   xmlns:xlink="http://www.w3.org/1999/xlink"
   xmlns:sodipodi="http://sodipodi.sourceforge.net/DTD/sodipodi-0.dtd"
   xmlns:inkscape="http://www.inkscape.org/namespaces/inkscape"
   width="35.000095"
   height="20"
   version="1.1"
   viewBox="0 0 9.2606663 5.2918333"
   id="svg10"
   sodipodi:docname="title_bar_icons.svg"
   inkscape:version="0.92.4 (5da689c313, 2019-01-14)">
  <metadata
     id="metadata16">
    <rdf:RDF>
      <cc:Work
         rdf:about="">
        <dc:format>image/svg+xml</dc:format>
        <dc:type
           rdf:resource="http://purl.org/dc/dcmitype/StillImage" />
      </cc:Work>
    </rdf:RDF>
  </metadata>
  <defs
     id="defs14">
    <filter
       style="color-interpolation-filters:sRGB"
       height="1.126"
       width="1.0296"
       y="-0.063000001"
       x="-0.014824"
       id="filter1210">
      <feGaussianBlur
         id="feGaussianBlur2"
         stdDeviation="1.3125" />
    </filter>
    <linearGradient
       gradientUnits="userSpaceOnUse"
       y2="122.9"
       y1="109.23"
       x2="252.92"
       x1="252.92"
       id="linearGradient1003">
      <stop
         id="stop5"
         offset="0" />
      <stop
         id="stop7"
         offset="1"
         stop-opacity=".21106" />
    </linearGradient>
    <filter
       style="color-interpolation-filters:sRGB"
       height="1.0517"
       width="1.0285"
       y="-0.025830001"
       x="-0.014226"
       id="filter993">
      <feGaussianBlur
         id="feGaussianBlur10"
         stdDeviation="0.77028029" />
    </filter>
    <linearGradient
       gradientUnits="userSpaceOnUse"
       gradientTransform="matrix(0.674,0,0,0.674,-118.28,26.743)"
       y2="19.9"
       y1="106.79"
       x2="193.53999"
       x1="314.89999"
       id="linearGradient1675">
      <stop
         id="stop13"
         offset="0"
         stop-color="#666" />
      <stop
         id="stop15"
         offset="1"
         stop-color="#4d4d4d" />
    </linearGradient>
    <linearGradient
       gradientUnits="userSpaceOnUse"
       gradientTransform="matrix(0.39062,0,0,0.65101,-5.3002e-6,1.3669e-4)"
       y2="96.139999"
       y1="219.78"
       x2="18.521"
       x1="18.521"
       id="linearGradient2408">
      <stop
         id="stop19"
         offset="0" />
      <stop
         id="stop21"
         offset="1"
         stop-color="#4d4d4d" />
    </linearGradient>
    <linearGradient
       gradientUnits="userSpaceOnUse"
       gradientTransform="matrix(0.20833,0,0,0.54553,-9.4751e-6,-16.425)"
       y2="148.13"
       y1="57.037998"
       x2="254"
       x1="254"
       id="linearGradient947">
      <stop
         id="stop24"
         offset="0" />
      <stop
         id="stop26"
         offset="1"
         stop-opacity="0" />
    </linearGradient>
    <linearGradient
       xlink:href="#linearGradient940"
       gradientUnits="userSpaceOnUse"
       gradientTransform="matrix(-0.26458,0,0,0.13229,105.83,-2.3812)"
       y2="-0.74366999"
       y1="20.024"
       x2="-5.4805002"
       x1="408.14999"
       id="linearGradient1108" />
    <linearGradient
       id="linearGradient940">
      <stop
         id="stop10"
         offset="0"
         stop-opacity=".17677"
         stop-color="#fff" />
      <stop
         id="stop12"
         offset="1"
         stop-opacity=".0050505"
         stop-color="#fff" />
    </linearGradient>
    <linearGradient
       xlink:href="#linearGradient940"
       gradientUnits="userSpaceOnUse"
       gradientTransform="matrix(0,-0.033073,-0.13229,0,2.6458,13.494)"
       y2="-0.74366999"
       y1="20.024"
       x2="-5.4805002"
       x1="408.14999"
       id="linearGradient1136" />
    <linearGradient
       xlink:href="#linearGradient940"
       gradientUnits="userSpaceOnUse"
       gradientTransform="matrix(0.26458,0,0,-0.13229,-1.6004e-5,134.67)"
       y2="-0.74366999"
       y1="20.024"
       x2="-5.4805002"
       x1="408.14999"
       id="linearGradient1142" />
    <linearGradient
       xlink:href="#linearGradient940"
       gradientUnits="userSpaceOnUse"
       gradientTransform="matrix(0,0.033073,0.13229,0,103.19,118.8)"
       y2="-0.74366999"
       y1="20.024"
       x2="-5.4805002"
       x1="408.14999"
       id="linearGradient1144" />
    <linearGradient
       xlink:href="#linearGradient940"
       gradientUnits="userSpaceOnUse"
       gradientTransform="matrix(0.26458,0,0,0.13229,3.5417e-7,3.7042)"
       y2="-0.74366999"
       y1="20.024"
       x2="-5.4805002"
       x1="408.14999"
       id="linearGradient942-3" />
    <linearGradient
       xlink:href="#linearGradient1043"
       gradientUnits="userSpaceOnUse"
       gradientTransform="matrix(1,0,0,1.25,-177.61,-82.391)"
       y2="66.342003"
       y1="70.780998"
       x2="273.81"
       x1="273.78"
       id="linearGradient1107" />
    <linearGradient
       id="linearGradient1043">
      <stop
         id="stop3"
         offset="0"
         stop-color="#292929" />
      <stop
         id="stop5-4"
         offset="1"
         stop-opacity="0"
         stop-color="#292929" />
    </linearGradient>
    <linearGradient
       xlink:href="#linearGradient1043"
       gradientUnits="userSpaceOnUse"
       gradientTransform="matrix(1,0,0,1.25,-170.73,-82.391)"
       y2="66.342003"
       y1="70.780998"
       x2="273.81"
       x1="273.78"
       id="linearGradient1109" />
    <filter
       height="1.126"
       width="1.0296"
       y="-0.063000001"
       x="-0.014824"
       id="filter1210-3"
       style="color-interpolation-filters:sRGB">
      <feGaussianBlur
         id="feGaussianBlur2-7"
         stdDeviation="1.3125" />
    </filter>
    <filter
       id="filter993-1"
       x="-0.014226"
       y="-0.025830001"
       width="1.0285"
       height="1.0517"
       style="color-interpolation-filters:sRGB">
      <feGaussianBlur
         stdDeviation="0.77028029"
         id="feGaussianBlur10-5" />
    </filter>
    <linearGradient
       id="linearGradient1675-4"
       x1="314.89999"
       x2="193.53999"
       y1="106.79"
       y2="19.9"
       gradientTransform="matrix(-0.67399999,0,0,-0.67399999,446.04579,109.50855)"
       gradientUnits="userSpaceOnUse">
      <stop
         stop-color="#666"
         offset="0"
         id="stop13-8" />
      <stop
         stop-color="#4d4d4d"
         offset="1"
         id="stop15-7" />
    </linearGradient>
  </defs>
  <sodipodi:namedview
     pagecolor="#ffffff"
     bordercolor="#666666"
     borderopacity="1"
     objecttolerance="10"
     gridtolerance="10"
     guidetolerance="10"
     inkscape:pageopacity="0"
     inkscape:pageshadow="2"
     inkscape:window-width="2560"
     inkscape:window-height="1057"
     id="namedview12"
     showgrid="false"
     inkscape:zoom="21.249465"
     inkscape:cx="9.676636"
     inkscape:cy="6.6868507"
     inkscape:window-x="1912"
     inkscape:window-y="-8"
     inkscape:window-maximized="1"
     inkscape:current-layer="svg10" />
  <g
     id="g825"
     transform="matrix(0.83333331,0,0,0.83333331,0.6615292,0)"
     style="stroke-width:1.20000005">
    <rect
       id="rect8"
       style="fill:none;fill-opacity:0.69266058;stroke-width:1.44000006;paint-order:stroke fill markers"
       height="6.3502002"
       width="6.3502002"
       x="3.9688001"
       y="0" />
    <path
       id="path6"
       d="m 7.1439001,0.1587551 c -1.6650266,0 -3.016345,1.3513184 -3.016345,3.016345 0,1.6650266 1.3513184,3.016345 3.016345,3.016345 1.6650265,0 3.0163449,-1.3513184 3.0163449,-3.016345 0,-1.6650266 -1.3513184,-3.016345 -3.0163449,-3.016345 z M 7.4455345,4.6833244 H 6.8422552 V 4.0800451 h 0.6032793 z m 0,-1.206538 H 6.8422552 v -1.809807 h 0.6032793 z"
       inkscape:connector-curvature="0"
       style="fill:#960000;stroke-width:0.34926" />
  </g>
  <g
     id="g1227"
     transform="matrix(0.31379003,0,0,0.31379003,31.659158,11.982574)">
    <path
       id="path927"
       d="m -89.08771,-31.861054 a 1.8916576,1.8916576 0 0 0 -1.298199,-1.797667 v -0.0021 a 1.6849156,1.6849156 0 0 0 -1.230754,-2.83664 1.651407,1.651407 0 0 0 -0.638561,0.126446 1.4474047,1.4474046 0 0 0 -0.0085,-0.343517 1.4752232,1.4752232 0 0 0 -2.303458,-0.992611 1.4640536,1.4640536 0 0 0 -1.003155,-0.257114 1.4817563,1.4817563 0 0 0 -1.304518,1.285552 1.3698501,1.3698501 0 0 0 -0.0042,0.30769 1.651407,1.651407 0 0 0 -0.638561,-0.126446 1.6849156,1.6849156 0 0 0 -1.230754,2.83664 v 0.0021 a 1.8922898,1.8922898 0 0 0 -0.581658,3.279213 1.0556276,1.0556275 0 0 0 0.969432,1.4689 0.99303597,0.99303595 0 0 0 0.210745,-0.02111 1.264477,1.264477 0 0 0 1.947295,1.085341 1.650564,1.650564 0 0 0 -0.05061,0.410955 1.6859695,1.6859695 0 0 0 3.371939,0 1.650564,1.650564 0 0 0 -0.05054,-0.410955 1.264477,1.264477 0 0 0 1.947295,-1.085341 0.99303597,0.99303595 0 0 0 0.210745,0.02111 1.0556276,1.0556275 0 0 0 0.969432,-1.4689 1.883017,1.883017 0 0 0 0.716541,-1.481546 z"
       inkscape:connector-curvature="0"
       style="fill:#9bc9ff;stroke-width:0.21074617" />
    <path
       inkscape:connector-curvature="0"
       d="m -94.567112,-36.918961 a 0.21074617,0.21074617 0 0 0 -0.210745,0.210745 v 9.062083 a 0.21074617,0.21074617 0 0 0 0.42149,0 v -9.062083 a 0.21074617,0.21074617 0 0 0 -0.210745,-0.210745 z"
       id="path929"
       style="fill:#1e81ce;stroke-width:0.21074617" />
    <path
       inkscape:connector-curvature="0"
       d="m -95.620843,-32.493295 a 0.21074617,0.21074617 0 0 0 -0.210745,0.210745 v 0.210751 a 0.21074617,0.21074617 0 0 0 0.42149,0 v -0.210751 a 0.21074617,0.21074617 0 0 0 -0.210745,-0.210745 z"
       id="path931"
       style="fill:#1e81ce;stroke-width:0.21074617" />
    <path
       inkscape:connector-curvature="0"
       d="m -93.934877,-34.600756 v 0.210745 a 0.21074837,0.21074837 0 0 0 0.421496,0 v -0.210745 a 0.21074837,0.21074837 0 0 0 -0.421496,0 z"
       id="path933"
       style="fill:#1e81ce;stroke-width:0.21074617" />
    <path
       inkscape:connector-curvature="0"
       d="m -98.149796,-33.125529 a 0.84298467,0.84298466 0 0 0 -0.842986,0.842979 0.21074617,0.21074617 0 0 0 0.421489,0 0.42149233,0.42149233 0 1 1 0.421497,0.421496 0.21074617,0.21074617 0 0 0 0,0.421489 0.84298467,0.84298466 0 0 0 0,-1.685964 z"
       id="path935"
       style="fill:#1e81ce;stroke-width:0.21074617" />
    <path
       inkscape:connector-curvature="0"
       d="m -91.616663,-30.807324 a 0.21074816,0.21074816 0 0 0 0,-0.421496 0.42149233,0.42149233 0 0 1 0,-0.842979 0.21074816,0.21074816 0 0 0 0,-0.421496 0.84298565,0.84298564 0 0 0 0,1.685971 z"
       id="path937"
       style="fill:#1e81ce;stroke-width:0.21074617" />
    <path
       inkscape:connector-curvature="0"
       d="m -93.513381,-30.385834 h -0.210745 a 0.21074816,0.21074816 0 0 0 0,0.421496 h 0.210745 a 0.21074816,0.21074816 0 0 0 0,-0.421496 z"
       id="path939"
       style="fill:#1e81ce;stroke-width:0.21074617" />
    <path
       inkscape:connector-curvature="0"
       d="m -92.76418,-32.528702 a 0.2107724,0.2107724 0 1 0 -0.233925,-0.350675 l -0.06914,0.04614 a 1.4718512,1.4718512 0 0 0 -0.656891,1.22739 v 0.166277 a 0.21074617,0.21074617 0 0 0 0.42149,0 v -0.166277 a 1.0512019,1.0512019 0 0 1 0.469333,-0.876708 z"
       id="path941"
       style="fill:#1e81ce;stroke-width:0.21074617" />
    <path
       inkscape:connector-curvature="0"
       d="m -93.513381,-36.497472 a 0.21074617,0.21074617 0 0 0 0.42149,0 0.84298467,0.84298466 0 0 0 -0.842986,-0.842985 0.21074816,0.21074816 0 0 0 0,0.421496 0.42149233,0.42149233 0 0 1 0.421496,0.421489 z"
       id="path943"
       style="fill:#1e81ce;stroke-width:0.21074617" />
    <path
       inkscape:connector-curvature="0"
       d="m -96.88532,-29.121352 a 0.2107485,0.2107485 0 0 0 0,-0.421497 0.63223854,0.63223853 0 0 0 0,1.264475 0.21074617,0.21074617 0 0 0 0,-0.421489 0.21074617,0.21074617 0 0 1 0,-0.421489 z"
       id="path945"
       style="fill:#1e81ce;stroke-width:0.21074617" />
    <path
       inkscape:connector-curvature="0"
       d="m -89.08771,-27.224636 a 0.84298467,0.84298466 0 0 0 -0.81306,0.632233 h -1.926645 v -0.904306 a 1.4735372,1.4735372 0 0 0 1.038136,-1.203154 h 0.01559 a 1.2615266,1.2615266 0 0 0 1.213899,-1.615157 2.0796432,2.0796432 0 0 0 0.682819,-1.546034 2.1074617,2.1074617 0 0 0 -1.172383,-1.885755 1.8948188,1.8948188 0 0 0 0.31654,-0.853947 h 0.645098 a 0.21074617,0.21074617 0 0 0 0.210745,-0.210744 v -1.715898 a 0.84298467,0.84298466 0 1 0 -0.42149,0 v 1.505153 h -0.433933 a 1.8889179,1.8889179 0 0 0 -2.318208,-1.634129 c -0.0028,-0.02929 -0.0014,-0.05816 -0.0056,-0.08746 a 1.6935562,1.6935562 0 0 0 -1.486819,-1.430333 1.6710064,1.6710064 0 0 0 -1.024434,0.217064 1.6714278,1.6714278 0 0 0 -1.02507,-0.217064 1.6882875,1.6882875 0 0 0 -1.491872,1.470375 c -0.0021,0.01559 -0.0021,0.03097 -0.0035,0.04656 a 1.8777484,1.8777484 0 0 0 -0.429928,-0.05103 v -0.632241 a 0.21074617,0.21074617 0 0 0 -0.210745,-0.210745 h -1.505148 a 0.84298467,0.84298466 0 1 0 0,0.421497 h 1.294403 v 0.470381 a 1.8922898,1.8922898 0 0 0 -1.145825,2.912515 2.1074617,2.1074617 0 0 0 -1.17238,1.885755 2.0813292,2.0813292 0 0 0 0.682816,1.546244 1.2589976,1.2589976 0 0 0 -0.05061,0.350472 h -0.421486 a 0.21074617,0.21074617 0 0 0 -0.21075,0.210745 v 2.558883 a 0.84298467,0.84298466 0 1 0 0.421492,0 v -2.348139 h 0.284509 a 1.264477,1.264477 0 0 0 1.190719,0.842986 c 0.0056,0 0.01035,-0.0014 0.01601,-0.0014 a 1.472905,1.472905 0 0 0 1.884491,1.202727 c 0,0.02111 -0.0035,0.04215 -0.0035,0.0632 a 1.896718,1.896718 0 0 0 3.793436,0 c 0,-0.02104 -0.0028,-0.04215 -0.0035,-0.0632 a 1.4691116,1.4691115 0 0 0 0.425075,0.0632 v 1.053723 a 0.21074617,0.21074617 0 0 0 0.210745,0.210752 h 2.13739 a 0.84150945,0.84150944 0 1 0 0.81306,-1.05373 z m -0.421497,-10.115821 a 0.42149233,0.42149233 0 1 1 0.421497,0.421496 0.42149233,0.42149233 0 0 1 -0.421497,-0.421496 z m -10.537303,0.421496 a 0.42149233,0.42149233 0 1 1 0.421486,-0.421496 0.42149233,0.42149233 0 0 1 -0.421486,0.421496 z m 0.421486,10.537303 a 0.42149233,0.42149233 0 1 1 -0.421486,-0.421489 0.42149233,0.42149233 0 0 1 0.421486,0.421489 z m 6.828177,-1.629278 a 0.2172793,0.2172793 0 0 0 -0.02104,-0.01517 1.0396108,1.0396108 0 0 1 -0.474185,-0.745831 0.94224608,0.94224612 0 0 1 -0.01056,-0.138672 0.21074617,0.21074617 0 0 0 -0.42149,0 1.3416101,1.3416101 0 0 0 0.01412,0.197687 1.4541486,1.4541485 0 0 0 0.586712,0.986075 1.4440327,1.4440327 0 0 1 0.03139,0.291465 1.4752232,1.4752232 0 0 1 -2.950442,0 1.4541486,1.4541485 0 0 1 0.03097,-0.289563 1.472062,1.472062 0 0 0 0.60126,-1.185664 0.21074617,0.21074617 0 0 0 -0.42149,0 1.053858,1.053858 0 1 1 -2.107463,-0.03265 1.0897684,1.0897684 0 0 1 1.106629,-1.021063 h 0.368592 a 1.0549953,1.0549953 0 0 0 1.053732,-1.05373 v -0.210745 a 0.21074617,0.21074617 0 0 0 -0.42149,0 v 0.210745 a 0.6322385,0.6322385 0 0 1 -0.632242,0.632241 h -0.368592 a 1.5230626,1.5230625 0 0 0 -1.511264,1.26279 c -0.0063,0 -0.01077,0.0014 -0.01685,0.0014 a 0.84024499,0.84024499 0 0 1 -0.72581,-0.421496 h 0.304314 a 0.21074617,0.21074617 0 0 0 0,-0.42149 h -0.42149 a 0.84298467,0.84298466 0 0 1 0.842986,-0.842985 0.21074641,0.21074641 0 0 0 0,-0.42149 1.2625803,1.2625803 0 0 0 -1.018114,0.517589 1.6648947,1.6648947 0 0 1 -0.457114,-1.14983 1.687866,1.687866 0 0 1 1.157423,-1.59977 c 0.0035,-0.0014 0.007,-0.0021 0.01014,-0.0035 a 1.6817544,1.6817544 0 0 1 1.66742,0.369857 0.21074617,0.21074617 0 1 0 0.28725,-0.308319 2.0899697,2.0899697 0 0 0 -1.963101,-0.496309 1.4737479,1.4737479 0 0 1 0.737611,-2.324112 v 1.412004 a 0.21074617,0.21074617 0 0 0 0.42149,0 v -1.475227 a 1.4484584,1.4484584 0 0 1 0.447837,0.07061 1.6914488,1.6914487 0 0 0 1.031389,1.28344 0.63561044,0.63561043 0 0 1 0.417492,0.578078 v 0.386089 a 0.21074617,0.21074617 0 0 0 0.421489,0 v -0.386089 a 1.0537308,1.0537308 0 0 0 -0.681762,-0.969431 1.264477,1.264477 0 0 1 0.332555,-2.430956 1.2539397,1.2539397 0 0 1 0.860903,0.22065 0.21074617,0.21074617 0 0 0 0.241091,0 1.264477,1.264477 0 1 1 1.264477,2.179534 0.21087476,0.21087476 0 0 0 0.181244,0.380818 1.6813329,1.6813329 0 0 0 0.938031,-1.243398 1.4474047,1.4474046 0 0 1 0.446152,-0.06935 1.4752232,1.4752232 0 0 1 1.45836,1.264475 h -1.45836 a 0.21074617,0.21074617 0 0 0 0,0.421489 h 1.45857 a 1.4769091,1.4769091 0 0 1 -0.29947,0.701364 2.0899697,2.0899697 0 0 0 -1.96268,0.496309 0.21074617,0.21074617 0 1 0 0.287249,0.308319 1.6817544,1.6817544 0 0 1 1.66742,-0.369857 c 0.0035,0.0014 0.007,0.0028 0.01035,0.0035 a 1.6880768,1.6880768 0 0 1 1.156787,1.59977 1.6648947,1.6648947 0 0 1 -0.457324,1.149837 1.261948,1.261948 0 0 0 -1.017904,-0.517596 0.2107485,0.2107485 0 0 0 0,0.421497 0.84298467,0.84298466 0 0 1 0,1.685964 c -0.0056,0 -0.01035,-0.0014 -0.01622,-0.0014 a 1.5241163,1.5241163 0 0 0 -1.511684,-1.26279 h -0.368802 a 0.21074816,0.21074816 0 0 0 0,0.421496 h 0.368802 a 1.0901899,1.0901899 0 0 1 1.106419,1.021902 v 0.0049 c 0,0 0,0.0035 0,0.0056 v 0.0014 a 1.0495159,1.0495159 0 0 1 -0.632242,0.985454 v -0.754681 a 0.21074617,0.21074617 0 0 0 -0.421489,0 v 0.842985 a 1.0467762,1.0467762 0 0 1 -0.547943,-0.154058 z m 3.709137,2.050774 a 0.42149233,0.42149233 0 1 1 0.421489,-0.421489 0.42149233,0.42149233 0 0 1 -0.421489,0.421489 z"
       id="path947"
       style="fill:#1e81ce;stroke-width:0.21074617" />
    <path
       inkscape:connector-curvature="0"
       d="m -95.410098,-36.075975 a 0.42149233,0.42149233 0 0 1 -0.42149,-0.421497 0.2107485,0.2107485 0 0 0 -0.421497,0 0.84298467,0.84298466 0 0 0 0.842987,0.842986 0.21074617,0.21074617 0 0 0 0,-0.421489 z"
       id="path949"
       style="fill:#1e81ce;stroke-width:0.21074617" />
    <path
       inkscape:connector-curvature="0"
       d="m -90.773683,-32.493295 a 0.42149233,0.42149233 0 0 1 0.421496,0.421496 0.21074617,0.21074617 0 0 0 0.42149,0 0.84298467,0.84298466 0 0 0 -0.842986,-0.842985 0.21074617,0.21074617 0 0 0 0,0.421489 z"
       id="path951"
       style="fill:#1e81ce;stroke-width:0.21074617" />
    <path
       inkscape:connector-curvature="0"
       d="m -94.567112,-27.013892 a 0.21074617,0.21074617 0 0 0 -0.210745,0.210745 v 0.210744 a 0.21074617,0.21074617 0 0 0 0.42149,0 v -0.210744 a 0.21074617,0.21074617 0 0 0 -0.210745,-0.210745 z"
       id="path953"
       style="fill:#1e81ce;stroke-width:0.21074617" />
  </g>
</svg>
