<svg width="850" height="436.91" version="1.1" viewBox="0 0 850 436.91" xml:space="preserve" xmlns="http://www.w3.org/2000/svg"><defs><radialGradient id="radialGradient122-1" cx="0" cy="0" r="1" gradientTransform="matrix(332.91 0 0 -148.9 375 303.31)" gradientUnits="userSpaceOnUse"><stop stop-color="#3579a8" stop-opacity=".86275" offset="0"/><stop stop-color="#1f6299" stop-opacity=".86275" offset="1"/></radialGradient><clipPath id="clipPath132"><path d="m0 500h750v-500h-750z"/></clipPath><clipPath id="clipPath140-1"><path d="m52.819 465.73h644.36v-401.96h-644.36z"/></clipPath><clipPath id="clipPath546"><path d="m102.53 454.32h541.33v-305.49h-541.33z"/></clipPath><clipPath id="clipPath1568-3"><path d="m52.551 465.92h644.82v-402.42h-644.82z"/></clipPath></defs><g transform="matrix(.94886 0 0 .94886 2.8694e-7 3.9227e-6)"><g transform="matrix(1.3333 0 0 -1.3333 -52.096 634.64)"><path d="m710.93 130.63h-671.86v345.34h671.86z" fill="url(#radialGradient122-1)"/></g><g transform="matrix(1.3333 0 0 -1.3333 -52.096 634.64)"><g clip-path="url(#clipPath132)"><g clip-path="url(#clipPath140-1)" opacity=".35001"><path d="m53.083 465.47h643.83v-324.93h-643.83z" fill="none" stroke="#fff" stroke-miterlimit="10" stroke-width=".527"/><g transform="translate(53.082 140.5)"><path d="m0 0h643.83" fill="none" stroke="#fff" stroke-miterlimit="10" stroke-width=".527"/></g><g transform="translate(53.082 159.61)"><path d="m0 0h643.83" fill="none" stroke="#fff" stroke-miterlimit="10" stroke-width=".527"/></g><g transform="translate(53.082 178.73)"><path d="m0 0h643.83" fill="none" stroke="#fff" stroke-miterlimit="10" stroke-width=".527"/></g><g transform="translate(53.082 197.85)"><path d="m0 0h643.83" fill="none" stroke="#fff" stroke-miterlimit="10" stroke-width=".527"/></g><g transform="translate(53.082 216.96)"><path d="m0 0h643.83" fill="none" stroke="#fff" stroke-miterlimit="10" stroke-width=".527"/></g><g transform="translate(53.082 236.08)"><path d="m0 0h643.83" fill="none" stroke="#fff" stroke-miterlimit="10" stroke-width=".527"/></g><g transform="translate(53.082 255.19)"><path d="m0 0h643.83" fill="none" stroke="#fff" stroke-miterlimit="10" stroke-width=".527"/></g><g transform="translate(53.082 274.31)"><path d="m0 0h643.83" fill="none" stroke="#fff" stroke-miterlimit="10" stroke-width=".527"/></g><g transform="translate(53.082 293.43)"><path d="m0 0h643.83" fill="none" stroke="#fff" stroke-miterlimit="10" stroke-width=".527"/></g><g transform="translate(53.082 312.54)"><path d="m0 0h643.83" fill="none" stroke="#fff" stroke-miterlimit="10" stroke-width=".527"/></g><g transform="translate(53.082 331.66)"><path d="m0 0h643.83" fill="none" stroke="#fff" stroke-miterlimit="10" stroke-width=".527"/></g><g transform="translate(53.082 350.77)"><path d="m0 0h643.83" fill="none" stroke="#fff" stroke-miterlimit="10" stroke-width=".527"/></g><g transform="translate(53.082 369.89)"><path d="m0 0h643.83" fill="none" stroke="#fff" stroke-miterlimit="10" stroke-width=".527"/></g><g transform="translate(53.082 389)"><path d="m0 0h643.83" fill="none" stroke="#fff" stroke-miterlimit="10" stroke-width=".527"/></g><g transform="translate(53.082 408.12)"><path d="m0 0h643.83" fill="none" stroke="#fff" stroke-miterlimit="10" stroke-width=".527"/></g><g transform="translate(53.082 427.24)"><path d="m0 0h643.83" fill="none" stroke="#fff" stroke-miterlimit="10" stroke-width=".527"/></g><g transform="translate(53.082 446.35)"><path d="m0 0h643.83" fill="none" stroke="#fff" stroke-miterlimit="10" stroke-width=".527"/></g><g transform="translate(679.03 465.47)"><path d="m0 0v-324.93" fill="none" stroke="#fff" stroke-miterlimit="10" stroke-width=".527"/></g><g transform="translate(661.15 465.47)"><path d="m0 0v-324.93" fill="none" stroke="#fff" stroke-miterlimit="10" stroke-width=".527"/></g><g transform="translate(643.26 465.47)"><path d="m0 0v-324.93" fill="none" stroke="#fff" stroke-miterlimit="10" stroke-width=".527"/></g><g transform="translate(625.38 465.47)"><path d="m0 0v-324.93" fill="none" stroke="#fff" stroke-miterlimit="10" stroke-width=".527"/></g><g transform="translate(607.5 465.47)"><path d="m0 0v-324.93" fill="none" stroke="#fff" stroke-miterlimit="10" stroke-width=".527"/></g><g transform="translate(589.61 465.47)"><path d="m0 0v-324.93" fill="none" stroke="#fff" stroke-miterlimit="10" stroke-width=".527"/></g><g transform="translate(571.73 465.47)"><path d="m0 0v-324.93" fill="none" stroke="#fff" stroke-miterlimit="10" stroke-width=".527"/></g><g transform="translate(553.84 465.47)"><path d="m0 0v-324.93" fill="none" stroke="#fff" stroke-miterlimit="10" stroke-width=".527"/></g><g transform="translate(535.96 465.47)"><path d="m0 0v-324.93" fill="none" stroke="#fff" stroke-miterlimit="10" stroke-width=".527"/></g><g transform="translate(518.07 465.47)"><path d="m0 0v-324.93" fill="none" stroke="#fff" stroke-miterlimit="10" stroke-width=".527"/></g><g transform="translate(500.19 465.47)"><path d="m0 0v-324.93" fill="none" stroke="#fff" stroke-miterlimit="10" stroke-width=".527"/></g><g transform="translate(482.31 465.47)"><path d="m0 0v-324.93" fill="none" stroke="#fff" stroke-miterlimit="10" stroke-width=".527"/></g><g transform="translate(464.42 465.47)"><path d="m0 0v-324.93" fill="none" stroke="#fff" stroke-miterlimit="10" stroke-width=".527"/></g><g transform="translate(446.54 465.47)"><path d="m0 0v-324.93" fill="none" stroke="#fff" stroke-miterlimit="10" stroke-width=".527"/></g><g transform="translate(428.65 465.47)"><path d="m0 0v-324.93" fill="none" stroke="#fff" stroke-miterlimit="10" stroke-width=".527"/></g><g transform="translate(410.77 465.47)"><path d="m0 0v-324.93" fill="none" stroke="#fff" stroke-miterlimit="10" stroke-width=".527"/></g><g transform="translate(392.88 465.47)"><path d="m0 0v-324.93" fill="none" stroke="#fff" stroke-miterlimit="10" stroke-width=".527"/></g><g transform="translate(375 465.47)"><path d="m0 0v-324.93" fill="none" stroke="#fff" stroke-miterlimit="10" stroke-width=".527"/></g><g transform="translate(357.12 465.47)"><path d="m0 0v-324.93" fill="none" stroke="#fff" stroke-miterlimit="10" stroke-width=".527"/></g><g transform="translate(339.23 465.47)"><path d="m0 0v-324.93" fill="none" stroke="#fff" stroke-miterlimit="10" stroke-width=".527"/></g><g transform="translate(321.35 465.47)"><path d="m0 0v-324.93" fill="none" stroke="#fff" stroke-miterlimit="10" stroke-width=".527"/></g><g transform="translate(303.46 465.47)"><path d="m0 0v-324.93" fill="none" stroke="#fff" stroke-miterlimit="10" stroke-width=".527"/></g><g transform="translate(285.58 465.47)"><path d="m0 0v-324.93" fill="none" stroke="#fff" stroke-miterlimit="10" stroke-width=".527"/></g><g transform="translate(267.69 465.47)"><path d="m0 0v-324.93" fill="none" stroke="#fff" stroke-miterlimit="10" stroke-width=".527"/></g><g transform="translate(249.81 465.47)"><path d="m0 0v-324.93" fill="none" stroke="#fff" stroke-miterlimit="10" stroke-width=".527"/></g><g transform="translate(231.93 465.47)"><path d="m0 0v-324.93" fill="none" stroke="#fff" stroke-miterlimit="10" stroke-width=".527"/></g><g transform="translate(214.04 465.47)"><path d="m0 0v-324.93" fill="none" stroke="#fff" stroke-miterlimit="10" stroke-width=".527"/></g><g transform="translate(196.16 465.47)"><path d="m0 0v-324.93" fill="none" stroke="#fff" stroke-miterlimit="10" stroke-width=".527"/></g><g transform="translate(178.27 465.47)"><path d="m0 0v-324.93" fill="none" stroke="#fff" stroke-miterlimit="10" stroke-width=".527"/></g><g transform="translate(160.39 465.47)"><path d="m0 0v-324.93" fill="none" stroke="#fff" stroke-miterlimit="10" stroke-width=".527"/></g><g transform="translate(142.5 465.47)"><path d="m0 0v-324.93" fill="none" stroke="#fff" stroke-miterlimit="10" stroke-width=".527"/></g><g transform="translate(124.62 465.47)"><path d="m0 0v-324.93" fill="none" stroke="#fff" stroke-miterlimit="10" stroke-width=".527"/></g><g transform="translate(106.74 465.47)"><path d="m0 0v-324.93" fill="none" stroke="#fff" stroke-miterlimit="10" stroke-width=".527"/></g><g transform="translate(88.851 465.47)"><path d="m0 0v-324.93" fill="none" stroke="#fff" stroke-miterlimit="10" stroke-width=".527"/></g><g transform="translate(70.967 465.47)"><path d="m0 0v-324.93" fill="none" stroke="#fff" stroke-miterlimit="10" stroke-width=".527"/></g></g><g clip-path="url(#clipPath1568-3)" opacity=".8"><path d="m696.85 465.4h-643.78v-324.88h643.78z" fill="none" stroke="#fff" stroke-miterlimit="10" stroke-width="1.043"/></g></g></g><g transform="matrix(1.3333 0 0 -1.3333 66.247 50.316)"><text transform="scale(1,-1)" x="2.2251799" y="25.217022" dominant-baseline="auto" fill="#ffffff" font-family="sans-serif" font-size="24.016px" letter-spacing="0px" stroke-width=".023362" word-spacing="0px" style="font-feature-settings:normal;font-variant-alternates:normal;font-variant-caps:normal;font-variant-ligatures:normal;font-variant-numeric:normal;font-variant-position:normal;line-height:1.25;shape-padding:0;text-decoration-color:#000000;text-decoration-line:none;text-decoration-style:solid;text-indent:0;text-orientation:mixed;text-transform:none;white-space:normal" xml:space="preserve"><tspan x="2.2251799" y="25.217022" fill="#ffffff" font-family="MicroSquare" font-weight="bold" stroke-width=".023362">N</tspan></text>

<path d="m17.776-1.2781-6.7008 11.833-6.7008-11.833z" fill="#fff" stroke-width=".76784" style="paint-order:stroke fill markers"/></g><g transform="matrix(1.081 0 0 1.081 -42.8 -20.947)"><g transform="matrix(1.3333 0 0 -1.3333 -52.096 634.64)"><g clip-path="url(#clipPath546)" opacity=".8"><g transform="translate(445.72 190.56)"><path d="m0 0v-4.203" fill="none" stroke="#fff" stroke-miterlimit="10" stroke-width="2.107"/></g><g transform="translate(246.05 358.58)"><path d="m0 0h-46.589v40.517h91.309v17.865" fill="none" stroke="#fff" stroke-miterlimit="10" stroke-width="1.053"/></g><path d="m276.35 399.14h-20.755v18.062h20.755z" fill="none" stroke="#fff" stroke-miterlimit="10" stroke-width="1.053"/><g transform="matrix(1.6246 0 0 1.6246 -174.14 -261.34)"><g transform="translate(273.16 412.1)"><path d="m0 0c0 1.282-1.039 2.321-2.321 2.321s-2.321-1.039-2.321-2.321 1.039-2.321 2.321-2.321 2.321 1.039 2.321 2.321z" fill="none" stroke="#fff" stroke-miterlimit="10" stroke-width=".527"/></g><g transform="translate(267.68 412.1)"><path d="m0 0h2.518" fill="none" stroke="#fff" stroke-miterlimit="10" stroke-width=".527"/></g><g transform="translate(271.6 412.1)"><path d="m0 0h2.518" fill="none" stroke="#fff" stroke-miterlimit="10" stroke-width=".527"/></g><g transform="translate(270.9 415.32)"><path d="m0 0v-2.518" fill="none" stroke="#fff" stroke-miterlimit="10" stroke-width=".527"/></g><g transform="translate(270.9 411.4)"><path d="m0 0v-2.518" fill="none" stroke="#fff" stroke-miterlimit="10" stroke-width=".527"/></g></g><g fill="none" stroke="#fff" stroke-miterlimit="10"><path d="m319.26 393.61h-27.323v23.586h27.323z" stroke-width="1.053"/><path d="m305.85 393.61h-13.908v1.431h13.908z" stroke-width=".648"/><path d="m305.85 393.61h13.415v1.431h-13.415z" stroke-width=".648"/><path d="m514.34 306.6h-78.364v-9.51h78.364z" stroke-width=".921"/></g><g transform="translate(539.68 301.16)"><path d="m0 0-17.689 17.603" fill="none" stroke="#fff" stroke-miterlimit="10" stroke-width="1.053"/></g><g transform="translate(522.31 318.36)"><path d="m0 0s0.19 0.328 0.613 0.85" fill="none" stroke="#fff" stroke-miterlimit="10" stroke-width=".527"/></g><g transform="translate(524.27 320.63)"><path d="m0 0c2.175 2.016 6.344 4.742 13.403 5.416" fill="none" stroke="#fff" stroke-dasharray="1.961, 1.961" stroke-miterlimit="10" stroke-width=".527"/></g><g transform="translate(538.66 326.13)"><path d="m0 0c0.344 0.022 0.694 0.04 1.052 0.053" fill="none" stroke="#fff" stroke-miterlimit="10" stroke-width=".527"/></g><g transform="translate(385.38 292.15)"><path d="m0 0 16.505-13.936" fill="none" stroke="#fff" stroke-miterlimit="10" stroke-width="1.053"/></g><g transform="translate(401.58 278.54)"><path d="m0 0s-0.174-0.339-0.578-0.877" fill="none" stroke="#fff" stroke-miterlimit="10" stroke-width=".527"/></g><g transform="translate(399.56 276.07)"><path d="m0 0c-1.855-1.745-5.165-3.932-10.628-4.863" fill="none" stroke="#fff" stroke-dasharray="2.155, 2.155" stroke-miterlimit="10" stroke-width=".527"/></g><g transform="translate(387.86 271.04)"><path d="m0 0c-0.342-0.045-0.69-0.086-1.047-0.121" fill="none" stroke="#fff" stroke-miterlimit="10" stroke-width=".527"/></g><g transform="translate(343.39 292.15)"><path d="m0 0-16.504-13.936" fill="none" stroke="#fff" stroke-miterlimit="10" stroke-width="1.053"/></g><g transform="translate(327.19 278.54)"><path d="m0 0s0.173-0.339 0.578-0.877" fill="none" stroke="#fff" stroke-miterlimit="10" stroke-width=".527"/></g><g transform="translate(329.21 276.07)"><path d="m0 0c1.855-1.745 5.165-3.932 10.628-4.863" fill="none" stroke="#fff" stroke-dasharray="2.155, 2.155" stroke-miterlimit="10" stroke-width=".527"/></g><g transform="translate(340.91 271.04)"><path d="m0 0c0.341-0.045 0.69-0.086 1.047-0.121" fill="none" stroke="#fff" stroke-miterlimit="10" stroke-width=".527"/></g><g transform="translate(346.07 266.61)"><path d="m0 0 14.462-15.213" fill="none" stroke="#fff" stroke-miterlimit="10" stroke-width="1.053"/></g><g transform="translate(360.2 251.67)"><path d="m0 0s0.32 0.205 0.814 0.663" fill="none" stroke="#fff" stroke-miterlimit="10" stroke-width=".527"/></g><g transform="translate(362.43 253.9)"><path d="m0 0c1.516 1.98 3.33 5.418 3.808 10.859" fill="none" stroke="#fff" stroke-dasharray="2.119, 2.119" stroke-miterlimit="10" stroke-width=".527"/></g><g transform="translate(366.31 265.83)"><path d="m0 0c0.018 0.344 0.031 0.695 0.039 1.053" fill="none" stroke="#fff" stroke-miterlimit="10" stroke-width=".527"/></g><g transform="translate(186.37 238)"><path d="m0 0 15.469-15.076" fill="none" stroke="#fff" stroke-miterlimit="10" stroke-width="1.053"/></g><g transform="translate(201.48 223.2)"><path d="m0 0s0.321 0.205 0.817 0.659" fill="none" stroke="#fff" stroke-miterlimit="10" stroke-width=".527"/></g><g transform="translate(203.74 225.45)"><path d="m0 0c1.557 2.017 3.413 5.522 3.811 11.05" fill="none" stroke="#fff" stroke-dasharray="2.155, 2.155" stroke-miterlimit="10" stroke-width=".527"/></g><g transform="translate(207.61 237.58)"><path d="m0 0c0.012 0.344 0.019 0.694 0.019 1.054" fill="none" stroke="#fff" stroke-miterlimit="10" stroke-width=".527"/></g><g transform="translate(186.37 305.01)"><path d="m0 0 14.566-15.086" fill="none" stroke="#fff" stroke-miterlimit="10" stroke-width=".883"/></g><g transform="translate(200.6 290.19)"><path d="m0 0s0.314 0.213 0.795 0.686" fill="none" stroke="#fff" stroke-miterlimit="10" stroke-width=".527"/></g><g transform="translate(202.77 292.5)"><path d="m0 0c1.459 2.027 3.181 5.527 3.55 11.018" fill="none" stroke="#fff" stroke-dasharray="2.131, 2.131" stroke-miterlimit="10" stroke-width=".527"/></g><g transform="translate(206.37 304.59)"><path d="m0 0c0.011 0.344 0.018 0.695 0.018 1.054" fill="none" stroke="#fff" stroke-miterlimit="10" stroke-width=".527"/></g><g transform="translate(238.99 305.05)"><path d="m0 0-14.104 14.408" fill="none" stroke="#fff" stroke-miterlimit="10" stroke-width="1.053"/></g><g transform="translate(225.22 319.2)"><path d="m0 0s-0.327-0.198-0.829-0.643" fill="none" stroke="#fff" stroke-miterlimit="10" stroke-width=".527"/></g><g transform="translate(223.02 317.11)"><path d="m0 0c-1.485-1.846-3.264-5.05-3.761-10.129" fill="none" stroke="#fff" stroke-dasharray="1.991, 1.991" stroke-miterlimit="10" stroke-width=".527"/></g><g transform="translate(219.18 305.98)"><path d="m0 0c-0.021-0.343-0.036-0.694-0.045-1.053" fill="none" stroke="#fff" stroke-miterlimit="10" stroke-width=".527"/></g><g transform="translate(181.52 332.13)"><path d="m0 0 16.937-16.797" fill="none" stroke="#fff" stroke-miterlimit="10" stroke-width="1.053"/></g><g transform="translate(198.15 315.72)"><path d="m0 0s-0.199-0.323-0.64-0.831" fill="none" stroke="#fff" stroke-miterlimit="10" stroke-width=".527"/></g><g transform="translate(196.18 313.57)"><path d="m0 0c-2.138-1.854-6.188-4.312-12.965-4.837" fill="none" stroke="#fff" stroke-dasharray="1.876, 1.876" stroke-miterlimit="10" stroke-width=".527"/></g><g transform="translate(182.27 308.67)"><path d="m0 0c-0.344-0.017-0.695-0.029-1.053-0.036" fill="none" stroke="#fff" stroke-miterlimit="10" stroke-width=".527"/></g><g transform="translate(445.73 189.98)"><path d="m0 0-14.961 14.574" fill="none" stroke="#fff" stroke-miterlimit="10" stroke-width="1.053"/></g><g transform="translate(433.19 206.47)"><path d="m0 0c1.919 1.541 5.261 3.395 10.572 3.905" fill="none" stroke="#fff" stroke-dasharray="2.077, 2.077" stroke-miterlimit="10" stroke-width=".527"/></g><g transform="translate(444.81 210.45)"><path d="m0 0c0.344 0.021 0.694 0.035 1.053 0.044" fill="none" stroke="#fff" stroke-miterlimit="10" stroke-width=".527"/></g><g fill="none" stroke="#fff" stroke-miterlimit="10" stroke-width="1.053"><path d="m525.37 279.89h-57.488v15.708h57.488z"/><path d="m454.63 215.35h-7.159v45.093h7.159z"/><path d="m324.48 245.28h15.708v-57.488h-15.708z"/><path d="m170.96 301.32h10.509v37.131h-10.509z"/><path d="m170.96 301.32h-4.159v37.131h4.159z"/><path d="m166.8 301.32h-4.159v37.131h4.159z"/></g><path d="m318.33 187.67h-49.022v-2.637h49.022zm-0.528-2.109h-47.967v1.581h47.967z" fill="#fff"/><path d="m293.93 185.04h-0.827v2.637h0.827z" fill="#fff"/><g transform="translate(242.61 242.17)"><path d="m0 0h-13.906c-0.352 0-0.636 0.284-0.636 0.637v17.759c0 0.351 0.284 0.636 0.636 0.636h13.906c0.352 0 0.637-0.285 0.637-0.636v-17.759c0-0.353-0.285-0.637-0.637-0.637z" fill="none" stroke="#fff" stroke-miterlimit="10" stroke-width="1.053"/></g><g transform="translate(227.54 196.57)"><path d="m0 0h-13.906c-0.351 0-0.636 0.285-0.636 0.637v17.759c0 0.351 0.285 0.636 0.636 0.636h13.906c0.352 0 0.637-0.285 0.637-0.636v-17.759c0-0.352-0.285-0.637-0.637-0.637z" fill="none" stroke="#fff" stroke-miterlimit="10" stroke-width="1.053"/></g><g transform="translate(539.71 325.6)"><path d="m0 0v19.091" fill="none" stroke="#fff" stroke-miterlimit="10" stroke-width="2.107"/></g><path d="m541.03 392.57h-2.637v-49.022h2.637zm-0.528-48.495h-1.581v47.967h1.581z" fill="#fff"/><path d="m541.03 364.87h-2.637v0.997h2.637z" fill="#fff"/><g transform="translate(539.71 391.86)"><path d="m0 0v25.221h-33.628" fill="none" stroke="#fff" stroke-miterlimit="10" stroke-width="2.107"/></g><path d="m508.08 418.4h-49.022v-2.636h49.022zm-0.527-2.108h-47.968v1.582h47.968z" fill="#fff"/><path d="m483.61 415.76h-0.827v2.636h0.827z" fill="#fff"/><g transform="translate(459.84 417.08)"><path d="m0 0h-79.866" fill="none" stroke="#fff" stroke-miterlimit="10" stroke-width="2.107"/></g><g transform="translate(424.22 266.4)"><path d="m0 0h-1.054" fill="none" stroke="#fff" stroke-linecap="round" stroke-miterlimit="10" stroke-width="1.053"/></g><g transform="translate(420.91 266.4)"><path d="m0 0h-21.437" fill="none" stroke="#fff" stroke-dasharray="2.257, 2.257" stroke-linecap="round" stroke-miterlimit="10" stroke-width="1.053"/></g><g transform="translate(398.34 266.4)"><path d="m0 0h-1.053" fill="none" stroke="#fff" stroke-linecap="round" stroke-miterlimit="10" stroke-width="1.053"/></g><g transform="translate(334.21 417.08)"><path d="m0 0h-152.73v-50.442h-26.622" fill="none" stroke="#fff" stroke-miterlimit="10" stroke-width="2.107"/></g><g transform="translate(539.71 258.28)"><path d="m0 0v43.495" fill="none" stroke="#fff" stroke-miterlimit="10" stroke-width="2.107"/></g><g transform="translate(317.86 186.36)"><path d="m0 0h221.85v24.287" fill="none" stroke="#fff" stroke-miterlimit="10" stroke-width="2.107"/></g><g transform="translate(156.96 366.64)"><path d="m0 0h-24.754v-180.28h137.55" fill="none" stroke="#fff" stroke-miterlimit="10" stroke-width="2.107"/></g><g transform="translate(181.48 366.64)"><path d="m0 0v-34.917" fill="none" stroke="#fff" stroke-miterlimit="10" stroke-width="2.107"/></g><g transform="translate(181.48 308.84)"><path d="m0 0v-122.48" fill="none" stroke="#fff" stroke-miterlimit="10" stroke-width="2.107"/></g><g transform="translate(247.59 297.05)"><path d="m0 0h95.845v-5.604" fill="none" stroke="#fff" stroke-miterlimit="10" stroke-width="2.107"/></g><g transform="translate(539.59 297.05)"><path d="m0 0h-154.48v-5.604" fill="none" stroke="#fff" stroke-miterlimit="10" stroke-width="2.107"/></g><g transform="translate(237.99 305.22)"><path d="m0 0h9.575v-19.616h-35.73v19.616" fill="none" stroke="#fff" stroke-miterlimit="10" stroke-width="2.107"/></g><g transform="translate(206.23 305.22)"><path d="m0 0h13.078" fill="none" stroke="#fff" stroke-miterlimit="10" stroke-width="2.107"/></g><g transform="translate(181.48 305.22)"><path d="m0 0h5.371" fill="none" stroke="#fff" stroke-miterlimit="10" stroke-width="2.107"/></g><g transform="translate(181.48 238.2)"><path d="m0 0h5.371" fill="none" stroke="#fff" stroke-miterlimit="10" stroke-width="2.107"/></g><g transform="translate(207.52 238.2)"><path d="m0 0h39.467" fill="none" stroke="#fff" stroke-miterlimit="10" stroke-width="2.107"/></g><g transform="translate(247.69 186.47)"><path d="m0 0v9.457l-0.117 33.949v55.726" fill="none" stroke="#fff" stroke-miterlimit="10" stroke-width="2.107"/></g><g transform="translate(341.86 186.53)"><path d="m0 0v84.508" fill="none" stroke="#fff" stroke-miterlimit="10" stroke-width="2.107"/></g><g transform="translate(341.77 266.4)"><path d="m0 0h4.642" fill="none" stroke="#fff" stroke-miterlimit="10" stroke-width="2.107"/></g><g transform="translate(366.2 266.4)"><path d="m0 0h31.088" fill="none" stroke="#fff" stroke-miterlimit="10" stroke-width="2.107"/></g><g transform="translate(431.35 266.4)"><path d="m0 0h14.362v-56.222" fill="none" stroke="#fff" stroke-miterlimit="10" stroke-width="2.107"/></g><g transform="translate(181.48 335.23)"><path d="m0 0h70.99v25.747h-6.305v-18.216h-64.685z" fill="none" stroke="#fff" stroke-miterlimit="10" stroke-width="2.107"/></g><path d="m342.21 303.53h-94.619v-6.48h94.619z" fill="none" stroke="#fff" stroke-miterlimit="10" stroke-width="2.107"/><g transform="translate(539.71 417.08)"><path d="m0 0v-7.244h80.168v-216.24h-80.168v-7.244h87.105v230.72z" fill="none" stroke="#fff" stroke-miterlimit="10" stroke-width="2.107"/></g><path d="m541.03 259.29h-2.637v-49.022h2.637zm-0.528-48.495h-1.581v47.968h1.581z" fill="#fff"/><path d="m541.03 234.87h-2.637v0.996h2.637z" fill="#fff"/></g></g></g>







</g></svg>
